%TF.GenerationSoftware,KiCad,Pcbnew,8.0.1*%
%TF.CreationDate,2025-09-11T03:38:31+04:00*%
%TF.ProjectId,Neopixel_project_v3.0,4e656f70-6978-4656-9c5f-70726f6a6563,v3.0*%
%TF.SameCoordinates,Original*%
%TF.FileFunction,Legend,Bot*%
%TF.FilePolarity,Positive*%
%FSLAX46Y46*%
G04 Gerber Fmt 4.6, Leading zero omitted, Abs format (unit mm)*
G04 Created by KiCad (PCBNEW 8.0.1) date 2025-09-11 03:38:31*
%MOMM*%
%LPD*%
G01*
G04 APERTURE LIST*
%ADD10C,0.200000*%
%ADD11C,0.120000*%
G04 APERTURE END LIST*
D10*
G36*
X83784214Y-60428471D02*
G01*
X83875073Y-60428471D01*
X83905359Y-60350314D01*
X83938576Y-60312212D01*
X84001102Y-60288276D01*
X84103163Y-60280174D01*
X84129085Y-60279972D01*
X85660000Y-60279972D01*
X85660000Y-59931193D01*
X84591193Y-59312770D01*
X84500579Y-59261215D01*
X84408011Y-59210023D01*
X84317885Y-59162286D01*
X84250230Y-59128611D01*
X84250230Y-59116399D01*
X84362206Y-59121047D01*
X84476483Y-59124734D01*
X84593061Y-59127458D01*
X84691967Y-59128994D01*
X84792472Y-59129863D01*
X84874026Y-59130076D01*
X85316106Y-59130076D01*
X85416803Y-59133693D01*
X85460697Y-59140335D01*
X85526154Y-59177460D01*
X85566741Y-59269480D01*
X85569141Y-59278576D01*
X85660000Y-59278576D01*
X85660000Y-58759316D01*
X85569141Y-58759316D01*
X85538855Y-58839427D01*
X85494403Y-58883391D01*
X85423572Y-58901954D01*
X85324139Y-58906333D01*
X85316106Y-58906350D01*
X84128108Y-58906350D01*
X84028272Y-58903078D01*
X83985959Y-58897069D01*
X83920502Y-58859944D01*
X83877483Y-58768238D01*
X83875073Y-58759316D01*
X83784214Y-58759316D01*
X83784214Y-59315701D01*
X84629295Y-59802233D01*
X84716392Y-59850833D01*
X84803999Y-59898369D01*
X84845205Y-59920446D01*
X84936836Y-59968523D01*
X85025002Y-60012675D01*
X85102149Y-60049406D01*
X85102149Y-60071388D01*
X84998088Y-60067026D01*
X84891070Y-60063403D01*
X84781094Y-60060519D01*
X84668160Y-60058375D01*
X84552269Y-60056970D01*
X84433420Y-60056304D01*
X84385052Y-60056245D01*
X84129085Y-60056245D01*
X84029930Y-60052782D01*
X84000125Y-60048918D01*
X83939553Y-60027425D01*
X83905359Y-59989323D01*
X83875073Y-59909211D01*
X83784214Y-59909211D01*
X83784214Y-60428471D01*
G37*
G36*
X85002389Y-60657729D02*
G01*
X85106677Y-60663238D01*
X85220645Y-60680240D01*
X85322420Y-60708576D01*
X85425746Y-60755960D01*
X85512477Y-60818771D01*
X85573236Y-60884969D01*
X85628234Y-60976264D01*
X85666121Y-61082706D01*
X85684977Y-61185998D01*
X85691263Y-61300418D01*
X85691200Y-61311552D01*
X85683701Y-61418427D01*
X85663704Y-61517193D01*
X85627271Y-61616469D01*
X85605091Y-61659435D01*
X85547637Y-61745798D01*
X85481000Y-61824014D01*
X85409895Y-61893928D01*
X85284842Y-61782554D01*
X85303889Y-61764356D01*
X85373625Y-61688276D01*
X85430900Y-61600837D01*
X85462041Y-61512177D01*
X85472421Y-61413259D01*
X85460209Y-61310438D01*
X85418565Y-61217942D01*
X85347369Y-61147034D01*
X85276111Y-61108901D01*
X85175072Y-61078775D01*
X85066704Y-61063350D01*
X84957557Y-61058618D01*
X84957557Y-61929588D01*
X84889299Y-61927708D01*
X84782836Y-61918721D01*
X84682540Y-61900767D01*
X84675634Y-61899123D01*
X84577882Y-61868283D01*
X84485680Y-61822610D01*
X84430406Y-61783019D01*
X84362093Y-61711235D01*
X84318945Y-61642134D01*
X84281981Y-61549546D01*
X84276831Y-61531686D01*
X84258677Y-61434141D01*
X84253161Y-61330704D01*
X84253898Y-61308723D01*
X84394822Y-61308723D01*
X84420956Y-61403489D01*
X84499357Y-61467969D01*
X84512787Y-61474023D01*
X84611156Y-61503058D01*
X84716428Y-61517703D01*
X84815896Y-61523168D01*
X84815896Y-61065457D01*
X84803228Y-61066269D01*
X84697629Y-61078003D01*
X84598062Y-61100376D01*
X84503265Y-61140195D01*
X84496594Y-61144145D01*
X84421933Y-61213590D01*
X84394822Y-61308723D01*
X84253898Y-61308723D01*
X84255236Y-61268852D01*
X84269430Y-61163528D01*
X84297070Y-61065932D01*
X84338157Y-60976064D01*
X84354798Y-60948097D01*
X84420438Y-60863681D01*
X84501726Y-60792812D01*
X84588262Y-60740614D01*
X84663298Y-60708256D01*
X84768635Y-60678332D01*
X84870637Y-60662761D01*
X84980516Y-60657571D01*
X85002389Y-60657729D01*
G37*
G36*
X85085365Y-62146495D02*
G01*
X85193442Y-62160600D01*
X85290773Y-62184963D01*
X85387424Y-62224633D01*
X85406991Y-62235201D01*
X85494632Y-62295479D01*
X85565291Y-62368160D01*
X85618967Y-62453245D01*
X85639794Y-62500400D01*
X85670859Y-62602867D01*
X85686744Y-62704387D01*
X85691263Y-62802023D01*
X85688446Y-62880196D01*
X85675929Y-62978016D01*
X85649877Y-63079304D01*
X85611151Y-63171319D01*
X85595387Y-63199813D01*
X85532113Y-63285680D01*
X85452333Y-63357522D01*
X85366420Y-63410188D01*
X85267248Y-63450803D01*
X85168520Y-63475746D01*
X85059840Y-63490187D01*
X84956580Y-63494208D01*
X84935158Y-63494043D01*
X84832926Y-63488266D01*
X84720985Y-63470440D01*
X84620756Y-63440730D01*
X84518625Y-63391048D01*
X84432435Y-63325192D01*
X84421405Y-63314469D01*
X84354002Y-63230486D01*
X84303757Y-63130890D01*
X84274344Y-63033093D01*
X84257538Y-62923825D01*
X84253161Y-62824005D01*
X84253361Y-62818632D01*
X84394822Y-62818632D01*
X84404255Y-62878471D01*
X84459827Y-62959041D01*
X84545764Y-63011095D01*
X84596537Y-63029953D01*
X84693402Y-63053476D01*
X84793937Y-63067347D01*
X84891831Y-63074251D01*
X85000544Y-63076552D01*
X85023955Y-63076441D01*
X85127419Y-63072968D01*
X85227690Y-63063852D01*
X85305090Y-63051108D01*
X85401102Y-63022330D01*
X85435113Y-63006455D01*
X85511500Y-62944173D01*
X85528169Y-62918252D01*
X85549602Y-62822540D01*
X85540290Y-62760746D01*
X85485438Y-62678043D01*
X85400614Y-62625192D01*
X85371264Y-62613581D01*
X85267349Y-62585601D01*
X85170069Y-62570945D01*
X85058391Y-62562507D01*
X84951207Y-62560223D01*
X84939307Y-62560248D01*
X84838349Y-62562751D01*
X84739135Y-62570336D01*
X84638087Y-62586113D01*
X84543346Y-62614897D01*
X84455882Y-62668667D01*
X84416348Y-62720517D01*
X84394822Y-62818632D01*
X84253361Y-62818632D01*
X84255847Y-62751801D01*
X84269952Y-62648418D01*
X84296147Y-62550942D01*
X84313750Y-62505083D01*
X84363319Y-62414089D01*
X84428527Y-62334543D01*
X84476460Y-62291831D01*
X84559579Y-62237036D01*
X84656161Y-62193370D01*
X84673577Y-62187218D01*
X84776389Y-62160478D01*
X84880174Y-62146586D01*
X84981981Y-62142568D01*
X85085365Y-62146495D01*
G37*
G36*
X84403126Y-63771179D02*
G01*
X84435854Y-63811723D01*
X84483726Y-63833217D01*
X84554068Y-63842986D01*
X84593177Y-63844177D01*
X84693775Y-63844940D01*
X85904242Y-63844940D01*
X85952816Y-63844238D01*
X86051277Y-63833705D01*
X86117222Y-63797557D01*
X86160209Y-63707676D01*
X86253998Y-63707676D01*
X86253998Y-64391556D01*
X86160209Y-64391556D01*
X86158161Y-64382809D01*
X86119665Y-64291905D01*
X86053719Y-64252826D01*
X86010147Y-64245868D01*
X85911081Y-64242079D01*
X85655603Y-64242079D01*
X85671204Y-64310345D01*
X85686248Y-64414118D01*
X85691263Y-64519539D01*
X85689980Y-64570769D01*
X85677719Y-64678446D01*
X85652474Y-64775612D01*
X85609197Y-64871249D01*
X85598620Y-64888861D01*
X85536176Y-64968564D01*
X85457799Y-65034338D01*
X85363489Y-65086182D01*
X85265141Y-65121130D01*
X85167147Y-65142593D01*
X85059199Y-65155019D01*
X84956580Y-65158478D01*
X84934830Y-65158359D01*
X84831186Y-65154168D01*
X84718054Y-65141236D01*
X84617184Y-65119684D01*
X84514999Y-65083643D01*
X84429504Y-65035868D01*
X84418655Y-65028117D01*
X84344260Y-64957515D01*
X84291908Y-64871649D01*
X84261599Y-64770517D01*
X84253161Y-64669504D01*
X84253359Y-64655972D01*
X84267499Y-64555937D01*
X84290255Y-64495115D01*
X84472002Y-64495115D01*
X84476776Y-64540040D01*
X84525049Y-64626701D01*
X84607801Y-64680739D01*
X84616400Y-64684436D01*
X84718028Y-64714947D01*
X84819801Y-64730907D01*
X84923779Y-64738711D01*
X85023991Y-64740823D01*
X85100214Y-64739189D01*
X85210315Y-64729778D01*
X85316733Y-64709192D01*
X85413314Y-64673901D01*
X85452577Y-64651673D01*
X85523515Y-64580151D01*
X85549602Y-64480949D01*
X85531355Y-64380413D01*
X85466559Y-64300209D01*
X85405689Y-64269555D01*
X85308969Y-64247756D01*
X85208639Y-64242079D01*
X84726992Y-64242079D01*
X84686029Y-64245016D01*
X84593635Y-64279204D01*
X84566036Y-64299079D01*
X84503754Y-64374459D01*
X84492963Y-64396561D01*
X84472002Y-64495115D01*
X84290255Y-64495115D01*
X84303963Y-64458478D01*
X84342059Y-64393096D01*
X84404524Y-64310481D01*
X84470537Y-64238171D01*
X84466629Y-64221563D01*
X84284424Y-64242079D01*
X84284424Y-64073063D01*
X84284424Y-63692533D01*
X84378213Y-63692533D01*
X84403126Y-63771179D01*
G37*
G36*
X83752951Y-65919539D02*
G01*
X84096845Y-65919539D01*
X84096845Y-65542917D01*
X83752951Y-65542917D01*
X83752951Y-65919539D01*
G37*
G36*
X85569141Y-65397348D02*
G01*
X85525807Y-65486821D01*
X85522247Y-65490160D01*
X85443112Y-65524354D01*
X85341942Y-65532539D01*
X85260907Y-65533635D01*
X84615129Y-65533635D01*
X84516500Y-65528773D01*
X84505708Y-65527285D01*
X84438785Y-65503838D01*
X84400683Y-65456943D01*
X84377725Y-65380739D01*
X84284424Y-65380739D01*
X84284424Y-65758827D01*
X84284424Y-65930286D01*
X85262372Y-65930286D01*
X85361500Y-65931478D01*
X85381563Y-65932240D01*
X85446043Y-65938590D01*
X85486587Y-65950314D01*
X85519804Y-65970342D01*
X85547159Y-66006001D01*
X85569141Y-66068039D01*
X85660000Y-66068039D01*
X85660000Y-65397348D01*
X85569141Y-65397348D01*
G37*
G36*
X84899916Y-67066503D02*
G01*
X85361046Y-67387927D01*
X85442830Y-67447932D01*
X85468513Y-67468527D01*
X85534459Y-67536915D01*
X85569141Y-67610677D01*
X85660000Y-67610677D01*
X85660000Y-66941451D01*
X85569141Y-66941451D01*
X85515097Y-67024849D01*
X85496845Y-67026936D01*
X85465582Y-67022540D01*
X85436762Y-67010328D01*
X85385959Y-66977599D01*
X85160767Y-66822261D01*
X85340041Y-66678157D01*
X85419668Y-66621142D01*
X85423084Y-66619539D01*
X85483168Y-66607815D01*
X85540321Y-66632240D01*
X85569141Y-66710886D01*
X85660000Y-66710886D01*
X85660000Y-66181856D01*
X85569141Y-66181856D01*
X85527532Y-66274508D01*
X85508080Y-66300558D01*
X85437515Y-66376035D01*
X85361046Y-66445638D01*
X85031807Y-66732868D01*
X84571165Y-66409979D01*
X84498381Y-66357711D01*
X84444159Y-66312282D01*
X84403614Y-66270760D01*
X84383098Y-66236078D01*
X84375282Y-66205303D01*
X84284424Y-66205303D01*
X84284424Y-66870132D01*
X84375282Y-66870132D01*
X84428865Y-66787808D01*
X84452951Y-66783670D01*
X84502288Y-66795882D01*
X84566769Y-66835938D01*
X84770956Y-66977111D01*
X84594612Y-67117306D01*
X84524759Y-67163224D01*
X84465652Y-67176413D01*
X84402637Y-67148081D01*
X84375282Y-67072365D01*
X84284424Y-67072365D01*
X84284424Y-67595533D01*
X84375282Y-67595533D01*
X84416534Y-67504563D01*
X84434389Y-67481228D01*
X84507719Y-67407984D01*
X84583740Y-67342496D01*
X84598520Y-67330286D01*
X84899916Y-67066503D01*
G37*
G36*
X85002389Y-67684107D02*
G01*
X85106677Y-67689617D01*
X85220645Y-67706618D01*
X85322420Y-67734954D01*
X85425746Y-67782338D01*
X85512477Y-67845150D01*
X85573236Y-67911347D01*
X85628234Y-68002642D01*
X85666121Y-68109085D01*
X85684977Y-68212376D01*
X85691263Y-68326797D01*
X85691200Y-68337930D01*
X85683701Y-68444805D01*
X85663704Y-68543571D01*
X85627271Y-68642847D01*
X85605091Y-68685814D01*
X85547637Y-68772176D01*
X85481000Y-68850392D01*
X85409895Y-68920307D01*
X85284842Y-68808932D01*
X85303889Y-68790734D01*
X85373625Y-68714654D01*
X85430900Y-68627215D01*
X85462041Y-68538555D01*
X85472421Y-68439637D01*
X85460209Y-68336816D01*
X85418565Y-68244320D01*
X85347369Y-68173412D01*
X85276111Y-68135280D01*
X85175072Y-68105153D01*
X85066704Y-68089728D01*
X84957557Y-68084996D01*
X84957557Y-68955966D01*
X84889299Y-68954086D01*
X84782836Y-68945099D01*
X84682540Y-68927145D01*
X84675634Y-68925502D01*
X84577882Y-68894661D01*
X84485680Y-68848988D01*
X84430406Y-68809398D01*
X84362093Y-68737613D01*
X84318945Y-68668512D01*
X84281981Y-68575924D01*
X84276831Y-68558064D01*
X84258677Y-68460520D01*
X84253161Y-68357083D01*
X84253898Y-68335101D01*
X84394822Y-68335101D01*
X84420956Y-68429867D01*
X84499357Y-68494347D01*
X84512787Y-68500402D01*
X84611156Y-68529436D01*
X84716428Y-68544081D01*
X84815896Y-68549546D01*
X84815896Y-68091835D01*
X84803228Y-68092647D01*
X84697629Y-68104381D01*
X84598062Y-68126754D01*
X84503265Y-68166573D01*
X84496594Y-68170524D01*
X84421933Y-68239968D01*
X84394822Y-68335101D01*
X84253898Y-68335101D01*
X84255236Y-68295230D01*
X84269430Y-68189906D01*
X84297070Y-68092310D01*
X84338157Y-68002442D01*
X84354798Y-67974475D01*
X84420438Y-67890059D01*
X84501726Y-67819190D01*
X84588262Y-67766992D01*
X84663298Y-67734635D01*
X84768635Y-67704710D01*
X84870637Y-67689140D01*
X84980516Y-67683949D01*
X85002389Y-67684107D01*
G37*
G36*
X85262372Y-69675994D02*
G01*
X85361308Y-69677584D01*
X85442623Y-69684298D01*
X85521758Y-69718004D01*
X85566838Y-69804700D01*
X85569141Y-69813259D01*
X85660000Y-69813259D01*
X85660000Y-69140125D01*
X85569141Y-69140125D01*
X85546671Y-69204605D01*
X85516385Y-69240753D01*
X85472909Y-69263712D01*
X85399148Y-69275924D01*
X85300664Y-69278715D01*
X85264326Y-69278855D01*
X84198939Y-69278855D01*
X84097212Y-69278367D01*
X84026503Y-69276901D01*
X83933691Y-69268597D01*
X83873607Y-69247592D01*
X83836971Y-69207048D01*
X83812547Y-69123517D01*
X83721688Y-69123517D01*
X83690425Y-69504047D01*
X83690425Y-69675994D01*
X85262372Y-69675994D01*
G37*
G36*
X84284424Y-71232798D02*
G01*
X84375282Y-71232798D01*
X84410862Y-71139958D01*
X84412407Y-71138032D01*
X84486168Y-71107746D01*
X84584056Y-71121675D01*
X84657627Y-71143405D01*
X85257487Y-71341242D01*
X84731877Y-71559595D01*
X84638676Y-71594454D01*
X84616106Y-71601116D01*
X84517920Y-71614794D01*
X84425036Y-71583620D01*
X84422665Y-71581577D01*
X84375920Y-71492035D01*
X84375282Y-71488276D01*
X84284424Y-71488276D01*
X84284424Y-72022679D01*
X84376259Y-72022679D01*
X84406545Y-71958688D01*
X84453440Y-71913259D01*
X84539413Y-71861968D01*
X84627367Y-71818253D01*
X84711360Y-71779413D01*
X85660000Y-71351011D01*
X85660000Y-71091137D01*
X84615617Y-70728192D01*
X84519559Y-70692607D01*
X84466629Y-70667620D01*
X84405080Y-70616329D01*
X84375282Y-70546964D01*
X84284424Y-70546964D01*
X84284424Y-71232798D01*
G37*
G36*
X84221898Y-72206838D02*
G01*
X83899986Y-72206838D01*
X83857627Y-72313940D01*
X83822448Y-72417870D01*
X83794448Y-72518627D01*
X83773628Y-72616212D01*
X83758121Y-72729127D01*
X83752951Y-72837473D01*
X83757579Y-72939244D01*
X83773358Y-73042267D01*
X83800334Y-73135938D01*
X83841757Y-73225079D01*
X83905884Y-73308066D01*
X83938576Y-73336706D01*
X84025370Y-73385125D01*
X84126750Y-73406430D01*
X84158394Y-73407536D01*
X84256408Y-73398560D01*
X84355144Y-73366320D01*
X84366489Y-73360642D01*
X84450265Y-73304710D01*
X84522805Y-73229727D01*
X84580467Y-73146153D01*
X84629148Y-73059187D01*
X84653230Y-73010397D01*
X84665443Y-73010397D01*
X84691208Y-73111003D01*
X84731747Y-73203380D01*
X84746043Y-73228262D01*
X84805856Y-73306508D01*
X84881002Y-73369419D01*
X84905289Y-73384577D01*
X84998655Y-73424649D01*
X85096402Y-73441765D01*
X85136831Y-73443196D01*
X85243165Y-73434018D01*
X85341186Y-73406485D01*
X85423084Y-73365526D01*
X85502986Y-73302605D01*
X85570074Y-73220635D01*
X85619944Y-73129588D01*
X85654419Y-73035504D01*
X85677612Y-72930755D01*
X85688755Y-72828692D01*
X85691263Y-72746615D01*
X85688030Y-72640455D01*
X85678333Y-72535564D01*
X85663907Y-72441312D01*
X85642561Y-72343049D01*
X85613481Y-72246122D01*
X85587704Y-72180460D01*
X85253579Y-72180460D01*
X85253579Y-72427634D01*
X85353185Y-72462278D01*
X85440566Y-72514331D01*
X85468513Y-72540474D01*
X85518339Y-72624616D01*
X85534882Y-72724128D01*
X85534947Y-72731472D01*
X85522170Y-72830413D01*
X85474966Y-72919972D01*
X85392981Y-72981668D01*
X85295024Y-73012374D01*
X85193873Y-73022325D01*
X85171514Y-73022610D01*
X85069487Y-73014495D01*
X84974614Y-72986445D01*
X84892733Y-72932450D01*
X84880376Y-72920028D01*
X84825866Y-72837255D01*
X84795947Y-72740168D01*
X84785007Y-72635008D01*
X84784633Y-72609351D01*
X84784633Y-72500907D01*
X84628318Y-72500907D01*
X84619602Y-72599896D01*
X84598765Y-72699516D01*
X84561456Y-72794365D01*
X84515966Y-72863363D01*
X84442626Y-72928536D01*
X84351446Y-72969571D01*
X84254129Y-72985864D01*
X84218478Y-72986950D01*
X84114087Y-72978226D01*
X84019212Y-72945996D01*
X83987424Y-72924912D01*
X83926440Y-72843524D01*
X83909267Y-72745150D01*
X83926858Y-72646081D01*
X83938087Y-72620586D01*
X84000770Y-72545187D01*
X84037250Y-72518981D01*
X84130536Y-72476546D01*
X84221898Y-72454012D01*
X84221898Y-72206838D01*
G37*
G36*
X85253579Y-74173970D02*
G01*
X85660000Y-74173970D01*
X85660000Y-73804675D01*
X85253579Y-73804675D01*
X85253579Y-74173970D01*
G37*
G36*
X84760637Y-74467138D02*
G01*
X84861709Y-74469809D01*
X84974967Y-74478053D01*
X85079467Y-74491791D01*
X85190313Y-74514765D01*
X85289239Y-74545219D01*
X85364635Y-74577030D01*
X85452395Y-74626657D01*
X85533681Y-74692341D01*
X85596496Y-74768457D01*
X85628702Y-74825301D01*
X85664517Y-74919711D01*
X85685340Y-75025096D01*
X85691263Y-75127983D01*
X85689052Y-75190641D01*
X85675539Y-75288603D01*
X85643110Y-75395484D01*
X85592993Y-75490722D01*
X85525187Y-75574316D01*
X85439692Y-75646266D01*
X85423705Y-75657146D01*
X85336756Y-75706361D01*
X85238119Y-75746943D01*
X85127794Y-75778890D01*
X85031120Y-75798231D01*
X84926966Y-75812046D01*
X84815331Y-75820335D01*
X84696217Y-75823098D01*
X84608709Y-75821634D01*
X84498750Y-75815127D01*
X84396470Y-75803415D01*
X84279417Y-75781455D01*
X84174361Y-75751361D01*
X84081303Y-75713133D01*
X83985471Y-75656524D01*
X83943917Y-75623872D01*
X83873071Y-75549500D01*
X83818574Y-75463038D01*
X83780427Y-75364486D01*
X83758628Y-75253844D01*
X83752951Y-75152407D01*
X83753350Y-75144591D01*
X83909267Y-75144591D01*
X83909877Y-75159742D01*
X83948346Y-75252547D01*
X83988407Y-75288553D01*
X84078283Y-75333635D01*
X84143007Y-75353738D01*
X84240826Y-75373705D01*
X84339134Y-75386880D01*
X84440465Y-75395853D01*
X84541048Y-75401364D01*
X84651522Y-75404555D01*
X84756301Y-75405443D01*
X84847290Y-75404670D01*
X84951886Y-75401626D01*
X85057697Y-75395673D01*
X85082589Y-75393821D01*
X85181528Y-75383217D01*
X85283377Y-75364410D01*
X85336633Y-75349765D01*
X85428946Y-75311165D01*
X85435672Y-75307286D01*
X85509546Y-75241312D01*
X85534947Y-75149965D01*
X85516271Y-75068227D01*
X85449951Y-74996092D01*
X85387268Y-74963071D01*
X85287617Y-74931381D01*
X85184214Y-74911584D01*
X85124845Y-74903844D01*
X85017202Y-74894189D01*
X84910243Y-74888495D01*
X84809075Y-74885662D01*
X84699148Y-74884717D01*
X84662225Y-74884829D01*
X84556816Y-74886503D01*
X84449120Y-74890720D01*
X84351346Y-74897418D01*
X84297428Y-74902965D01*
X84200204Y-74917665D01*
X84104661Y-74940893D01*
X84043046Y-74964081D01*
X83958115Y-75021493D01*
X83936744Y-75048054D01*
X83909267Y-75144591D01*
X83753350Y-75144591D01*
X83756987Y-75073255D01*
X83774924Y-74974505D01*
X83812254Y-74872680D01*
X83867745Y-74780670D01*
X83940389Y-74699753D01*
X84018974Y-74637754D01*
X84110748Y-74585096D01*
X84201870Y-74546685D01*
X84302739Y-74515660D01*
X84413004Y-74492255D01*
X84514997Y-74478259D01*
X84623893Y-74469861D01*
X84739692Y-74467062D01*
X84760637Y-74467138D01*
G37*
D11*
%TO.C,D1*%
X103800000Y-63250000D02*
X100200000Y-63250000D01*
X103800000Y-66450000D02*
X100200000Y-66450000D01*
X103800000Y-66450000D02*
X103800000Y-63250000D01*
%TO.C,D4*%
X99980000Y-67730000D02*
X99980000Y-70970000D01*
X103220000Y-67730000D02*
X99980000Y-67730000D01*
X103220000Y-70970000D02*
X99980000Y-70970000D01*
%TO.C,D3*%
X104480000Y-67730000D02*
X104480000Y-70970000D01*
X107720000Y-67730000D02*
X104480000Y-67730000D01*
X107720000Y-70970000D02*
X104480000Y-70970000D01*
%TO.C,D2*%
X104480000Y-63230000D02*
X104480000Y-66470000D01*
X107720000Y-63230000D02*
X104480000Y-63230000D01*
X107720000Y-66470000D02*
X104480000Y-66470000D01*
%TD*%
M02*
