M48
; DRILL file {KiCad 8.0.1} date 2025-09-12T21:56:17+0400
; FORMAT={-:-/ absolute / inch / decimal}
; #@! TF.CreationDate,2025-09-12T21:56:17+04:00
; #@! TF.GenerationSoftware,Kicad,Pcbnew,8.0.1
; #@! TF.FileFunction,Plated,1,2,PTH
FMAT,2
INCH
; #@! TA.AperFunction,Plated,PTH,ViaDrill
T1C0.0118
; #@! TA.AperFunction,Plated,PTH,ComponentDrill
T2C0.0118
; #@! TA.AperFunction,Plated,PTH,ComponentDrill
T3C0.0394
; #@! TA.AperFunction,Plated,PTH,ComponentDrill
T4C0.0433
%
G90
G05
T1
X3.252Y-2.7008
X3.3307Y-2.7992
X3.4587Y-2.4449
X3.5669Y-2.2283
X3.8957Y-2.5157
X3.8957Y-2.5433
X3.8957Y-2.5709
X3.8957Y-2.5984
X3.9016Y-3.311
X3.9075Y-2.4921
X3.9154Y-2.6181
X3.9272Y-2.7047
X3.9272Y-2.7323
X3.9272Y-2.7598
X3.9311Y-2.6772
X3.9311Y-2.7874
X3.935Y-2.1339
X3.9409Y-1.7559
X3.9547Y-2.7953
X3.9587Y-2.6693
X3.9587Y-3.2323
X3.9823Y-2.7953
X3.9902Y-2.6693
X4.002Y-2.4843
X4.0098Y-2.6181
X4.0295Y-2.4843
X4.0374Y-2.6181
X4.0453Y-2.6693
X4.0453Y-2.7913
X4.0571Y-2.4843
X4.0689Y-2.6181
X4.0689Y-2.689
X4.0689Y-2.7717
X4.0728Y-3.4783
X4.0768Y-2.7126
X4.0768Y-2.748
X4.0886Y-2.1201
X4.0886Y-2.4843
X4.0886Y-3.1535
X4.1004Y-2.5157
X4.1004Y-2.5433
X4.1004Y-2.5748
X4.1004Y-2.6063
X4.1043Y-2.689
X4.1043Y-2.7165
X4.1043Y-2.7441
X4.1043Y-2.7717
X4.1201Y-2.6654
X4.124Y-2.7953
X4.1319Y-2.4843
X4.1476Y-2.6654
X4.1516Y-2.7953
X4.1575Y-3.3183
X4.1634Y-2.4843
X4.1752Y-2.6654
X4.1791Y-2.7953
X4.187Y-1.9921
X4.2224Y-2.6142
X4.2224Y-2.6693
X4.2264Y-2.4882
X4.2382Y-2.7913
X4.2461Y-2.6024
X4.2461Y-2.685
X4.25Y-2.5039
X4.25Y-2.7677
X4.2579Y-2.5315
X4.2579Y-2.5787
X4.2579Y-2.7087
X4.2579Y-2.7402
X4.2657Y-2.5551
X4.2813Y-3.1246
X4.2894Y-2.0984
X4.3346Y-1.7461
X4.3543Y-1.9921
X4.3981Y-3.2726
X4.4114Y-3.3996
X4.4232Y-1.9429
X4.5315Y-1.8642
X4.5315Y-1.9331
X4.5413Y-2.3228
X4.5413Y-2.4331
X4.5423Y-2.3645
X4.543Y-2.0392
X4.5965Y-2.0393
X4.6159Y-2.3543
X4.624Y-2.3071
X4.6496Y-2.4646
X4.6616Y-2.0999
X4.6693Y-2.315
X4.6732Y-2.1732
X4.6747Y-2.6472
X4.6772Y-2.0354
X4.689Y-2.7795
X4.6949Y-2.3571
X4.6989Y-2.6241
X4.7028Y-1.9567
X4.7185Y-2.1594
X4.7185Y-2.8287
X4.7402Y-3.0177
X4.7441Y-2.3576
X4.7445Y-2.392
X4.763Y-2.31
X4.8368Y-2.1656
T2
X4.7874Y-2.8976
T3
X4.2734Y-1.8543
X4.3734Y-1.8543
X4.4734Y-1.8543
T4
X3.772Y-1.9213
X3.872Y-1.9213
M30
