%TF.GenerationSoftware,KiCad,Pcbnew,8.0.1*%
%TF.CreationDate,2025-09-12T21:56:14+04:00*%
%TF.ProjectId,Neopixel_project_v3.0,4e656f70-6978-4656-9c5f-70726f6a6563,v3.0*%
%TF.SameCoordinates,Original*%
%TF.FileFunction,Copper,L2,Bot*%
%TF.FilePolarity,Positive*%
%FSLAX46Y46*%
G04 Gerber Fmt 4.6, Leading zero omitted, Abs format (unit mm)*
G04 Created by KiCad (PCBNEW 8.0.1) date 2025-09-12 21:56:14*
%MOMM*%
%LPD*%
G01*
G04 APERTURE LIST*
%TA.AperFunction,ComponentPad*%
%ADD10R,2.200000X2.200000*%
%TD*%
%TA.AperFunction,ComponentPad*%
%ADD11C,2.200000*%
%TD*%
%TA.AperFunction,ComponentPad*%
%ADD12R,0.500000X0.900000*%
%TD*%
%TA.AperFunction,ComponentPad*%
%ADD13R,1.700000X1.700000*%
%TD*%
%TA.AperFunction,ComponentPad*%
%ADD14O,1.700000X1.700000*%
%TD*%
%TA.AperFunction,SMDPad,CuDef*%
%ADD15R,2.200000X2.200000*%
%TD*%
%TA.AperFunction,SMDPad,CuDef*%
%ADD16R,1.250000X2.200000*%
%TD*%
%TA.AperFunction,SMDPad,CuDef*%
%ADD17R,1.600000X2.400000*%
%TD*%
%TA.AperFunction,SMDPad,CuDef*%
%ADD18R,0.600000X2.400000*%
%TD*%
%TA.AperFunction,SMDPad,CuDef*%
%ADD19R,0.600000X0.500000*%
%TD*%
%TA.AperFunction,ViaPad*%
%ADD20C,0.600000*%
%TD*%
%TA.AperFunction,Conductor*%
%ADD21C,0.500000*%
%TD*%
%TA.AperFunction,Conductor*%
%ADD22C,1.000000*%
%TD*%
%TA.AperFunction,Conductor*%
%ADD23C,0.150000*%
%TD*%
G04 APERTURE END LIST*
D10*
%TO.P,J3,1,Pin_1*%
%TO.N,GND*%
X98350000Y-48800000D03*
D11*
%TO.P,J3,2,Pin_2*%
%TO.N,24V*%
X95810000Y-48800000D03*
%TD*%
D12*
%TO.P,AE1,2,Shield*%
%TO.N,GND*%
X121600000Y-73600000D03*
%TD*%
D13*
%TO.P,J1,1,Pin_1*%
%TO.N,GND*%
X113625000Y-47100000D03*
D14*
%TO.P,J1,2,Pin_2*%
%TO.N,USB_D-*%
X111085000Y-47100000D03*
%TO.P,J1,3,Pin_3*%
%TO.N,USB_D+*%
X108545000Y-47100000D03*
%TD*%
D15*
%TO.P,D1,1,K*%
%TO.N,Net-(D1-K)*%
X102500000Y-64850000D03*
D16*
%TO.P,D1,2,A*%
%TO.N,Net-(D1-A)*%
X100225000Y-64850000D03*
%TD*%
D17*
%TO.P,D4,1,K*%
%TO.N,Net-(D4-K)*%
X101025000Y-69350000D03*
D18*
%TO.P,D4,2,A*%
%TO.N,Net-(D3-K)*%
X102675000Y-69350000D03*
D19*
X102975000Y-69350000D03*
%TD*%
D17*
%TO.P,D3,1,K*%
%TO.N,Net-(D3-K)*%
X105525000Y-69350000D03*
D18*
%TO.P,D3,2,A*%
%TO.N,Net-(D2-A)*%
X107175000Y-69350000D03*
D19*
X107475000Y-69350000D03*
%TD*%
D17*
%TO.P,D2,1,K*%
%TO.N,Net-(D1-K)*%
X105525000Y-64850000D03*
D18*
%TO.P,D2,2,A*%
%TO.N,Net-(D2-A)*%
X107175000Y-64850000D03*
D19*
X107475000Y-64850000D03*
%TD*%
D20*
%TO.N,GND*%
X110100000Y-44350000D03*
X111712953Y-83125000D03*
X116750000Y-51798006D03*
X119351525Y-66652042D03*
X122855331Y-55005331D03*
X87850000Y-62100000D03*
X119100000Y-70600000D03*
X106350000Y-50600000D03*
X103850000Y-53850000D03*
X103850000Y-80100000D03*
X100100000Y-44600000D03*
X120400000Y-76650000D03*
X105600516Y-84283662D03*
X99100000Y-84100000D03*
X118100000Y-62600000D03*
X90600000Y-56600000D03*
X84600000Y-71100000D03*
%TO.N,3v3*%
X103450000Y-88350000D03*
X112350000Y-49350000D03*
X115100000Y-47350000D03*
X119850000Y-71850000D03*
X119850000Y-54850000D03*
X119450000Y-49700000D03*
X115100000Y-49100000D03*
X112050000Y-86350000D03*
X110600000Y-50600000D03*
X120980136Y-58672979D03*
X118737786Y-67240114D03*
%TO.N,CHIP_EN*%
X120500000Y-59882507D03*
X118700000Y-55200000D03*
%TO.N,BOOT*%
X118404306Y-53338190D03*
X115375000Y-60057148D03*
%TO.N,Net-(D1-K)*%
X101850000Y-66500000D03*
X104150000Y-63900000D03*
X102350000Y-63100000D03*
X103350000Y-66500000D03*
X103850000Y-63100000D03*
X103050000Y-63100000D03*
X101650000Y-63100000D03*
X104150000Y-66200000D03*
X104150000Y-65400000D03*
X102550000Y-66500000D03*
X104150000Y-64600000D03*
X104950000Y-63100000D03*
X105750000Y-63100000D03*
%TO.N,Net-(D1-A)*%
X98950000Y-66000000D03*
X98950000Y-63900000D03*
X98950000Y-64600000D03*
X98950000Y-65300000D03*
X99450000Y-66500000D03*
X99250000Y-63300000D03*
%TO.N,Net-(D2-A)*%
X107850000Y-68200000D03*
X107250000Y-66400000D03*
X107950000Y-70300000D03*
X108150000Y-65500000D03*
X107850000Y-66100000D03*
X107250000Y-67800000D03*
X108150000Y-69600000D03*
X108150000Y-68800000D03*
X108350000Y-64900000D03*
X107650000Y-70900000D03*
X108150000Y-64300000D03*
X107350000Y-63200000D03*
X107950000Y-63600000D03*
%TO.N,Net-(D3-K)*%
X104250000Y-68300000D03*
X106050000Y-67700000D03*
X104250000Y-69700000D03*
X102750000Y-67800000D03*
X103550000Y-68900000D03*
X105450000Y-71000000D03*
X102750000Y-70900000D03*
X103350000Y-68300000D03*
X106150000Y-71000000D03*
X104650000Y-67700000D03*
X105350000Y-67700000D03*
X104750000Y-71000000D03*
X104250000Y-70400000D03*
X103550000Y-69800000D03*
X103350000Y-70400000D03*
X104250000Y-69000000D03*
%TO.N,Net-(D4-K)*%
X101350000Y-67800000D03*
X101150000Y-71000000D03*
X99850000Y-70800000D03*
X99850000Y-68000000D03*
X100450000Y-71000000D03*
X99750000Y-68700000D03*
X100550000Y-67800000D03*
X99750000Y-69400000D03*
X99750000Y-70100000D03*
%TO.N,PWM_W*%
X119250000Y-59871298D03*
X99950000Y-54200000D03*
%TO.N,PWM_R*%
X108950000Y-53300000D03*
X118600000Y-58800000D03*
%TO.N,PWM_G*%
X117450000Y-58600000D03*
X108744124Y-79365785D03*
%TO.N,PWM_B*%
X100550000Y-82100000D03*
X117244365Y-59800000D03*
%TO.N,Net-(U1A-GPIO2)*%
X120509788Y-60756604D03*
X118800000Y-51700000D03*
%TO.N,Net-(U1A-GPIO8)*%
X115392889Y-51796334D03*
X115350000Y-59000000D03*
%TO.N,CTRL*%
X82600000Y-68600000D03*
X115350000Y-61800000D03*
%TD*%
D21*
%TO.N,GND*%
X122855331Y-55005331D02*
X121505331Y-55005331D01*
X121505331Y-55005331D02*
X121450000Y-54950000D01*
%TO.N,3v3*%
X119850000Y-54850000D02*
X120225000Y-54475000D01*
D22*
X110050000Y-88350000D02*
X112050000Y-86350000D01*
D21*
X118601525Y-67103853D02*
X118601525Y-66090937D01*
X120950000Y-58642843D02*
X120950000Y-56600000D01*
X110600000Y-50600000D02*
X110850000Y-50600000D01*
X121309788Y-59002631D02*
X120980136Y-58672979D01*
X121309788Y-63382674D02*
X121309788Y-59002631D01*
X118601525Y-66090937D02*
X121309788Y-63382674D01*
D22*
X108600000Y-88350000D02*
X110050000Y-88350000D01*
D21*
X119850000Y-68352328D02*
X118737786Y-67240114D01*
X120225000Y-50475000D02*
X119450000Y-49700000D01*
X115100000Y-49100000D02*
X115100000Y-47350000D01*
X110850000Y-50600000D02*
X111850000Y-49600000D01*
X111850000Y-49600000D02*
X112100000Y-49350000D01*
D22*
X103450000Y-88350000D02*
X103850000Y-88350000D01*
D21*
X120225000Y-54475000D02*
X120225000Y-50475000D01*
X120950000Y-56600000D02*
X119850000Y-55500000D01*
X118737786Y-67240114D02*
X118601525Y-67103853D01*
X120980136Y-58672979D02*
X120950000Y-58642843D01*
X112100000Y-49350000D02*
X112350000Y-49350000D01*
X119850000Y-55500000D02*
X119850000Y-54850000D01*
D22*
X103850000Y-88350000D02*
X108600000Y-88350000D01*
D21*
X119850000Y-71850000D02*
X119850000Y-68352328D01*
D23*
%TO.N,CHIP_EN*%
X118700000Y-55200000D02*
X120405136Y-56905136D01*
X120500000Y-59076169D02*
X120500000Y-59882507D01*
X120405136Y-58981305D02*
X120500000Y-59076169D01*
X120405136Y-56905136D02*
X120405136Y-58981305D01*
%TO.N,BOOT*%
X115586741Y-59588259D02*
X115950000Y-59225000D01*
X115586741Y-59845407D02*
X115586741Y-59588259D01*
X115375000Y-60057148D02*
X115586741Y-59845407D01*
X115950000Y-59225000D02*
X115950000Y-55792496D01*
X115950000Y-55792496D02*
X118404306Y-53338190D01*
%TO.N,PWM_W*%
X118642479Y-53913190D02*
X118979306Y-53576363D01*
X118642479Y-52763190D02*
X116163190Y-52763190D01*
X118979306Y-53100017D02*
X118642479Y-52763190D01*
X119250000Y-59871298D02*
X119250000Y-59400000D01*
X119250000Y-59400000D02*
X119550000Y-59100000D01*
X115967889Y-51558161D02*
X115623951Y-51214223D01*
X115967889Y-52567889D02*
X115967889Y-51558161D01*
X118636810Y-53913190D02*
X118642479Y-53913190D01*
X117550000Y-55000000D02*
X118636810Y-53913190D01*
X116163190Y-52763190D02*
X115967889Y-52567889D01*
X119550000Y-57800000D02*
X117550000Y-55800000D01*
X102935777Y-51214223D02*
X99950000Y-54200000D01*
X115623951Y-51214223D02*
X102935777Y-51214223D01*
X118979306Y-53576363D02*
X118979306Y-53100017D01*
X117550000Y-55800000D02*
X117550000Y-55000000D01*
X119550000Y-59100000D02*
X119550000Y-57800000D01*
%TO.N,PWM_R*%
X115950000Y-59800000D02*
X115950000Y-60295321D01*
X118600000Y-58800000D02*
X117600000Y-57800000D01*
X116350000Y-58600000D02*
X116350000Y-59400000D01*
X115950000Y-60295321D02*
X115613173Y-60632148D01*
X117150000Y-57800000D02*
X116350000Y-58600000D01*
X115136827Y-60632148D02*
X114750000Y-60245321D01*
X114750000Y-55800000D02*
X109050000Y-55800000D01*
X117600000Y-57800000D02*
X117150000Y-57800000D01*
X114750000Y-60245321D02*
X114750000Y-55800000D01*
X108950000Y-55700000D02*
X108950000Y-53300000D01*
X115613173Y-60632148D02*
X115136827Y-60632148D01*
X116350000Y-59400000D02*
X115950000Y-59800000D01*
X109050000Y-55800000D02*
X108950000Y-55700000D01*
%TO.N,PWM_G*%
X116300000Y-60440295D02*
X116300000Y-59950000D01*
X117450000Y-58600000D02*
X117450000Y-58700000D01*
X116000000Y-60740295D02*
X116300000Y-60440295D01*
X108809909Y-79300000D02*
X116000000Y-79300000D01*
X116700000Y-59550000D02*
X116700000Y-59350000D01*
X116700000Y-59350000D02*
X117450000Y-58600000D01*
X108744124Y-79365785D02*
X108809909Y-79300000D01*
X116300000Y-59950000D02*
X116700000Y-59550000D01*
X116000000Y-79300000D02*
X116000000Y-60740295D01*
%TO.N,PWM_B*%
X114150000Y-82100000D02*
X100550000Y-82100000D01*
X116350000Y-79900000D02*
X114150000Y-82100000D01*
X116650000Y-60394365D02*
X116650000Y-60585269D01*
X116350000Y-60885269D02*
X116350000Y-79900000D01*
X116650000Y-60585269D02*
X116350000Y-60885269D01*
X117244365Y-59800000D02*
X116650000Y-60394365D01*
%TO.N,Net-(U1A-GPIO2)*%
X118781784Y-54263190D02*
X117950000Y-55094974D01*
X117950000Y-55650000D02*
X119900000Y-57600000D01*
X119700000Y-52600000D02*
X119700000Y-53350643D01*
X119900000Y-57600000D02*
X119900000Y-60146816D01*
X119900000Y-60146816D02*
X120509788Y-60756604D01*
X117950000Y-55094974D02*
X117950000Y-55650000D01*
X119700000Y-53350643D02*
X118787453Y-54263190D01*
X118800000Y-51700000D02*
X119700000Y-52600000D01*
X118787453Y-54263190D02*
X118781784Y-54263190D01*
%TO.N,Net-(U1A-GPIO8)*%
X115350000Y-59000000D02*
X115350000Y-51839223D01*
X115350000Y-51839223D02*
X115392889Y-51796334D01*
%TO.N,CTRL*%
X82600000Y-68600000D02*
X82600000Y-69913173D01*
X108982297Y-78790785D02*
X108991512Y-78800000D01*
X108991512Y-78800000D02*
X115650000Y-78800000D01*
X115650000Y-78800000D02*
X115650000Y-62100000D01*
X91477612Y-78790785D02*
X108982297Y-78790785D01*
X82600000Y-69913173D02*
X91477612Y-78790785D01*
X115650000Y-62100000D02*
X115350000Y-61800000D01*
%TD*%
%TA.AperFunction,Conductor*%
%TO.N,Net-(D4-K)*%
G36*
X101793039Y-67369685D02*
G01*
X101838794Y-67422489D01*
X101850000Y-67474000D01*
X101850000Y-70798638D01*
X101830315Y-70865677D01*
X101813681Y-70886319D01*
X94636319Y-78063681D01*
X94574996Y-78097166D01*
X94548638Y-78100000D01*
X92974000Y-78100000D01*
X92906961Y-78080315D01*
X92861206Y-78027511D01*
X92850000Y-77976000D01*
X92850000Y-67474000D01*
X92869685Y-67406961D01*
X92922489Y-67361206D01*
X92974000Y-67350000D01*
X101726000Y-67350000D01*
X101793039Y-67369685D01*
G37*
%TD.AperFunction*%
%TD*%
%TA.AperFunction,Conductor*%
%TO.N,Net-(D1-K)*%
G36*
X108927746Y-56104224D02*
G01*
X109007147Y-56125500D01*
X109007149Y-56125500D01*
X113025138Y-56125500D01*
X113092177Y-56145185D01*
X113137932Y-56197989D01*
X113147876Y-56267147D01*
X113118851Y-56330703D01*
X113112819Y-56337181D01*
X106350000Y-63099999D01*
X106350000Y-66726000D01*
X106330315Y-66793039D01*
X106277511Y-66838794D01*
X106226000Y-66850000D01*
X101474000Y-66850000D01*
X101406961Y-66830315D01*
X101361206Y-66777511D01*
X101350000Y-66726000D01*
X101350000Y-63600000D01*
X94061681Y-56311681D01*
X94028196Y-56250358D01*
X94033180Y-56180666D01*
X94075052Y-56124733D01*
X94140516Y-56100316D01*
X94149362Y-56100000D01*
X108895655Y-56100000D01*
X108927746Y-56104224D01*
G37*
%TD.AperFunction*%
%TD*%
%TA.AperFunction,Conductor*%
%TO.N,Net-(D2-A)*%
G36*
X114367539Y-56145185D02*
G01*
X114413294Y-56197989D01*
X114424500Y-56249500D01*
X114424500Y-60288173D01*
X114446682Y-60370961D01*
X114451837Y-60379889D01*
X114489535Y-60445183D01*
X114489537Y-60445185D01*
X114813681Y-60769329D01*
X114847166Y-60830652D01*
X114850000Y-60857010D01*
X114850000Y-61543917D01*
X114840561Y-61591369D01*
X114813671Y-61656287D01*
X114813670Y-61656291D01*
X114794750Y-61800000D01*
X114813670Y-61943709D01*
X114840561Y-62008632D01*
X114850000Y-62056082D01*
X114850000Y-77976000D01*
X114830315Y-78043039D01*
X114777511Y-78088794D01*
X114726000Y-78100000D01*
X114401362Y-78100000D01*
X114334323Y-78080315D01*
X114313681Y-78063681D01*
X106886319Y-70636319D01*
X106852834Y-70574996D01*
X106850000Y-70548638D01*
X106850000Y-63151362D01*
X106869685Y-63084323D01*
X106886319Y-63063681D01*
X113788181Y-56161819D01*
X113849504Y-56128334D01*
X113875862Y-56125500D01*
X114300500Y-56125500D01*
X114367539Y-56145185D01*
G37*
%TD.AperFunction*%
%TD*%
%TA.AperFunction,Conductor*%
%TO.N,GND*%
G36*
X98850000Y-47600000D02*
G01*
X99408824Y-48100000D01*
X99600000Y-48850000D01*
X99600000Y-51350000D01*
X96600000Y-51350000D01*
X96600000Y-49895492D01*
X96681401Y-49838495D01*
X96848495Y-49671401D01*
X96984035Y-49477830D01*
X97083903Y-49263663D01*
X97145063Y-49035408D01*
X97165659Y-48800000D01*
X97145063Y-48564592D01*
X97083903Y-48336337D01*
X96984035Y-48122171D01*
X96968511Y-48100000D01*
X96919704Y-48030295D01*
X97350000Y-47600000D01*
X98100000Y-47350000D01*
X98850000Y-47600000D01*
G37*
%TD.AperFunction*%
%TD*%
%TA.AperFunction,Conductor*%
%TO.N,Net-(D3-K)*%
G36*
X106293039Y-67369685D02*
G01*
X106338794Y-67422489D01*
X106350000Y-67474000D01*
X106350000Y-70600000D01*
X113638319Y-77888319D01*
X113671804Y-77949642D01*
X113666820Y-78019334D01*
X113624948Y-78075267D01*
X113559484Y-78099684D01*
X113550638Y-78100000D01*
X95399362Y-78100000D01*
X95332323Y-78080315D01*
X95286568Y-78027511D01*
X95276624Y-77958353D01*
X95305649Y-77894797D01*
X95311681Y-77888319D01*
X102350000Y-70850000D01*
X102350000Y-67474000D01*
X102369685Y-67406961D01*
X102422489Y-67361206D01*
X102474000Y-67350000D01*
X106226000Y-67350000D01*
X106293039Y-67369685D01*
G37*
%TD.AperFunction*%
%TD*%
%TA.AperFunction,Conductor*%
%TO.N,GND*%
G36*
X104834027Y-42620319D02*
G01*
X104838954Y-42620517D01*
X105818919Y-42679794D01*
X105823860Y-42680193D01*
X106800617Y-42778879D01*
X106805551Y-42779478D01*
X107777534Y-42917412D01*
X107782431Y-42918208D01*
X108748078Y-43095170D01*
X108752963Y-43096167D01*
X109710684Y-43311863D01*
X109715511Y-43313053D01*
X110663819Y-43567152D01*
X110668568Y-43568528D01*
X111605844Y-43860594D01*
X111610506Y-43862150D01*
X112535317Y-44191741D01*
X112539942Y-44193496D01*
X113450690Y-44560040D01*
X113455229Y-44561973D01*
X114350476Y-44964891D01*
X114354979Y-44967028D01*
X115233264Y-45405661D01*
X115237664Y-45407970D01*
X116097571Y-45881611D01*
X116101876Y-45884096D01*
X116942031Y-46391986D01*
X116946200Y-46394623D01*
X117765219Y-46935930D01*
X117769320Y-46938760D01*
X118565881Y-47512608D01*
X118569834Y-47515579D01*
X119165152Y-47981981D01*
X119342642Y-48121036D01*
X119346510Y-48124195D01*
X120094250Y-48760225D01*
X120097989Y-48763536D01*
X120819580Y-49429222D01*
X120823181Y-49432682D01*
X121517317Y-50126818D01*
X121520777Y-50130419D01*
X121817141Y-50451672D01*
X121848129Y-50514293D01*
X121850000Y-50535751D01*
X121850000Y-58535667D01*
X121830315Y-58602706D01*
X121777511Y-58648461D01*
X121708353Y-58658405D01*
X121644797Y-58629380D01*
X121638319Y-58623348D01*
X121514267Y-58499296D01*
X121487387Y-58459067D01*
X121459939Y-58392800D01*
X121450500Y-58345348D01*
X121450500Y-56534110D01*
X121450500Y-56534108D01*
X121416392Y-56406814D01*
X121350500Y-56292686D01*
X121257314Y-56199500D01*
X120386819Y-55329005D01*
X120353334Y-55267682D01*
X120350500Y-55241324D01*
X120350500Y-55108675D01*
X120370185Y-55041636D01*
X120386819Y-55020994D01*
X120485438Y-54922375D01*
X120625500Y-54782314D01*
X120691392Y-54668186D01*
X120725500Y-54540893D01*
X120725500Y-54409108D01*
X120725500Y-50409108D01*
X120691392Y-50281814D01*
X120625500Y-50167686D01*
X120532314Y-50074500D01*
X119984131Y-49526317D01*
X119957251Y-49486089D01*
X119930861Y-49422375D01*
X119842621Y-49307379D01*
X119727625Y-49219139D01*
X119727624Y-49219138D01*
X119727622Y-49219137D01*
X119593712Y-49163671D01*
X119593710Y-49163670D01*
X119593709Y-49163670D01*
X119521854Y-49154210D01*
X119450001Y-49144750D01*
X119449999Y-49144750D01*
X119306291Y-49163670D01*
X119306287Y-49163671D01*
X119172377Y-49219137D01*
X119057379Y-49307379D01*
X118969137Y-49422377D01*
X118913671Y-49556287D01*
X118913670Y-49556291D01*
X118900642Y-49655250D01*
X118894750Y-49700000D01*
X118911978Y-49830861D01*
X118913670Y-49843708D01*
X118913671Y-49843712D01*
X118969137Y-49977622D01*
X118969138Y-49977624D01*
X118969139Y-49977625D01*
X119057379Y-50092621D01*
X119172375Y-50180861D01*
X119236089Y-50207251D01*
X119276317Y-50234131D01*
X119688181Y-50645995D01*
X119721666Y-50707318D01*
X119724500Y-50733676D01*
X119724500Y-51864811D01*
X119704815Y-51931850D01*
X119652011Y-51977605D01*
X119582853Y-51987549D01*
X119519297Y-51958524D01*
X119512819Y-51952492D01*
X119387446Y-51827119D01*
X119353961Y-51765796D01*
X119352188Y-51723254D01*
X119355250Y-51700000D01*
X119336330Y-51556291D01*
X119299350Y-51467013D01*
X119280862Y-51422377D01*
X119280861Y-51422376D01*
X119280861Y-51422375D01*
X119192621Y-51307379D01*
X119077625Y-51219139D01*
X119077624Y-51219138D01*
X119077622Y-51219137D01*
X118943712Y-51163671D01*
X118943710Y-51163670D01*
X118943709Y-51163670D01*
X118871854Y-51154210D01*
X118800001Y-51144750D01*
X118799999Y-51144750D01*
X118656291Y-51163670D01*
X118656287Y-51163671D01*
X118522377Y-51219137D01*
X118407379Y-51307379D01*
X118319137Y-51422377D01*
X118263671Y-51556287D01*
X118263670Y-51556291D01*
X118244750Y-51699999D01*
X118244750Y-51700000D01*
X118263670Y-51843708D01*
X118263671Y-51843712D01*
X118319137Y-51977622D01*
X118319138Y-51977624D01*
X118319139Y-51977625D01*
X118407379Y-52092621D01*
X118522375Y-52180861D01*
X118522376Y-52180861D01*
X118522377Y-52180862D01*
X118566478Y-52199129D01*
X118620882Y-52242969D01*
X118642947Y-52309263D01*
X118625668Y-52376963D01*
X118574531Y-52424574D01*
X118519026Y-52437690D01*
X116417389Y-52437690D01*
X116350350Y-52418005D01*
X116304595Y-52365201D01*
X116293389Y-52313690D01*
X116293389Y-51515310D01*
X116293389Y-51515308D01*
X116271207Y-51432523D01*
X116271207Y-51432522D01*
X116247143Y-51390842D01*
X116228354Y-51358299D01*
X116167751Y-51297696D01*
X116167750Y-51297695D01*
X116163420Y-51293365D01*
X116163409Y-51293355D01*
X115823815Y-50953760D01*
X115823814Y-50953759D01*
X115823813Y-50953758D01*
X115779286Y-50928050D01*
X115749591Y-50910905D01*
X115708197Y-50899814D01*
X115666804Y-50888723D01*
X115666803Y-50888723D01*
X111568453Y-50888723D01*
X111501414Y-50869038D01*
X111455659Y-50816234D01*
X111445715Y-50747076D01*
X111474740Y-50683520D01*
X111480772Y-50677042D01*
X112220660Y-49937154D01*
X112281983Y-49903669D01*
X112324525Y-49901896D01*
X112350000Y-49905250D01*
X112493709Y-49886330D01*
X112627625Y-49830861D01*
X112742621Y-49742621D01*
X112830861Y-49627625D01*
X112886330Y-49493709D01*
X112905250Y-49350000D01*
X112886330Y-49206291D01*
X112849350Y-49117013D01*
X112842303Y-49100000D01*
X114544750Y-49100000D01*
X114553132Y-49163670D01*
X114563670Y-49243708D01*
X114563671Y-49243712D01*
X114619137Y-49377622D01*
X114619138Y-49377624D01*
X114619139Y-49377625D01*
X114707379Y-49492621D01*
X114822375Y-49580861D01*
X114956291Y-49636330D01*
X115083280Y-49653048D01*
X115099999Y-49655250D01*
X115100000Y-49655250D01*
X115100001Y-49655250D01*
X115114977Y-49653278D01*
X115243709Y-49636330D01*
X115377625Y-49580861D01*
X115492621Y-49492621D01*
X115580861Y-49377625D01*
X115636330Y-49243709D01*
X115655250Y-49100000D01*
X115636330Y-48956291D01*
X115609937Y-48892572D01*
X115600500Y-48845124D01*
X115600500Y-47604875D01*
X115609939Y-47557422D01*
X115636330Y-47493709D01*
X115655250Y-47350000D01*
X115636330Y-47206291D01*
X115599350Y-47117013D01*
X115580862Y-47072377D01*
X115580861Y-47072376D01*
X115580861Y-47072375D01*
X115492621Y-46957379D01*
X115377625Y-46869139D01*
X115377624Y-46869138D01*
X115377622Y-46869137D01*
X115243712Y-46813671D01*
X115243710Y-46813670D01*
X115243709Y-46813670D01*
X115171854Y-46804210D01*
X115100001Y-46794750D01*
X115099999Y-46794750D01*
X114956291Y-46813670D01*
X114956287Y-46813671D01*
X114822377Y-46869137D01*
X114707379Y-46957379D01*
X114619137Y-47072377D01*
X114563671Y-47206287D01*
X114563670Y-47206291D01*
X114544750Y-47350000D01*
X114563670Y-47493709D01*
X114577085Y-47526097D01*
X114590061Y-47557422D01*
X114599500Y-47604875D01*
X114599500Y-48845124D01*
X114590062Y-48892575D01*
X114563669Y-48956293D01*
X114544750Y-49099999D01*
X114544750Y-49100000D01*
X112842303Y-49100000D01*
X112830862Y-49072377D01*
X112830861Y-49072376D01*
X112830861Y-49072375D01*
X112742621Y-48957379D01*
X112627625Y-48869139D01*
X112627624Y-48869138D01*
X112627622Y-48869137D01*
X112493712Y-48813671D01*
X112493710Y-48813670D01*
X112493709Y-48813670D01*
X112389877Y-48800000D01*
X112350001Y-48794750D01*
X112349999Y-48794750D01*
X112206293Y-48813669D01*
X112189912Y-48820453D01*
X112142572Y-48840062D01*
X112095124Y-48849500D01*
X112034107Y-48849500D01*
X111924600Y-48878842D01*
X111924599Y-48878841D01*
X111906814Y-48883607D01*
X111792686Y-48949500D01*
X111792683Y-48949502D01*
X111542686Y-49199500D01*
X110729339Y-50012845D01*
X110668016Y-50046330D01*
X110625474Y-50048103D01*
X110600003Y-50044750D01*
X110599999Y-50044750D01*
X110456291Y-50063670D01*
X110456287Y-50063671D01*
X110322377Y-50119137D01*
X110207379Y-50207379D01*
X110119137Y-50322377D01*
X110063671Y-50456287D01*
X110063670Y-50456291D01*
X110044750Y-50600000D01*
X110050805Y-50645995D01*
X110064306Y-50748537D01*
X110053541Y-50817572D01*
X110007161Y-50869828D01*
X109941367Y-50888723D01*
X102892924Y-50888723D01*
X102810139Y-50910905D01*
X102810136Y-50910906D01*
X102780443Y-50928050D01*
X102767213Y-50935687D01*
X102735915Y-50953757D01*
X102735913Y-50953759D01*
X100077118Y-53612553D01*
X100015795Y-53646038D01*
X99973252Y-53647811D01*
X99950001Y-53644750D01*
X99949999Y-53644750D01*
X99806291Y-53663670D01*
X99806287Y-53663671D01*
X99672377Y-53719137D01*
X99557379Y-53807379D01*
X99469137Y-53922377D01*
X99413671Y-54056287D01*
X99413670Y-54056291D01*
X99394750Y-54199999D01*
X99394750Y-54200000D01*
X99413670Y-54343708D01*
X99413671Y-54343712D01*
X99469137Y-54477622D01*
X99469138Y-54477624D01*
X99469139Y-54477625D01*
X99557379Y-54592621D01*
X99672375Y-54680861D01*
X99806291Y-54736330D01*
X99933280Y-54753048D01*
X99949999Y-54755250D01*
X99950000Y-54755250D01*
X99950001Y-54755250D01*
X99964977Y-54753278D01*
X100093709Y-54736330D01*
X100227625Y-54680861D01*
X100342621Y-54592621D01*
X100430861Y-54477625D01*
X100486330Y-54343709D01*
X100505250Y-54200000D01*
X100502188Y-54176746D01*
X100512952Y-54107712D01*
X100537443Y-54072882D01*
X103034285Y-51576042D01*
X103095608Y-51542557D01*
X103121966Y-51539723D01*
X114730028Y-51539723D01*
X114797067Y-51559408D01*
X114842822Y-51612212D01*
X114852967Y-51679909D01*
X114837639Y-51796333D01*
X114837639Y-51796334D01*
X114856559Y-51940042D01*
X114856560Y-51940046D01*
X114912026Y-52073956D01*
X114912027Y-52073958D01*
X114912028Y-52073959D01*
X114998876Y-52187141D01*
X115024070Y-52252309D01*
X115024500Y-52262627D01*
X115024500Y-55374969D01*
X115004815Y-55442008D01*
X114952011Y-55487763D01*
X114882853Y-55497707D01*
X114868408Y-55494744D01*
X114792854Y-55474500D01*
X114792853Y-55474500D01*
X109399500Y-55474500D01*
X109332461Y-55454815D01*
X109286706Y-55402011D01*
X109275500Y-55350500D01*
X109275500Y-53805274D01*
X109295185Y-53738235D01*
X109324012Y-53706900D01*
X109342621Y-53692621D01*
X109430861Y-53577625D01*
X109486330Y-53443709D01*
X109505250Y-53300000D01*
X109486330Y-53156291D01*
X109431391Y-53023655D01*
X109430862Y-53022377D01*
X109430861Y-53022376D01*
X109430861Y-53022375D01*
X109342621Y-52907379D01*
X109227625Y-52819139D01*
X109227624Y-52819138D01*
X109227622Y-52819137D01*
X109093712Y-52763671D01*
X109093710Y-52763670D01*
X109093709Y-52763670D01*
X109021854Y-52754210D01*
X108950001Y-52744750D01*
X108949999Y-52744750D01*
X108806291Y-52763670D01*
X108806287Y-52763671D01*
X108672377Y-52819137D01*
X108557379Y-52907379D01*
X108469137Y-53022377D01*
X108413671Y-53156287D01*
X108413670Y-53156291D01*
X108394750Y-53299999D01*
X108394750Y-53300000D01*
X108413670Y-53443708D01*
X108413671Y-53443712D01*
X108469137Y-53577622D01*
X108469138Y-53577624D01*
X108469139Y-53577625D01*
X108557379Y-53692621D01*
X108575986Y-53706899D01*
X108617189Y-53763325D01*
X108624500Y-53805274D01*
X108624500Y-55476000D01*
X108604815Y-55543039D01*
X108552011Y-55588794D01*
X108500500Y-55600000D01*
X92350000Y-55600000D01*
X92350000Y-78341285D01*
X92330315Y-78408324D01*
X92277511Y-78454079D01*
X92226000Y-78465285D01*
X91663801Y-78465285D01*
X91596762Y-78445600D01*
X91576120Y-78428966D01*
X82961819Y-69814665D01*
X82928334Y-69753342D01*
X82925500Y-69726984D01*
X82925500Y-69105274D01*
X82945185Y-69038235D01*
X82974012Y-69006900D01*
X82992621Y-68992621D01*
X83080861Y-68877625D01*
X83136330Y-68743709D01*
X83155250Y-68600000D01*
X83136330Y-68456291D01*
X83080861Y-68322375D01*
X82992621Y-68207379D01*
X82877625Y-68119139D01*
X82877624Y-68119138D01*
X82877622Y-68119137D01*
X82743712Y-68063671D01*
X82743710Y-68063670D01*
X82743709Y-68063670D01*
X82657043Y-68052260D01*
X82600001Y-68044750D01*
X82599999Y-68044750D01*
X82456291Y-68063670D01*
X82456287Y-68063671D01*
X82322377Y-68119137D01*
X82207379Y-68207379D01*
X82119137Y-68322377D01*
X82063671Y-68456287D01*
X82063670Y-68456291D01*
X82050505Y-68556291D01*
X82044750Y-68600000D01*
X82057915Y-68700000D01*
X82063670Y-68743708D01*
X82063671Y-68743712D01*
X82119137Y-68877622D01*
X82119138Y-68877624D01*
X82119139Y-68877625D01*
X82207379Y-68992621D01*
X82225986Y-69006899D01*
X82267189Y-69063325D01*
X82274500Y-69105274D01*
X82274500Y-69956025D01*
X82296682Y-70038813D01*
X82303491Y-70050606D01*
X82339535Y-70113035D01*
X91217146Y-78990646D01*
X91217147Y-78990647D01*
X91277750Y-79051250D01*
X91277752Y-79051251D01*
X91277756Y-79051254D01*
X91351967Y-79094099D01*
X91351974Y-79094103D01*
X91434759Y-79116285D01*
X91520465Y-79116285D01*
X108080327Y-79116285D01*
X108147366Y-79135970D01*
X108193121Y-79188774D01*
X108203266Y-79256471D01*
X108188874Y-79365784D01*
X108188874Y-79365785D01*
X108207794Y-79509493D01*
X108207795Y-79509497D01*
X108263261Y-79643407D01*
X108263262Y-79643409D01*
X108263263Y-79643410D01*
X108351503Y-79758406D01*
X108466499Y-79846646D01*
X108600415Y-79902115D01*
X108727404Y-79918833D01*
X108744123Y-79921035D01*
X108744124Y-79921035D01*
X108744125Y-79921035D01*
X108759101Y-79919063D01*
X108887833Y-79902115D01*
X109021749Y-79846646D01*
X109136745Y-79758406D01*
X109183105Y-79697989D01*
X109201503Y-79674013D01*
X109257931Y-79632811D01*
X109299878Y-79625500D01*
X115864811Y-79625500D01*
X115931850Y-79645185D01*
X115977605Y-79697989D01*
X115987549Y-79767147D01*
X115958524Y-79830703D01*
X115952492Y-79837181D01*
X114051492Y-81738181D01*
X113990169Y-81771666D01*
X113963811Y-81774500D01*
X101055275Y-81774500D01*
X100988236Y-81754815D01*
X100956900Y-81725988D01*
X100942621Y-81707379D01*
X100827625Y-81619139D01*
X100827624Y-81619138D01*
X100827622Y-81619137D01*
X100693712Y-81563671D01*
X100693710Y-81563670D01*
X100693709Y-81563670D01*
X100621854Y-81554210D01*
X100550001Y-81544750D01*
X100549999Y-81544750D01*
X100406291Y-81563670D01*
X100406287Y-81563671D01*
X100272377Y-81619137D01*
X100157379Y-81707379D01*
X100069137Y-81822377D01*
X100013671Y-81956287D01*
X100013670Y-81956291D01*
X99994750Y-82099999D01*
X99994750Y-82100000D01*
X100013670Y-82243708D01*
X100013671Y-82243712D01*
X100069137Y-82377622D01*
X100069138Y-82377624D01*
X100069139Y-82377625D01*
X100157379Y-82492621D01*
X100272375Y-82580861D01*
X100406291Y-82636330D01*
X100533280Y-82653048D01*
X100549999Y-82655250D01*
X100550000Y-82655250D01*
X100550001Y-82655250D01*
X100564977Y-82653278D01*
X100693709Y-82636330D01*
X100827625Y-82580861D01*
X100942621Y-82492621D01*
X100956900Y-82474011D01*
X101013329Y-82432810D01*
X101055275Y-82425500D01*
X114192851Y-82425500D01*
X114192853Y-82425500D01*
X114275639Y-82403318D01*
X114349862Y-82360465D01*
X116539652Y-80170672D01*
X116539657Y-80170669D01*
X116549860Y-80160465D01*
X116549862Y-80160465D01*
X116610465Y-80099862D01*
X116631891Y-80062750D01*
X116653318Y-80025639D01*
X116675500Y-79942853D01*
X116675500Y-79857147D01*
X116675500Y-61071458D01*
X116695185Y-61004419D01*
X116711819Y-60983777D01*
X116802983Y-60892613D01*
X116910465Y-60785131D01*
X116953318Y-60710908D01*
X116975500Y-60628122D01*
X116975500Y-60580553D01*
X116995185Y-60513514D01*
X117011810Y-60492881D01*
X117117247Y-60387443D01*
X117178566Y-60353961D01*
X117221109Y-60352188D01*
X117244365Y-60355250D01*
X117388074Y-60336330D01*
X117521990Y-60280861D01*
X117636986Y-60192621D01*
X117725226Y-60077625D01*
X117780695Y-59943709D01*
X117799615Y-59800000D01*
X117780695Y-59656291D01*
X117743715Y-59567013D01*
X117725227Y-59522377D01*
X117725226Y-59522376D01*
X117725226Y-59522375D01*
X117636986Y-59407379D01*
X117562802Y-59350455D01*
X117521600Y-59294027D01*
X117517445Y-59224281D01*
X117551658Y-59163361D01*
X117590837Y-59137518D01*
X117593703Y-59136330D01*
X117593709Y-59136330D01*
X117727625Y-59080861D01*
X117842621Y-58992621D01*
X117868589Y-58958778D01*
X117925014Y-58917577D01*
X117994759Y-58913422D01*
X118055680Y-58947633D01*
X118081524Y-58986814D01*
X118119137Y-59077622D01*
X118119138Y-59077624D01*
X118119139Y-59077625D01*
X118207379Y-59192621D01*
X118322375Y-59280861D01*
X118456291Y-59336330D01*
X118583280Y-59353048D01*
X118599999Y-59355250D01*
X118600000Y-59355250D01*
X118600001Y-59355250D01*
X118623616Y-59352140D01*
X118694852Y-59342762D01*
X118763886Y-59353527D01*
X118816142Y-59399907D01*
X118835028Y-59467176D01*
X118814548Y-59533976D01*
X118809421Y-59541176D01*
X118786239Y-59571386D01*
X118769137Y-59593675D01*
X118713671Y-59727585D01*
X118713670Y-59727589D01*
X118694750Y-59871297D01*
X118694750Y-59871298D01*
X118713670Y-60015006D01*
X118713671Y-60015010D01*
X118769137Y-60148920D01*
X118769138Y-60148922D01*
X118769139Y-60148923D01*
X118857379Y-60263919D01*
X118972375Y-60352159D01*
X119106291Y-60407628D01*
X119233280Y-60424346D01*
X119249999Y-60426548D01*
X119250000Y-60426548D01*
X119250001Y-60426548D01*
X119264977Y-60424576D01*
X119393709Y-60407628D01*
X119527625Y-60352159D01*
X119527628Y-60352156D01*
X119534085Y-60349482D01*
X119603555Y-60342013D01*
X119666034Y-60373288D01*
X119669219Y-60376362D01*
X119922341Y-60629484D01*
X119955826Y-60690807D01*
X119957599Y-60733349D01*
X119954538Y-60756601D01*
X119954538Y-60756604D01*
X119973458Y-60900312D01*
X119973459Y-60900316D01*
X120028925Y-61034226D01*
X120028926Y-61034228D01*
X120028927Y-61034229D01*
X120117167Y-61149225D01*
X120232163Y-61237465D01*
X120366079Y-61292934D01*
X120493068Y-61309652D01*
X120509787Y-61311854D01*
X120509788Y-61311854D01*
X120509789Y-61311854D01*
X120561313Y-61305070D01*
X120653497Y-61292934D01*
X120653497Y-61292933D01*
X120661554Y-61291873D01*
X120661731Y-61293218D01*
X120723037Y-61294675D01*
X120780902Y-61333833D01*
X120808410Y-61398060D01*
X120809288Y-61412789D01*
X120809288Y-63123997D01*
X120789603Y-63191036D01*
X120772969Y-63211678D01*
X118276769Y-65707877D01*
X118276770Y-65707878D01*
X118201025Y-65783623D01*
X118135133Y-65897749D01*
X118101025Y-66025045D01*
X118101025Y-67169744D01*
X118135133Y-67297040D01*
X118147892Y-67319139D01*
X118201025Y-67411167D01*
X118201027Y-67411169D01*
X118203653Y-67413795D01*
X118230533Y-67454023D01*
X118256924Y-67517737D01*
X118256925Y-67517739D01*
X118345165Y-67632735D01*
X118460161Y-67720975D01*
X118523875Y-67747365D01*
X118564103Y-67774245D01*
X119313181Y-68523323D01*
X119346666Y-68584646D01*
X119349500Y-68611004D01*
X119349500Y-71595124D01*
X119340062Y-71642575D01*
X119313669Y-71706293D01*
X119294750Y-71849999D01*
X119294750Y-71850000D01*
X119313670Y-71993708D01*
X119313671Y-71993712D01*
X119369137Y-72127622D01*
X119369138Y-72127624D01*
X119369139Y-72127625D01*
X119457379Y-72242621D01*
X119572375Y-72330861D01*
X119706291Y-72386330D01*
X119833280Y-72403048D01*
X119849999Y-72405250D01*
X119850000Y-72405250D01*
X119850001Y-72405250D01*
X119864977Y-72403278D01*
X119993709Y-72386330D01*
X120127625Y-72330861D01*
X120242621Y-72242621D01*
X120330861Y-72127625D01*
X120386330Y-71993709D01*
X120405250Y-71850000D01*
X120386330Y-71706291D01*
X120359937Y-71642572D01*
X120350500Y-71595124D01*
X120350500Y-68286437D01*
X120350500Y-68286436D01*
X120339330Y-68244750D01*
X120316392Y-68159142D01*
X120250500Y-68045014D01*
X119271917Y-67066431D01*
X119245037Y-67026203D01*
X119218647Y-66962489D01*
X119130407Y-66847493D01*
X119130404Y-66847491D01*
X119127649Y-66843900D01*
X119102455Y-66778731D01*
X119102025Y-66768413D01*
X119102025Y-66349611D01*
X119121710Y-66282572D01*
X119138339Y-66261935D01*
X121606892Y-63793381D01*
X121606897Y-63793378D01*
X121617100Y-63783174D01*
X121617102Y-63783174D01*
X121638319Y-63761957D01*
X121699642Y-63728472D01*
X121769334Y-63733456D01*
X121825267Y-63775328D01*
X121849684Y-63840792D01*
X121850000Y-63849638D01*
X121850000Y-83664247D01*
X121830315Y-83731286D01*
X121817141Y-83748327D01*
X121520777Y-84069580D01*
X121517317Y-84073181D01*
X120823181Y-84767317D01*
X120819580Y-84770777D01*
X120097989Y-85436463D01*
X120094250Y-85439774D01*
X119346510Y-86075804D01*
X119342642Y-86078963D01*
X118569854Y-86684405D01*
X118565862Y-86687405D01*
X117769329Y-87261232D01*
X117765219Y-87264069D01*
X116946226Y-87805360D01*
X116942005Y-87808029D01*
X116101886Y-88315897D01*
X116097561Y-88318394D01*
X115237675Y-88792023D01*
X115233253Y-88794344D01*
X114354988Y-89232967D01*
X114350476Y-89235108D01*
X113455256Y-89638014D01*
X113450662Y-89639971D01*
X112539956Y-90006498D01*
X112535287Y-90008269D01*
X111610551Y-90337834D01*
X111605813Y-90339415D01*
X110668591Y-90631464D01*
X110663795Y-90632854D01*
X109715522Y-90886943D01*
X109710673Y-90888138D01*
X108752967Y-91103831D01*
X108748074Y-91104830D01*
X107782448Y-91281788D01*
X107777518Y-91282589D01*
X106805563Y-91420519D01*
X106800606Y-91421121D01*
X105823879Y-91519804D01*
X105818901Y-91520206D01*
X104838985Y-91579480D01*
X104833995Y-91579681D01*
X103852497Y-91599449D01*
X103847503Y-91599449D01*
X102866004Y-91579681D01*
X102861014Y-91579480D01*
X101881098Y-91520206D01*
X101876120Y-91519804D01*
X100899393Y-91421121D01*
X100894436Y-91420519D01*
X99922481Y-91282589D01*
X99917551Y-91281788D01*
X98951925Y-91104830D01*
X98947032Y-91103831D01*
X97989326Y-90888138D01*
X97984477Y-90886943D01*
X97036204Y-90632854D01*
X97031408Y-90631464D01*
X96094186Y-90339415D01*
X96089464Y-90337839D01*
X95164709Y-90008267D01*
X95160043Y-90006498D01*
X94249337Y-89639971D01*
X94244743Y-89638014D01*
X93349523Y-89235108D01*
X93345011Y-89232967D01*
X92466746Y-88794344D01*
X92462324Y-88792023D01*
X91794023Y-88423920D01*
X102699499Y-88423920D01*
X102728340Y-88568907D01*
X102728343Y-88568917D01*
X102784912Y-88705488D01*
X102784919Y-88705501D01*
X102867048Y-88828415D01*
X102867051Y-88828419D01*
X102971580Y-88932948D01*
X102971584Y-88932951D01*
X103094498Y-89015080D01*
X103094511Y-89015087D01*
X103231082Y-89071656D01*
X103231087Y-89071658D01*
X103231091Y-89071658D01*
X103231092Y-89071659D01*
X103376079Y-89100500D01*
X103376082Y-89100500D01*
X110123920Y-89100500D01*
X110221462Y-89081096D01*
X110268913Y-89071658D01*
X110405495Y-89015084D01*
X110454729Y-88982186D01*
X110528416Y-88932952D01*
X112632951Y-86828416D01*
X112715084Y-86705494D01*
X112771658Y-86568913D01*
X112800500Y-86423917D01*
X112800500Y-86276083D01*
X112800500Y-86276080D01*
X112771659Y-86131093D01*
X112771658Y-86131092D01*
X112771658Y-86131088D01*
X112748759Y-86075804D01*
X112715085Y-85994507D01*
X112715083Y-85994504D01*
X112632952Y-85871585D01*
X112632946Y-85871578D01*
X112528421Y-85767053D01*
X112528414Y-85767047D01*
X112405495Y-85684916D01*
X112405492Y-85684914D01*
X112268916Y-85628343D01*
X112268906Y-85628340D01*
X112123919Y-85599500D01*
X112123917Y-85599500D01*
X111976083Y-85599500D01*
X111976081Y-85599500D01*
X111831092Y-85628340D01*
X111831086Y-85628342D01*
X111694504Y-85684916D01*
X111571585Y-85767047D01*
X111571578Y-85767053D01*
X109775451Y-87563181D01*
X109714128Y-87596666D01*
X109687770Y-87599500D01*
X103376080Y-87599500D01*
X103231092Y-87628340D01*
X103231082Y-87628343D01*
X103094511Y-87684912D01*
X103094498Y-87684919D01*
X102971584Y-87767048D01*
X102971580Y-87767051D01*
X102867051Y-87871580D01*
X102867048Y-87871584D01*
X102784919Y-87994498D01*
X102784912Y-87994511D01*
X102728343Y-88131082D01*
X102728340Y-88131092D01*
X102699500Y-88276079D01*
X102699500Y-88276082D01*
X102699500Y-88423918D01*
X102699500Y-88423920D01*
X102699499Y-88423920D01*
X91794023Y-88423920D01*
X91602438Y-88318394D01*
X91598113Y-88315897D01*
X91066464Y-87994505D01*
X90757982Y-87808021D01*
X90753786Y-87805368D01*
X89934780Y-87264069D01*
X89930670Y-87261232D01*
X89748277Y-87129835D01*
X89134126Y-86687396D01*
X89130157Y-86684414D01*
X88686872Y-86337122D01*
X88357357Y-86078963D01*
X88353489Y-86075804D01*
X87605749Y-85439774D01*
X87602010Y-85436463D01*
X86880419Y-84770777D01*
X86876818Y-84767317D01*
X86182682Y-84073181D01*
X86179222Y-84069580D01*
X85513536Y-83347989D01*
X85510225Y-83344250D01*
X84874195Y-82596510D01*
X84871036Y-82592642D01*
X84267571Y-81822377D01*
X84265579Y-81819834D01*
X84262608Y-81815881D01*
X83688760Y-81019320D01*
X83685930Y-81015219D01*
X83296861Y-80426543D01*
X83144623Y-80196200D01*
X83141986Y-80192031D01*
X82634096Y-79351876D01*
X82631605Y-79347561D01*
X82581432Y-79256471D01*
X82157970Y-78487664D01*
X82155655Y-78483253D01*
X82146681Y-78465285D01*
X81717028Y-77604979D01*
X81714891Y-77600476D01*
X81381855Y-76860500D01*
X81311973Y-76705229D01*
X81310040Y-76700690D01*
X80943496Y-75789942D01*
X80941741Y-75785317D01*
X80612150Y-74860506D01*
X80610594Y-74855844D01*
X80318528Y-73918568D01*
X80317152Y-73913819D01*
X80063053Y-72965511D01*
X80061861Y-72960673D01*
X79932508Y-72386330D01*
X79846167Y-72002963D01*
X79845169Y-71998074D01*
X79844369Y-71993708D01*
X79668208Y-71032431D01*
X79667410Y-71027518D01*
X79657154Y-70955250D01*
X79529478Y-70055551D01*
X79528878Y-70050606D01*
X79527687Y-70038813D01*
X79430193Y-69073860D01*
X79429793Y-69068901D01*
X79428650Y-69050000D01*
X79370517Y-68088954D01*
X79370319Y-68084027D01*
X79350550Y-67102482D01*
X79350550Y-67097503D01*
X79351527Y-67048990D01*
X79370319Y-66115970D01*
X79370517Y-66111047D01*
X79429794Y-65131076D01*
X79430195Y-65126120D01*
X79432949Y-65098868D01*
X79528879Y-64149376D01*
X79529480Y-64144436D01*
X79667413Y-63172457D01*
X79668206Y-63167576D01*
X79845171Y-62201911D01*
X79846168Y-62197032D01*
X80061866Y-61239304D01*
X80063056Y-61234477D01*
X80317155Y-60286167D01*
X80318524Y-60281444D01*
X80610599Y-59344140D01*
X80612144Y-59339508D01*
X80941747Y-58414665D01*
X80943489Y-58410073D01*
X81310047Y-57499291D01*
X81311965Y-57494788D01*
X81714903Y-56599496D01*
X81717018Y-56595039D01*
X82155671Y-55716714D01*
X82157959Y-55712355D01*
X82631623Y-54852406D01*
X82634083Y-54848144D01*
X83142000Y-54007946D01*
X83144608Y-54003821D01*
X83685952Y-53184747D01*
X83688744Y-53180702D01*
X84262626Y-52384093D01*
X84265561Y-52380188D01*
X84871053Y-51607335D01*
X84874176Y-51603511D01*
X85510232Y-50855740D01*
X85513536Y-50852010D01*
X85545306Y-50817572D01*
X86179245Y-50130394D01*
X86182657Y-50126843D01*
X86876843Y-49432657D01*
X86880394Y-49429245D01*
X87562483Y-48800000D01*
X94454341Y-48800000D01*
X94474936Y-49035403D01*
X94474938Y-49035413D01*
X94536094Y-49263655D01*
X94536096Y-49263659D01*
X94536097Y-49263663D01*
X94576357Y-49350000D01*
X94635965Y-49477830D01*
X94635967Y-49477834D01*
X94690901Y-49556287D01*
X94771505Y-49671401D01*
X94938599Y-49838495D01*
X95029145Y-49901896D01*
X95132165Y-49974032D01*
X95132167Y-49974033D01*
X95132170Y-49974035D01*
X95346337Y-50073903D01*
X95574592Y-50135063D01*
X95762918Y-50151539D01*
X95809999Y-50155659D01*
X95810000Y-50155659D01*
X95810001Y-50155659D01*
X95849234Y-50152226D01*
X96045408Y-50135063D01*
X96273663Y-50073903D01*
X96487830Y-49974035D01*
X96600000Y-49895492D01*
X96600000Y-51350000D01*
X99600000Y-51350000D01*
X99600000Y-48850000D01*
X99408824Y-48100000D01*
X98850000Y-47600000D01*
X98100000Y-47350000D01*
X97350000Y-47600000D01*
X96919704Y-48030295D01*
X96848494Y-47928597D01*
X96681402Y-47761506D01*
X96681395Y-47761501D01*
X96487834Y-47625967D01*
X96487830Y-47625965D01*
X96442602Y-47604875D01*
X96273663Y-47526097D01*
X96273659Y-47526096D01*
X96273655Y-47526094D01*
X96045413Y-47464938D01*
X96045403Y-47464936D01*
X95810001Y-47444341D01*
X95809999Y-47444341D01*
X95574596Y-47464936D01*
X95574586Y-47464938D01*
X95346344Y-47526094D01*
X95346335Y-47526098D01*
X95132171Y-47625964D01*
X95132169Y-47625965D01*
X94938597Y-47761505D01*
X94771505Y-47928597D01*
X94635965Y-48122169D01*
X94635964Y-48122171D01*
X94536098Y-48336335D01*
X94536094Y-48336344D01*
X94474938Y-48564586D01*
X94474936Y-48564596D01*
X94454341Y-48799999D01*
X94454341Y-48800000D01*
X87562483Y-48800000D01*
X87602018Y-48763528D01*
X87605749Y-48760225D01*
X87835738Y-48564596D01*
X88353511Y-48124176D01*
X88357335Y-48121053D01*
X89130188Y-47515561D01*
X89134093Y-47512626D01*
X89706862Y-47100000D01*
X107439785Y-47100000D01*
X107458602Y-47303082D01*
X107514417Y-47499247D01*
X107514422Y-47499260D01*
X107605327Y-47681821D01*
X107728237Y-47844581D01*
X107878958Y-47981980D01*
X107878960Y-47981982D01*
X107978141Y-48043392D01*
X108052363Y-48089348D01*
X108242544Y-48163024D01*
X108443024Y-48200500D01*
X108443026Y-48200500D01*
X108646974Y-48200500D01*
X108646976Y-48200500D01*
X108847456Y-48163024D01*
X109037637Y-48089348D01*
X109211041Y-47981981D01*
X109361764Y-47844579D01*
X109484673Y-47681821D01*
X109575582Y-47499250D01*
X109631397Y-47303083D01*
X109650215Y-47100000D01*
X109979785Y-47100000D01*
X109998602Y-47303082D01*
X110054417Y-47499247D01*
X110054422Y-47499260D01*
X110145327Y-47681821D01*
X110268237Y-47844581D01*
X110418958Y-47981980D01*
X110418960Y-47981982D01*
X110518141Y-48043392D01*
X110592363Y-48089348D01*
X110782544Y-48163024D01*
X110983024Y-48200500D01*
X110983026Y-48200500D01*
X111186974Y-48200500D01*
X111186976Y-48200500D01*
X111387456Y-48163024D01*
X111577637Y-48089348D01*
X111751041Y-47981981D01*
X111901764Y-47844579D01*
X112024673Y-47681821D01*
X112115582Y-47499250D01*
X112171397Y-47303083D01*
X112190215Y-47100000D01*
X112187450Y-47070165D01*
X112171397Y-46896917D01*
X112147711Y-46813670D01*
X112115582Y-46700750D01*
X112084926Y-46639185D01*
X112071272Y-46611764D01*
X112024673Y-46518179D01*
X111931380Y-46394639D01*
X111901762Y-46355418D01*
X111751041Y-46218019D01*
X111751039Y-46218017D01*
X111577642Y-46110655D01*
X111577635Y-46110651D01*
X111482546Y-46073814D01*
X111387456Y-46036976D01*
X111186976Y-45999500D01*
X110983024Y-45999500D01*
X110782544Y-46036976D01*
X110782541Y-46036976D01*
X110782541Y-46036977D01*
X110592364Y-46110651D01*
X110592357Y-46110655D01*
X110418960Y-46218017D01*
X110418958Y-46218019D01*
X110268237Y-46355418D01*
X110145327Y-46518178D01*
X110054422Y-46700739D01*
X110054417Y-46700752D01*
X109998602Y-46896917D01*
X109979785Y-47099999D01*
X109979785Y-47100000D01*
X109650215Y-47100000D01*
X109647450Y-47070165D01*
X109631397Y-46896917D01*
X109607711Y-46813670D01*
X109575582Y-46700750D01*
X109544926Y-46639185D01*
X109531272Y-46611764D01*
X109484673Y-46518179D01*
X109391380Y-46394639D01*
X109361762Y-46355418D01*
X109211041Y-46218019D01*
X109211039Y-46218017D01*
X109037642Y-46110655D01*
X109037635Y-46110651D01*
X108942546Y-46073814D01*
X108847456Y-46036976D01*
X108646976Y-45999500D01*
X108443024Y-45999500D01*
X108242544Y-46036976D01*
X108242541Y-46036976D01*
X108242541Y-46036977D01*
X108052364Y-46110651D01*
X108052357Y-46110655D01*
X107878960Y-46218017D01*
X107878958Y-46218019D01*
X107728237Y-46355418D01*
X107605327Y-46518178D01*
X107514422Y-46700739D01*
X107514417Y-46700752D01*
X107458602Y-46896917D01*
X107439785Y-47099999D01*
X107439785Y-47100000D01*
X89706862Y-47100000D01*
X89930702Y-46938744D01*
X89934747Y-46935952D01*
X90753821Y-46394608D01*
X90757946Y-46392000D01*
X90845874Y-46338846D01*
X95009500Y-46338846D01*
X95040261Y-46493489D01*
X95040264Y-46493501D01*
X95100602Y-46639172D01*
X95100609Y-46639185D01*
X95188210Y-46770288D01*
X95188213Y-46770292D01*
X95299707Y-46881786D01*
X95299711Y-46881789D01*
X95430814Y-46969390D01*
X95430827Y-46969397D01*
X95576498Y-47029735D01*
X95576503Y-47029737D01*
X95731153Y-47060499D01*
X95731156Y-47060500D01*
X95731158Y-47060500D01*
X95888844Y-47060500D01*
X95888845Y-47060499D01*
X96043497Y-47029737D01*
X96189179Y-46969394D01*
X96320289Y-46881789D01*
X96431789Y-46770289D01*
X96519394Y-46639179D01*
X96579737Y-46493497D01*
X96610499Y-46338846D01*
X97549500Y-46338846D01*
X97580261Y-46493489D01*
X97580264Y-46493501D01*
X97640602Y-46639172D01*
X97640609Y-46639185D01*
X97728210Y-46770288D01*
X97728213Y-46770292D01*
X97839707Y-46881786D01*
X97839711Y-46881789D01*
X97970814Y-46969390D01*
X97970827Y-46969397D01*
X98116498Y-47029735D01*
X98116503Y-47029737D01*
X98271153Y-47060499D01*
X98271156Y-47060500D01*
X98271158Y-47060500D01*
X98428844Y-47060500D01*
X98428845Y-47060499D01*
X98583497Y-47029737D01*
X98729179Y-46969394D01*
X98860289Y-46881789D01*
X98971789Y-46770289D01*
X99059394Y-46639179D01*
X99119737Y-46493497D01*
X99150500Y-46338842D01*
X99150500Y-46181158D01*
X99150500Y-46181155D01*
X99150499Y-46181153D01*
X99119738Y-46026510D01*
X99119737Y-46026503D01*
X99064448Y-45893022D01*
X99059397Y-45880827D01*
X99059390Y-45880814D01*
X98971789Y-45749711D01*
X98971786Y-45749707D01*
X98860292Y-45638213D01*
X98860288Y-45638210D01*
X98729185Y-45550609D01*
X98729172Y-45550602D01*
X98583501Y-45490264D01*
X98583489Y-45490261D01*
X98428845Y-45459500D01*
X98428842Y-45459500D01*
X98271158Y-45459500D01*
X98271155Y-45459500D01*
X98116510Y-45490261D01*
X98116498Y-45490264D01*
X97970827Y-45550602D01*
X97970814Y-45550609D01*
X97839711Y-45638210D01*
X97839707Y-45638213D01*
X97728213Y-45749707D01*
X97728210Y-45749711D01*
X97640609Y-45880814D01*
X97640602Y-45880827D01*
X97580264Y-46026498D01*
X97580261Y-46026510D01*
X97549500Y-46181153D01*
X97549500Y-46338846D01*
X96610499Y-46338846D01*
X96610500Y-46338842D01*
X96610500Y-46181158D01*
X96610500Y-46181155D01*
X96610499Y-46181153D01*
X96579738Y-46026510D01*
X96579737Y-46026503D01*
X96524448Y-45893022D01*
X96519397Y-45880827D01*
X96519390Y-45880814D01*
X96431789Y-45749711D01*
X96431786Y-45749707D01*
X96320292Y-45638213D01*
X96320288Y-45638210D01*
X96189185Y-45550609D01*
X96189172Y-45550602D01*
X96043501Y-45490264D01*
X96043489Y-45490261D01*
X95888845Y-45459500D01*
X95888842Y-45459500D01*
X95731158Y-45459500D01*
X95731155Y-45459500D01*
X95576510Y-45490261D01*
X95576498Y-45490264D01*
X95430827Y-45550602D01*
X95430814Y-45550609D01*
X95299711Y-45638210D01*
X95299707Y-45638213D01*
X95188213Y-45749707D01*
X95188210Y-45749711D01*
X95100609Y-45880814D01*
X95100602Y-45880827D01*
X95040264Y-46026498D01*
X95040261Y-46026510D01*
X95009500Y-46181153D01*
X95009500Y-46338846D01*
X90845874Y-46338846D01*
X91598144Y-45884083D01*
X91602406Y-45881623D01*
X92462355Y-45407959D01*
X92466714Y-45405671D01*
X93345039Y-44967018D01*
X93349496Y-44964903D01*
X94244788Y-44561965D01*
X94249291Y-44560047D01*
X95160073Y-44193489D01*
X95164665Y-44191747D01*
X96089508Y-43862144D01*
X96094140Y-43860599D01*
X97031444Y-43568524D01*
X97036167Y-43567155D01*
X97984499Y-43313050D01*
X97989304Y-43311866D01*
X98947046Y-43096165D01*
X98951911Y-43095171D01*
X99917576Y-42918206D01*
X99922457Y-42917413D01*
X100894454Y-42779477D01*
X100899376Y-42778879D01*
X101876143Y-42680193D01*
X101881076Y-42679794D01*
X102861047Y-42620517D01*
X102865970Y-42620319D01*
X103847518Y-42600550D01*
X103852482Y-42600550D01*
X104834027Y-42620319D01*
G37*
%TD.AperFunction*%
%TD*%
%TA.AperFunction,Conductor*%
%TO.N,Net-(D1-A)*%
G36*
X93365677Y-56119685D02*
G01*
X93386319Y-56136319D01*
X100813681Y-63563681D01*
X100847166Y-63625004D01*
X100850000Y-63651362D01*
X100850000Y-66726000D01*
X100830315Y-66793039D01*
X100777511Y-66838794D01*
X100726000Y-66850000D01*
X92974000Y-66850000D01*
X92906961Y-66830315D01*
X92861206Y-66777511D01*
X92850000Y-66726000D01*
X92850000Y-56224000D01*
X92869685Y-56156961D01*
X92922489Y-56111206D01*
X92974000Y-56100000D01*
X93298638Y-56100000D01*
X93365677Y-56119685D01*
G37*
%TD.AperFunction*%
%TD*%
M02*
