%TF.GenerationSoftware,KiCad,Pcbnew,8.0.1*%
%TF.CreationDate,2025-09-11T03:38:31+04:00*%
%TF.ProjectId,Neopixel_project_v3.0,4e656f70-6978-4656-9c5f-70726f6a6563,v3.0*%
%TF.SameCoordinates,Original*%
%TF.FileFunction,Legend,Top*%
%TF.FilePolarity,Positive*%
%FSLAX46Y46*%
G04 Gerber Fmt 4.6, Leading zero omitted, Abs format (unit mm)*
G04 Created by KiCad (PCBNEW 8.0.1) date 2025-09-11 03:38:31*
%MOMM*%
%LPD*%
G01*
G04 APERTURE LIST*
%ADD10C,0.150000*%
%ADD11C,0.120000*%
%ADD12C,0.152400*%
%ADD13C,0.000000*%
G04 APERTURE END LIST*
D10*
X89450000Y-75250000D02*
X89950000Y-75250000D01*
X89450000Y-74350000D02*
X89450000Y-76100000D01*
X88300000Y-75250000D02*
X87600000Y-75250000D01*
X88300000Y-74450000D02*
X88300000Y-76050000D01*
X88300000Y-76050000D02*
X89450000Y-75250000D01*
X89450000Y-75250000D02*
X88299993Y-74450010D01*
X121033699Y-64545180D02*
X121033699Y-64307085D01*
X121271794Y-64402323D02*
X121033699Y-64307085D01*
X121033699Y-64307085D02*
X120795604Y-64402323D01*
X121176556Y-64116609D02*
X121033699Y-64307085D01*
X121033699Y-64307085D02*
X120890842Y-64116609D01*
D11*
%TO.C,R17*%
X103062258Y-82102500D02*
X102587742Y-82102500D01*
X103062258Y-83147500D02*
X102587742Y-83147500D01*
%TO.C,C5*%
X117740000Y-67262164D02*
X117740000Y-67477836D01*
X118460000Y-67262164D02*
X118460000Y-67477836D01*
%TO.C,R1*%
X101690000Y-49085436D02*
X101690000Y-50539564D01*
X103510000Y-49085436D02*
X103510000Y-50539564D01*
%TO.C,U3*%
X104540000Y-84237500D02*
X104540000Y-83437500D01*
X104540000Y-84237500D02*
X104540000Y-85037500D01*
X107660000Y-84237500D02*
X107660000Y-83437500D01*
X107660000Y-84237500D02*
X107660000Y-85037500D01*
X107940000Y-83177500D02*
X107610000Y-82937500D01*
X107940000Y-82697500D01*
X107940000Y-83177500D01*
G36*
X107940000Y-83177500D02*
G01*
X107610000Y-82937500D01*
X107940000Y-82697500D01*
X107940000Y-83177500D01*
G37*
%TO.C,C14*%
X115540000Y-77390000D02*
X117890000Y-77390000D01*
X115540000Y-83145563D02*
X115540000Y-77390000D01*
X116604437Y-84210000D02*
X115540000Y-83145563D01*
X116604437Y-84210000D02*
X117890000Y-84210000D01*
X116708750Y-84843750D02*
X117496250Y-84843750D01*
X117102500Y-85237500D02*
X117102500Y-84450000D01*
X121295563Y-84210000D02*
X120010000Y-84210000D01*
X121295563Y-84210000D02*
X122360000Y-83145563D01*
X122360000Y-77390000D02*
X120010000Y-77390000D01*
X122360000Y-83145563D02*
X122360000Y-77390000D01*
%TO.C,R5*%
X113690000Y-86539564D02*
X113690000Y-85085436D01*
X115510000Y-86539564D02*
X115510000Y-85085436D01*
%TO.C,Q4*%
X99037500Y-78590000D02*
X98387500Y-78590000D01*
X99037500Y-78590000D02*
X99687500Y-78590000D01*
X99037500Y-81710000D02*
X98387500Y-81710000D01*
X99037500Y-81710000D02*
X99687500Y-81710000D01*
X100440000Y-81990000D02*
X99960000Y-81990000D01*
X100200000Y-81660000D01*
X100440000Y-81990000D01*
G36*
X100440000Y-81990000D02*
G01*
X99960000Y-81990000D01*
X100200000Y-81660000D01*
X100440000Y-81990000D01*
G37*
%TO.C,C10*%
X119090000Y-58215580D02*
X119090000Y-57934420D01*
X120110000Y-58215580D02*
X120110000Y-57934420D01*
%TO.C,L3*%
X106000000Y-86715000D02*
X105600000Y-86715000D01*
X106000000Y-89735000D02*
X105600000Y-89735000D01*
%TO.C,R2*%
X101615000Y-53710436D02*
X101615000Y-54164564D01*
X103085000Y-53710436D02*
X103085000Y-54164564D01*
%TO.C,C15*%
X111565000Y-84336252D02*
X111565000Y-83813748D01*
X113035000Y-84336252D02*
X113035000Y-83813748D01*
%TO.C,Q7*%
X112787500Y-78590000D02*
X111987500Y-78590000D01*
X112787500Y-78590000D02*
X113587500Y-78590000D01*
X112787500Y-81710000D02*
X111987500Y-81710000D01*
X112787500Y-81710000D02*
X113587500Y-81710000D01*
X111487500Y-78640000D02*
X111247500Y-78310000D01*
X111727500Y-78310000D01*
X111487500Y-78640000D01*
G36*
X111487500Y-78640000D02*
G01*
X111247500Y-78310000D01*
X111727500Y-78310000D01*
X111487500Y-78640000D01*
G37*
%TO.C,R10*%
X120037742Y-50327500D02*
X120512258Y-50327500D01*
X120037742Y-51372500D02*
X120512258Y-51372500D01*
%TO.C,C9*%
X120234420Y-55340000D02*
X120515580Y-55340000D01*
X120234420Y-56360000D02*
X120515580Y-56360000D01*
%TO.C,Q8*%
X94750000Y-78540000D02*
X93950000Y-78540000D01*
X94750000Y-78540000D02*
X95550000Y-78540000D01*
X94750000Y-81660000D02*
X93950000Y-81660000D01*
X94750000Y-81660000D02*
X95550000Y-81660000D01*
X93450000Y-78590000D02*
X93210000Y-78260000D01*
X93690000Y-78260000D01*
X93450000Y-78590000D01*
G36*
X93450000Y-78590000D02*
G01*
X93210000Y-78260000D01*
X93690000Y-78260000D01*
X93450000Y-78590000D01*
G37*
%TO.C,R16*%
X103027500Y-84712742D02*
X103027500Y-85187258D01*
X104072500Y-84712742D02*
X104072500Y-85187258D01*
%TO.C,C13*%
X108040000Y-84209420D02*
X108040000Y-84490580D01*
X109060000Y-84209420D02*
X109060000Y-84490580D01*
%TO.C,Y1*%
X115500000Y-73700000D02*
X118800000Y-73700000D01*
X118800000Y-73700000D02*
X118800000Y-69700000D01*
%TO.C,Q2*%
X108662500Y-52590000D02*
X108012500Y-52590000D01*
X108662500Y-52590000D02*
X109312500Y-52590000D01*
X108662500Y-55710000D02*
X108012500Y-55710000D01*
X108662500Y-55710000D02*
X109312500Y-55710000D01*
X107500000Y-52640000D02*
X107260000Y-52310000D01*
X107740000Y-52310000D01*
X107500000Y-52640000D01*
G36*
X107500000Y-52640000D02*
G01*
X107260000Y-52310000D01*
X107740000Y-52310000D01*
X107500000Y-52640000D01*
G37*
%TO.C,C19*%
X119707836Y-65740000D02*
X119492164Y-65740000D01*
X119707836Y-66460000D02*
X119492164Y-66460000D01*
%TO.C,C18*%
X117227836Y-73990000D02*
X117012164Y-73990000D01*
X117227836Y-74710000D02*
X117012164Y-74710000D01*
%TO.C,Q5*%
X94712500Y-52540000D02*
X93912500Y-52540000D01*
X94712500Y-52540000D02*
X95512500Y-52540000D01*
X94712500Y-55660000D02*
X93912500Y-55660000D01*
X94712500Y-55660000D02*
X95512500Y-55660000D01*
X96252500Y-55940000D02*
X95772500Y-55940000D01*
X96012500Y-55610000D01*
X96252500Y-55940000D01*
G36*
X96252500Y-55940000D02*
G01*
X95772500Y-55940000D01*
X96012500Y-55610000D01*
X96252500Y-55940000D01*
G37*
%TO.C,C17*%
X117222164Y-68740000D02*
X117437836Y-68740000D01*
X117222164Y-69460000D02*
X117437836Y-69460000D01*
%TO.C,D5*%
X92385000Y-73550000D02*
X86875000Y-73550000D01*
X92385000Y-76850000D02*
X86875000Y-76850000D01*
X92385000Y-76850000D02*
X92385000Y-73550000D01*
%TO.C,L4*%
X116340000Y-66974721D02*
X116340000Y-67300279D01*
X117360000Y-66974721D02*
X117360000Y-67300279D01*
%TO.C,R7*%
X90440000Y-78910436D02*
X90440000Y-80364564D01*
X92260000Y-78910436D02*
X92260000Y-80364564D01*
%TO.C,C1*%
X83462500Y-53502500D02*
X84250000Y-53502500D01*
X83856250Y-53108750D02*
X83856250Y-53896250D01*
X84490000Y-53004437D02*
X84490000Y-54290000D01*
X84490000Y-53004437D02*
X85554437Y-51940000D01*
X84490000Y-57695563D02*
X84490000Y-56410000D01*
X84490000Y-57695563D02*
X85554437Y-58760000D01*
X85554437Y-51940000D02*
X91310000Y-51940000D01*
X85554437Y-58760000D02*
X91310000Y-58760000D01*
X91310000Y-51940000D02*
X91310000Y-54290000D01*
X91310000Y-58760000D02*
X91310000Y-56410000D01*
%TO.C,U4*%
X108712500Y-49040000D02*
X107912500Y-49040000D01*
X108712500Y-49040000D02*
X109512500Y-49040000D01*
X108712500Y-52160000D02*
X107912500Y-52160000D01*
X108712500Y-52160000D02*
X109512500Y-52160000D01*
X107412500Y-49090000D02*
X107172500Y-48760000D01*
X107652500Y-48760000D01*
X107412500Y-49090000D01*
G36*
X107412500Y-49090000D02*
G01*
X107172500Y-48760000D01*
X107652500Y-48760000D01*
X107412500Y-49090000D01*
G37*
%TO.C,R11*%
X117412258Y-50327500D02*
X116937742Y-50327500D01*
X117412258Y-51372500D02*
X116937742Y-51372500D01*
%TO.C,C4*%
X119484420Y-74815000D02*
X119765580Y-74815000D01*
X119484420Y-75835000D02*
X119765580Y-75835000D01*
%TO.C,R9*%
X116937742Y-48827500D02*
X117412258Y-48827500D01*
X116937742Y-49872500D02*
X117412258Y-49872500D01*
%TO.C,C11*%
X108234420Y-43840000D02*
X108515580Y-43840000D01*
X108234420Y-44860000D02*
X108515580Y-44860000D01*
%TO.C,R15*%
X101477500Y-85987258D02*
X101477500Y-85512742D01*
X102522500Y-85987258D02*
X102522500Y-85512742D01*
%TO.C,C7*%
X116090000Y-57115580D02*
X116090000Y-56834420D01*
X117110000Y-57115580D02*
X117110000Y-56834420D01*
%TO.C,R3*%
X103940000Y-49160436D02*
X103940000Y-50614564D01*
X105760000Y-49160436D02*
X105760000Y-50614564D01*
%TO.C,J3*%
X94250000Y-51960000D02*
X94250000Y-45640000D01*
X95020000Y-45640000D02*
X94250000Y-45640000D01*
X95020000Y-46200000D02*
X94250000Y-46200000D01*
X97560000Y-45640000D02*
X96600000Y-45640000D01*
X97560000Y-46200000D02*
X96600000Y-46200000D01*
X99910000Y-45640000D02*
X99140000Y-45640000D01*
X99910000Y-46200000D02*
X99140000Y-46200000D01*
X99910000Y-51500000D02*
X94250000Y-51500000D01*
X99910000Y-51960000D02*
X94250000Y-51960000D01*
X99910000Y-51960000D02*
X99910000Y-45640000D01*
X100150000Y-45400000D02*
X99650000Y-45400000D01*
X100150000Y-46140000D02*
X100150000Y-45400000D01*
%TO.C,R4*%
X104615000Y-54164564D02*
X104615000Y-53710436D01*
X106085000Y-54164564D02*
X106085000Y-53710436D01*
%TO.C,L1*%
X89600000Y-67640000D02*
X88300000Y-67640000D01*
X89600000Y-73060000D02*
X88300000Y-73060000D01*
%TO.C,R22*%
X88640000Y-65564564D02*
X88640000Y-61210436D01*
X92060000Y-65564564D02*
X92060000Y-61210436D01*
%TO.C,C3*%
X83865000Y-69411252D02*
X83865000Y-68888748D01*
X85335000Y-69411252D02*
X85335000Y-68888748D01*
%TO.C,R6*%
X104615000Y-80414564D02*
X104615000Y-79960436D01*
X106085000Y-80414564D02*
X106085000Y-79960436D01*
%TO.C,C6*%
X117590000Y-57115580D02*
X117590000Y-56834420D01*
X118610000Y-57115580D02*
X118610000Y-56834420D01*
%TO.C,C12*%
X124090000Y-56434420D02*
X124090000Y-56715580D01*
X125110000Y-56434420D02*
X125110000Y-56715580D01*
%TO.C,Q1*%
X98912500Y-52540000D02*
X98262500Y-52540000D01*
X98912500Y-52540000D02*
X99562500Y-52540000D01*
X98912500Y-55660000D02*
X98262500Y-55660000D01*
X98912500Y-55660000D02*
X99562500Y-55660000D01*
X100315000Y-55940000D02*
X99835000Y-55940000D01*
X100075000Y-55610000D01*
X100315000Y-55940000D01*
G36*
X100315000Y-55940000D02*
G01*
X99835000Y-55940000D01*
X100075000Y-55610000D01*
X100315000Y-55940000D01*
G37*
D12*
%TO.C,U1*%
X115979100Y-60479100D02*
X115979100Y-60965660D01*
X115979100Y-64234340D02*
X115979100Y-64720900D01*
X115979100Y-64720900D02*
X116465660Y-64720900D01*
X116465660Y-60479100D02*
X115979100Y-60479100D01*
X119734340Y-64720900D02*
X120220900Y-64720900D01*
X120220900Y-60479100D02*
X119734340Y-60479100D01*
X120220900Y-60965660D02*
X120220900Y-60479100D01*
X120220900Y-64720900D02*
X120220900Y-64234340D01*
D13*
G36*
X115547300Y-63590501D02*
G01*
X115293300Y-63590501D01*
X115293300Y-63209501D01*
X115547300Y-63209501D01*
X115547300Y-63590501D01*
G37*
G36*
X118690499Y-60047300D02*
G01*
X118309499Y-60047300D01*
X118309499Y-59793300D01*
X118690499Y-59793300D01*
X118690499Y-60047300D01*
G37*
D11*
%TO.C,Q3*%
X108537500Y-78590000D02*
X107887500Y-78590000D01*
X108537500Y-78590000D02*
X109187500Y-78590000D01*
X108537500Y-81710000D02*
X107887500Y-81710000D01*
X108537500Y-81710000D02*
X109187500Y-81710000D01*
X107375000Y-78640000D02*
X107135000Y-78310000D01*
X107615000Y-78310000D01*
X107375000Y-78640000D01*
G36*
X107375000Y-78640000D02*
G01*
X107135000Y-78310000D01*
X107615000Y-78310000D01*
X107375000Y-78640000D01*
G37*
%TO.C,L2*%
X122050279Y-56840000D02*
X121724721Y-56840000D01*
X122050279Y-57860000D02*
X121724721Y-57860000D01*
D12*
%TO.C,SW2*%
X101493900Y-43025200D02*
X101493900Y-43644960D01*
X101493900Y-45555040D02*
X101493900Y-46174800D01*
X101493900Y-46174800D02*
X105735700Y-46174800D01*
X105735700Y-43025200D02*
X101493900Y-43025200D01*
X105735700Y-43644960D02*
X105735700Y-43025200D01*
X105735700Y-46174800D02*
X105735700Y-45555040D01*
D11*
%TO.C,C16*%
X109565000Y-84336252D02*
X109565000Y-83813748D01*
X111035000Y-84336252D02*
X111035000Y-83813748D01*
%TO.C,Q6*%
X112962500Y-52540000D02*
X112162500Y-52540000D01*
X112962500Y-52540000D02*
X113762500Y-52540000D01*
X112962500Y-55660000D02*
X112162500Y-55660000D01*
X112962500Y-55660000D02*
X113762500Y-55660000D01*
X114502500Y-55940000D02*
X114022500Y-55940000D01*
X114262500Y-55610000D01*
X114502500Y-55940000D01*
G36*
X114502500Y-55940000D02*
G01*
X114022500Y-55940000D01*
X114262500Y-55610000D01*
X114502500Y-55940000D01*
G37*
%TO.C,J1*%
X107215000Y-45770000D02*
X107215000Y-48430000D01*
X112355000Y-45770000D02*
X107215000Y-45770000D01*
X112355000Y-45770000D02*
X112355000Y-48430000D01*
X112355000Y-48430000D02*
X107215000Y-48430000D01*
X113625000Y-45770000D02*
X114955000Y-45770000D01*
X114955000Y-45770000D02*
X114955000Y-47100000D01*
%TO.C,C8*%
X122115000Y-54638748D02*
X122115000Y-55161252D01*
X123585000Y-54638748D02*
X123585000Y-55161252D01*
%TO.C,C20*%
X119727836Y-68740000D02*
X119512164Y-68740000D01*
X119727836Y-69460000D02*
X119512164Y-69460000D01*
%TO.C,R12*%
X113762258Y-49827500D02*
X113287742Y-49827500D01*
X113762258Y-50872500D02*
X113287742Y-50872500D01*
D12*
%TO.C,SW1*%
X116464300Y-51775200D02*
X116464300Y-52394960D01*
X116464300Y-54305040D02*
X116464300Y-54924800D01*
X116464300Y-54924800D02*
X120706100Y-54924800D01*
X120706100Y-51775200D02*
X116464300Y-51775200D01*
X120706100Y-52394960D02*
X120706100Y-51775200D01*
X120706100Y-54924800D02*
X120706100Y-54305040D01*
D11*
%TO.C,R8*%
X101615000Y-79960436D02*
X101615000Y-80414564D01*
X103085000Y-79960436D02*
X103085000Y-80414564D01*
D10*
%TO.C,U2*%
X82525000Y-61775000D02*
X82525000Y-65925000D01*
X87675000Y-61775000D02*
X87675000Y-65925000D01*
D11*
X88005000Y-61590000D02*
X87675000Y-61350000D01*
X88005000Y-61110000D01*
X88005000Y-61590000D01*
G36*
X88005000Y-61590000D02*
G01*
X87675000Y-61350000D01*
X88005000Y-61110000D01*
X88005000Y-61590000D01*
G37*
%TO.C,C2*%
X91962500Y-83752500D02*
X92750000Y-83752500D01*
X92356250Y-83358750D02*
X92356250Y-84146250D01*
X92990000Y-83254437D02*
X92990000Y-84540000D01*
X92990000Y-83254437D02*
X94054437Y-82190000D01*
X92990000Y-87945563D02*
X92990000Y-86660000D01*
X92990000Y-87945563D02*
X94054437Y-89010000D01*
X94054437Y-82190000D02*
X99810000Y-82190000D01*
X94054437Y-89010000D02*
X99810000Y-89010000D01*
X99810000Y-82190000D02*
X99810000Y-84540000D01*
X99810000Y-89010000D02*
X99810000Y-86660000D01*
%TD*%
M02*
