%TF.GenerationSoftware,KiCad,Pcbnew,8.0.1*%
%TF.CreationDate,2025-09-11T03:38:36+04:00*%
%TF.ProjectId,Neopixel_project_v3.0,4e656f70-6978-4656-9c5f-70726f6a6563,v3.0*%
%TF.SameCoordinates,Original*%
%TF.FileFunction,Drillmap*%
%TF.FilePolarity,Positive*%
%FSLAX45Y45*%
G04 Gerber Fmt 4.5, Leading zero omitted, Abs format (unit mm)*
G04 Created by KiCad (PCBNEW 8.0.1) date 2025-09-11 03:38:36*
%MOMM*%
%LPD*%
G01*
G04 APERTURE LIST*
%ADD10C,0.050000*%
%ADD11C,0.200000*%
%ADD12C,0.110000*%
G04 APERTURE END LIST*
D10*
X12885000Y-6710000D02*
G75*
G02*
X7885000Y-6710000I-2500000J0D01*
G01*
X7885000Y-6710000D02*
G75*
G02*
X12885000Y-6710000I2500000J0D01*
G01*
D11*
D12*
X9526000Y-4571000D02*
X9636000Y-4681000D01*
X9636000Y-4571000D02*
X9526000Y-4681000D01*
X9780000Y-4571000D02*
X9890000Y-4681000D01*
X9890000Y-4571000D02*
X9780000Y-4681000D01*
D11*
X8143277Y-9523984D02*
X8143277Y-9323984D01*
X8143277Y-9323984D02*
X8190896Y-9323984D01*
X8190896Y-9323984D02*
X8219467Y-9333508D01*
X8219467Y-9333508D02*
X8238515Y-9352555D01*
X8238515Y-9352555D02*
X8248039Y-9371603D01*
X8248039Y-9371603D02*
X8257562Y-9409698D01*
X8257562Y-9409698D02*
X8257562Y-9438270D01*
X8257562Y-9438270D02*
X8248039Y-9476365D01*
X8248039Y-9476365D02*
X8238515Y-9495412D01*
X8238515Y-9495412D02*
X8219467Y-9514460D01*
X8219467Y-9514460D02*
X8190896Y-9523984D01*
X8190896Y-9523984D02*
X8143277Y-9523984D01*
X8343277Y-9523984D02*
X8343277Y-9390650D01*
X8343277Y-9428746D02*
X8352801Y-9409698D01*
X8352801Y-9409698D02*
X8362324Y-9400174D01*
X8362324Y-9400174D02*
X8381372Y-9390650D01*
X8381372Y-9390650D02*
X8400420Y-9390650D01*
X8467086Y-9523984D02*
X8467086Y-9390650D01*
X8467086Y-9323984D02*
X8457563Y-9333508D01*
X8457563Y-9333508D02*
X8467086Y-9343031D01*
X8467086Y-9343031D02*
X8476610Y-9333508D01*
X8476610Y-9333508D02*
X8467086Y-9323984D01*
X8467086Y-9323984D02*
X8467086Y-9343031D01*
X8590896Y-9523984D02*
X8571848Y-9514460D01*
X8571848Y-9514460D02*
X8562324Y-9495412D01*
X8562324Y-9495412D02*
X8562324Y-9323984D01*
X8695658Y-9523984D02*
X8676610Y-9514460D01*
X8676610Y-9514460D02*
X8667086Y-9495412D01*
X8667086Y-9495412D02*
X8667086Y-9323984D01*
X8924229Y-9523984D02*
X8924229Y-9323984D01*
X8924229Y-9323984D02*
X8990896Y-9466841D01*
X8990896Y-9466841D02*
X9057563Y-9323984D01*
X9057563Y-9323984D02*
X9057563Y-9523984D01*
X9238515Y-9523984D02*
X9238515Y-9419222D01*
X9238515Y-9419222D02*
X9228991Y-9400174D01*
X9228991Y-9400174D02*
X9209944Y-9390650D01*
X9209944Y-9390650D02*
X9171848Y-9390650D01*
X9171848Y-9390650D02*
X9152801Y-9400174D01*
X9238515Y-9514460D02*
X9219467Y-9523984D01*
X9219467Y-9523984D02*
X9171848Y-9523984D01*
X9171848Y-9523984D02*
X9152801Y-9514460D01*
X9152801Y-9514460D02*
X9143277Y-9495412D01*
X9143277Y-9495412D02*
X9143277Y-9476365D01*
X9143277Y-9476365D02*
X9152801Y-9457317D01*
X9152801Y-9457317D02*
X9171848Y-9447793D01*
X9171848Y-9447793D02*
X9219467Y-9447793D01*
X9219467Y-9447793D02*
X9238515Y-9438270D01*
X9333753Y-9390650D02*
X9333753Y-9590650D01*
X9333753Y-9400174D02*
X9352801Y-9390650D01*
X9352801Y-9390650D02*
X9390896Y-9390650D01*
X9390896Y-9390650D02*
X9409944Y-9400174D01*
X9409944Y-9400174D02*
X9419467Y-9409698D01*
X9419467Y-9409698D02*
X9428991Y-9428746D01*
X9428991Y-9428746D02*
X9428991Y-9485889D01*
X9428991Y-9485889D02*
X9419467Y-9504936D01*
X9419467Y-9504936D02*
X9409944Y-9514460D01*
X9409944Y-9514460D02*
X9390896Y-9523984D01*
X9390896Y-9523984D02*
X9352801Y-9523984D01*
X9352801Y-9523984D02*
X9333753Y-9514460D01*
X9514705Y-9504936D02*
X9524229Y-9514460D01*
X9524229Y-9514460D02*
X9514705Y-9523984D01*
X9514705Y-9523984D02*
X9505182Y-9514460D01*
X9505182Y-9514460D02*
X9514705Y-9504936D01*
X9514705Y-9504936D02*
X9514705Y-9523984D01*
X9514705Y-9400174D02*
X9524229Y-9409698D01*
X9524229Y-9409698D02*
X9514705Y-9419222D01*
X9514705Y-9419222D02*
X9505182Y-9409698D01*
X9505182Y-9409698D02*
X9514705Y-9400174D01*
X9514705Y-9400174D02*
X9514705Y-9419222D01*
D12*
X7772500Y-9797500D02*
X7882500Y-9907500D01*
X7882500Y-9797500D02*
X7772500Y-9907500D01*
D11*
X8248039Y-9943984D02*
X8133753Y-9943984D01*
X8190896Y-9943984D02*
X8190896Y-9743984D01*
X8190896Y-9743984D02*
X8171848Y-9772555D01*
X8171848Y-9772555D02*
X8152801Y-9791603D01*
X8152801Y-9791603D02*
X8133753Y-9801127D01*
X8333753Y-9924936D02*
X8343277Y-9934460D01*
X8343277Y-9934460D02*
X8333753Y-9943984D01*
X8333753Y-9943984D02*
X8324229Y-9934460D01*
X8324229Y-9934460D02*
X8333753Y-9924936D01*
X8333753Y-9924936D02*
X8333753Y-9943984D01*
X8533753Y-9943984D02*
X8419467Y-9943984D01*
X8476610Y-9943984D02*
X8476610Y-9743984D01*
X8476610Y-9743984D02*
X8457563Y-9772555D01*
X8457563Y-9772555D02*
X8438515Y-9791603D01*
X8438515Y-9791603D02*
X8419467Y-9801127D01*
X8657563Y-9743984D02*
X8676610Y-9743984D01*
X8676610Y-9743984D02*
X8695658Y-9753508D01*
X8695658Y-9753508D02*
X8705182Y-9763031D01*
X8705182Y-9763031D02*
X8714705Y-9782079D01*
X8714705Y-9782079D02*
X8724229Y-9820174D01*
X8724229Y-9820174D02*
X8724229Y-9867793D01*
X8724229Y-9867793D02*
X8714705Y-9905889D01*
X8714705Y-9905889D02*
X8705182Y-9924936D01*
X8705182Y-9924936D02*
X8695658Y-9934460D01*
X8695658Y-9934460D02*
X8676610Y-9943984D01*
X8676610Y-9943984D02*
X8657563Y-9943984D01*
X8657563Y-9943984D02*
X8638515Y-9934460D01*
X8638515Y-9934460D02*
X8628991Y-9924936D01*
X8628991Y-9924936D02*
X8619467Y-9905889D01*
X8619467Y-9905889D02*
X8609944Y-9867793D01*
X8609944Y-9867793D02*
X8609944Y-9820174D01*
X8609944Y-9820174D02*
X8619467Y-9782079D01*
X8619467Y-9782079D02*
X8628991Y-9763031D01*
X8628991Y-9763031D02*
X8638515Y-9753508D01*
X8638515Y-9753508D02*
X8657563Y-9743984D01*
X8848039Y-9743984D02*
X8867086Y-9743984D01*
X8867086Y-9743984D02*
X8886134Y-9753508D01*
X8886134Y-9753508D02*
X8895658Y-9763031D01*
X8895658Y-9763031D02*
X8905182Y-9782079D01*
X8905182Y-9782079D02*
X8914705Y-9820174D01*
X8914705Y-9820174D02*
X8914705Y-9867793D01*
X8914705Y-9867793D02*
X8905182Y-9905889D01*
X8905182Y-9905889D02*
X8895658Y-9924936D01*
X8895658Y-9924936D02*
X8886134Y-9934460D01*
X8886134Y-9934460D02*
X8867086Y-9943984D01*
X8867086Y-9943984D02*
X8848039Y-9943984D01*
X8848039Y-9943984D02*
X8828991Y-9934460D01*
X8828991Y-9934460D02*
X8819467Y-9924936D01*
X8819467Y-9924936D02*
X8809944Y-9905889D01*
X8809944Y-9905889D02*
X8800420Y-9867793D01*
X8800420Y-9867793D02*
X8800420Y-9820174D01*
X8800420Y-9820174D02*
X8809944Y-9782079D01*
X8809944Y-9782079D02*
X8819467Y-9763031D01*
X8819467Y-9763031D02*
X8828991Y-9753508D01*
X8828991Y-9753508D02*
X8848039Y-9743984D01*
X9000420Y-9943984D02*
X9000420Y-9810650D01*
X9000420Y-9829698D02*
X9009944Y-9820174D01*
X9009944Y-9820174D02*
X9028991Y-9810650D01*
X9028991Y-9810650D02*
X9057563Y-9810650D01*
X9057563Y-9810650D02*
X9076610Y-9820174D01*
X9076610Y-9820174D02*
X9086134Y-9839222D01*
X9086134Y-9839222D02*
X9086134Y-9943984D01*
X9086134Y-9839222D02*
X9095658Y-9820174D01*
X9095658Y-9820174D02*
X9114705Y-9810650D01*
X9114705Y-9810650D02*
X9143277Y-9810650D01*
X9143277Y-9810650D02*
X9162325Y-9820174D01*
X9162325Y-9820174D02*
X9171848Y-9839222D01*
X9171848Y-9839222D02*
X9171848Y-9943984D01*
X9267086Y-9943984D02*
X9267086Y-9810650D01*
X9267086Y-9829698D02*
X9276610Y-9820174D01*
X9276610Y-9820174D02*
X9295658Y-9810650D01*
X9295658Y-9810650D02*
X9324229Y-9810650D01*
X9324229Y-9810650D02*
X9343277Y-9820174D01*
X9343277Y-9820174D02*
X9352801Y-9839222D01*
X9352801Y-9839222D02*
X9352801Y-9943984D01*
X9352801Y-9839222D02*
X9362325Y-9820174D01*
X9362325Y-9820174D02*
X9381372Y-9810650D01*
X9381372Y-9810650D02*
X9409944Y-9810650D01*
X9409944Y-9810650D02*
X9428991Y-9820174D01*
X9428991Y-9820174D02*
X9438515Y-9839222D01*
X9438515Y-9839222D02*
X9438515Y-9943984D01*
X9828991Y-9734460D02*
X9657563Y-9991603D01*
X10086134Y-9743984D02*
X10105182Y-9743984D01*
X10105182Y-9743984D02*
X10124229Y-9753508D01*
X10124229Y-9753508D02*
X10133753Y-9763031D01*
X10133753Y-9763031D02*
X10143277Y-9782079D01*
X10143277Y-9782079D02*
X10152801Y-9820174D01*
X10152801Y-9820174D02*
X10152801Y-9867793D01*
X10152801Y-9867793D02*
X10143277Y-9905889D01*
X10143277Y-9905889D02*
X10133753Y-9924936D01*
X10133753Y-9924936D02*
X10124229Y-9934460D01*
X10124229Y-9934460D02*
X10105182Y-9943984D01*
X10105182Y-9943984D02*
X10086134Y-9943984D01*
X10086134Y-9943984D02*
X10067087Y-9934460D01*
X10067087Y-9934460D02*
X10057563Y-9924936D01*
X10057563Y-9924936D02*
X10048039Y-9905889D01*
X10048039Y-9905889D02*
X10038515Y-9867793D01*
X10038515Y-9867793D02*
X10038515Y-9820174D01*
X10038515Y-9820174D02*
X10048039Y-9782079D01*
X10048039Y-9782079D02*
X10057563Y-9763031D01*
X10057563Y-9763031D02*
X10067087Y-9753508D01*
X10067087Y-9753508D02*
X10086134Y-9743984D01*
X10238515Y-9924936D02*
X10248039Y-9934460D01*
X10248039Y-9934460D02*
X10238515Y-9943984D01*
X10238515Y-9943984D02*
X10228991Y-9934460D01*
X10228991Y-9934460D02*
X10238515Y-9924936D01*
X10238515Y-9924936D02*
X10238515Y-9943984D01*
X10371848Y-9743984D02*
X10390896Y-9743984D01*
X10390896Y-9743984D02*
X10409944Y-9753508D01*
X10409944Y-9753508D02*
X10419468Y-9763031D01*
X10419468Y-9763031D02*
X10428991Y-9782079D01*
X10428991Y-9782079D02*
X10438515Y-9820174D01*
X10438515Y-9820174D02*
X10438515Y-9867793D01*
X10438515Y-9867793D02*
X10428991Y-9905889D01*
X10428991Y-9905889D02*
X10419468Y-9924936D01*
X10419468Y-9924936D02*
X10409944Y-9934460D01*
X10409944Y-9934460D02*
X10390896Y-9943984D01*
X10390896Y-9943984D02*
X10371848Y-9943984D01*
X10371848Y-9943984D02*
X10352801Y-9934460D01*
X10352801Y-9934460D02*
X10343277Y-9924936D01*
X10343277Y-9924936D02*
X10333753Y-9905889D01*
X10333753Y-9905889D02*
X10324229Y-9867793D01*
X10324229Y-9867793D02*
X10324229Y-9820174D01*
X10324229Y-9820174D02*
X10333753Y-9782079D01*
X10333753Y-9782079D02*
X10343277Y-9763031D01*
X10343277Y-9763031D02*
X10352801Y-9753508D01*
X10352801Y-9753508D02*
X10371848Y-9743984D01*
X10609944Y-9810650D02*
X10609944Y-9943984D01*
X10562325Y-9734460D02*
X10514706Y-9877317D01*
X10514706Y-9877317D02*
X10638515Y-9877317D01*
X10695658Y-9743984D02*
X10819468Y-9743984D01*
X10819468Y-9743984D02*
X10752801Y-9820174D01*
X10752801Y-9820174D02*
X10781372Y-9820174D01*
X10781372Y-9820174D02*
X10800420Y-9829698D01*
X10800420Y-9829698D02*
X10809944Y-9839222D01*
X10809944Y-9839222D02*
X10819468Y-9858270D01*
X10819468Y-9858270D02*
X10819468Y-9905889D01*
X10819468Y-9905889D02*
X10809944Y-9924936D01*
X10809944Y-9924936D02*
X10800420Y-9934460D01*
X10800420Y-9934460D02*
X10781372Y-9943984D01*
X10781372Y-9943984D02*
X10724229Y-9943984D01*
X10724229Y-9943984D02*
X10705182Y-9934460D01*
X10705182Y-9934460D02*
X10695658Y-9924936D01*
X10886134Y-9743984D02*
X11009944Y-9743984D01*
X11009944Y-9743984D02*
X10943277Y-9820174D01*
X10943277Y-9820174D02*
X10971849Y-9820174D01*
X10971849Y-9820174D02*
X10990896Y-9829698D01*
X10990896Y-9829698D02*
X11000420Y-9839222D01*
X11000420Y-9839222D02*
X11009944Y-9858270D01*
X11009944Y-9858270D02*
X11009944Y-9905889D01*
X11009944Y-9905889D02*
X11000420Y-9924936D01*
X11000420Y-9924936D02*
X10990896Y-9934460D01*
X10990896Y-9934460D02*
X10971849Y-9943984D01*
X10971849Y-9943984D02*
X10914706Y-9943984D01*
X10914706Y-9943984D02*
X10895658Y-9934460D01*
X10895658Y-9934460D02*
X10886134Y-9924936D01*
X11086134Y-9743984D02*
X11086134Y-9782079D01*
X11162325Y-9743984D02*
X11162325Y-9782079D01*
X11457563Y-10020174D02*
X11448039Y-10010650D01*
X11448039Y-10010650D02*
X11428991Y-9982079D01*
X11428991Y-9982079D02*
X11419468Y-9963031D01*
X11419468Y-9963031D02*
X11409944Y-9934460D01*
X11409944Y-9934460D02*
X11400420Y-9886841D01*
X11400420Y-9886841D02*
X11400420Y-9848746D01*
X11400420Y-9848746D02*
X11409944Y-9801127D01*
X11409944Y-9801127D02*
X11419468Y-9772555D01*
X11419468Y-9772555D02*
X11428991Y-9753508D01*
X11428991Y-9753508D02*
X11448039Y-9724936D01*
X11448039Y-9724936D02*
X11457563Y-9715412D01*
X11524229Y-9763031D02*
X11533753Y-9753508D01*
X11533753Y-9753508D02*
X11552801Y-9743984D01*
X11552801Y-9743984D02*
X11600420Y-9743984D01*
X11600420Y-9743984D02*
X11619468Y-9753508D01*
X11619468Y-9753508D02*
X11628991Y-9763031D01*
X11628991Y-9763031D02*
X11638515Y-9782079D01*
X11638515Y-9782079D02*
X11638515Y-9801127D01*
X11638515Y-9801127D02*
X11628991Y-9829698D01*
X11628991Y-9829698D02*
X11514706Y-9943984D01*
X11514706Y-9943984D02*
X11638515Y-9943984D01*
X11876610Y-9943984D02*
X11876610Y-9743984D01*
X11962325Y-9943984D02*
X11962325Y-9839222D01*
X11962325Y-9839222D02*
X11952801Y-9820174D01*
X11952801Y-9820174D02*
X11933753Y-9810650D01*
X11933753Y-9810650D02*
X11905182Y-9810650D01*
X11905182Y-9810650D02*
X11886134Y-9820174D01*
X11886134Y-9820174D02*
X11876610Y-9829698D01*
X12086134Y-9943984D02*
X12067087Y-9934460D01*
X12067087Y-9934460D02*
X12057563Y-9924936D01*
X12057563Y-9924936D02*
X12048039Y-9905889D01*
X12048039Y-9905889D02*
X12048039Y-9848746D01*
X12048039Y-9848746D02*
X12057563Y-9829698D01*
X12057563Y-9829698D02*
X12067087Y-9820174D01*
X12067087Y-9820174D02*
X12086134Y-9810650D01*
X12086134Y-9810650D02*
X12114706Y-9810650D01*
X12114706Y-9810650D02*
X12133753Y-9820174D01*
X12133753Y-9820174D02*
X12143277Y-9829698D01*
X12143277Y-9829698D02*
X12152801Y-9848746D01*
X12152801Y-9848746D02*
X12152801Y-9905889D01*
X12152801Y-9905889D02*
X12143277Y-9924936D01*
X12143277Y-9924936D02*
X12133753Y-9934460D01*
X12133753Y-9934460D02*
X12114706Y-9943984D01*
X12114706Y-9943984D02*
X12086134Y-9943984D01*
X12267087Y-9943984D02*
X12248039Y-9934460D01*
X12248039Y-9934460D02*
X12238515Y-9915412D01*
X12238515Y-9915412D02*
X12238515Y-9743984D01*
X12419468Y-9934460D02*
X12400420Y-9943984D01*
X12400420Y-9943984D02*
X12362325Y-9943984D01*
X12362325Y-9943984D02*
X12343277Y-9934460D01*
X12343277Y-9934460D02*
X12333753Y-9915412D01*
X12333753Y-9915412D02*
X12333753Y-9839222D01*
X12333753Y-9839222D02*
X12343277Y-9820174D01*
X12343277Y-9820174D02*
X12362325Y-9810650D01*
X12362325Y-9810650D02*
X12400420Y-9810650D01*
X12400420Y-9810650D02*
X12419468Y-9820174D01*
X12419468Y-9820174D02*
X12428991Y-9839222D01*
X12428991Y-9839222D02*
X12428991Y-9858270D01*
X12428991Y-9858270D02*
X12333753Y-9877317D01*
X12505182Y-9934460D02*
X12524230Y-9943984D01*
X12524230Y-9943984D02*
X12562325Y-9943984D01*
X12562325Y-9943984D02*
X12581372Y-9934460D01*
X12581372Y-9934460D02*
X12590896Y-9915412D01*
X12590896Y-9915412D02*
X12590896Y-9905889D01*
X12590896Y-9905889D02*
X12581372Y-9886841D01*
X12581372Y-9886841D02*
X12562325Y-9877317D01*
X12562325Y-9877317D02*
X12533753Y-9877317D01*
X12533753Y-9877317D02*
X12514706Y-9867793D01*
X12514706Y-9867793D02*
X12505182Y-9848746D01*
X12505182Y-9848746D02*
X12505182Y-9839222D01*
X12505182Y-9839222D02*
X12514706Y-9820174D01*
X12514706Y-9820174D02*
X12533753Y-9810650D01*
X12533753Y-9810650D02*
X12562325Y-9810650D01*
X12562325Y-9810650D02*
X12581372Y-9820174D01*
X12657563Y-10020174D02*
X12667087Y-10010650D01*
X12667087Y-10010650D02*
X12686134Y-9982079D01*
X12686134Y-9982079D02*
X12695658Y-9963031D01*
X12695658Y-9963031D02*
X12705182Y-9934460D01*
X12705182Y-9934460D02*
X12714706Y-9886841D01*
X12714706Y-9886841D02*
X12714706Y-9848746D01*
X12714706Y-9848746D02*
X12705182Y-9801127D01*
X12705182Y-9801127D02*
X12695658Y-9772555D01*
X12695658Y-9772555D02*
X12686134Y-9753508D01*
X12686134Y-9753508D02*
X12667087Y-9724936D01*
X12667087Y-9724936D02*
X12657563Y-9715412D01*
X13019468Y-10020174D02*
X13009944Y-10010650D01*
X13009944Y-10010650D02*
X12990896Y-9982079D01*
X12990896Y-9982079D02*
X12981372Y-9963031D01*
X12981372Y-9963031D02*
X12971849Y-9934460D01*
X12971849Y-9934460D02*
X12962325Y-9886841D01*
X12962325Y-9886841D02*
X12962325Y-9848746D01*
X12962325Y-9848746D02*
X12971849Y-9801127D01*
X12971849Y-9801127D02*
X12981372Y-9772555D01*
X12981372Y-9772555D02*
X12990896Y-9753508D01*
X12990896Y-9753508D02*
X13009944Y-9724936D01*
X13009944Y-9724936D02*
X13019468Y-9715412D01*
X13095658Y-9810650D02*
X13095658Y-9943984D01*
X13095658Y-9829698D02*
X13105182Y-9820174D01*
X13105182Y-9820174D02*
X13124230Y-9810650D01*
X13124230Y-9810650D02*
X13152801Y-9810650D01*
X13152801Y-9810650D02*
X13171849Y-9820174D01*
X13171849Y-9820174D02*
X13181372Y-9839222D01*
X13181372Y-9839222D02*
X13181372Y-9943984D01*
X13305182Y-9943984D02*
X13286134Y-9934460D01*
X13286134Y-9934460D02*
X13276611Y-9924936D01*
X13276611Y-9924936D02*
X13267087Y-9905889D01*
X13267087Y-9905889D02*
X13267087Y-9848746D01*
X13267087Y-9848746D02*
X13276611Y-9829698D01*
X13276611Y-9829698D02*
X13286134Y-9820174D01*
X13286134Y-9820174D02*
X13305182Y-9810650D01*
X13305182Y-9810650D02*
X13333753Y-9810650D01*
X13333753Y-9810650D02*
X13352801Y-9820174D01*
X13352801Y-9820174D02*
X13362325Y-9829698D01*
X13362325Y-9829698D02*
X13371849Y-9848746D01*
X13371849Y-9848746D02*
X13371849Y-9905889D01*
X13371849Y-9905889D02*
X13362325Y-9924936D01*
X13362325Y-9924936D02*
X13352801Y-9934460D01*
X13352801Y-9934460D02*
X13333753Y-9943984D01*
X13333753Y-9943984D02*
X13305182Y-9943984D01*
X13428992Y-9810650D02*
X13505182Y-9810650D01*
X13457563Y-9743984D02*
X13457563Y-9915412D01*
X13457563Y-9915412D02*
X13467087Y-9934460D01*
X13467087Y-9934460D02*
X13486134Y-9943984D01*
X13486134Y-9943984D02*
X13505182Y-9943984D01*
X13724230Y-9810650D02*
X13724230Y-10010650D01*
X13724230Y-9820174D02*
X13743277Y-9810650D01*
X13743277Y-9810650D02*
X13781373Y-9810650D01*
X13781373Y-9810650D02*
X13800420Y-9820174D01*
X13800420Y-9820174D02*
X13809944Y-9829698D01*
X13809944Y-9829698D02*
X13819468Y-9848746D01*
X13819468Y-9848746D02*
X13819468Y-9905889D01*
X13819468Y-9905889D02*
X13809944Y-9924936D01*
X13809944Y-9924936D02*
X13800420Y-9934460D01*
X13800420Y-9934460D02*
X13781373Y-9943984D01*
X13781373Y-9943984D02*
X13743277Y-9943984D01*
X13743277Y-9943984D02*
X13724230Y-9934460D01*
X13933753Y-9943984D02*
X13914706Y-9934460D01*
X13914706Y-9934460D02*
X13905182Y-9915412D01*
X13905182Y-9915412D02*
X13905182Y-9743984D01*
X14095658Y-9943984D02*
X14095658Y-9839222D01*
X14095658Y-9839222D02*
X14086134Y-9820174D01*
X14086134Y-9820174D02*
X14067087Y-9810650D01*
X14067087Y-9810650D02*
X14028992Y-9810650D01*
X14028992Y-9810650D02*
X14009944Y-9820174D01*
X14095658Y-9934460D02*
X14076611Y-9943984D01*
X14076611Y-9943984D02*
X14028992Y-9943984D01*
X14028992Y-9943984D02*
X14009944Y-9934460D01*
X14009944Y-9934460D02*
X14000420Y-9915412D01*
X14000420Y-9915412D02*
X14000420Y-9896365D01*
X14000420Y-9896365D02*
X14009944Y-9877317D01*
X14009944Y-9877317D02*
X14028992Y-9867793D01*
X14028992Y-9867793D02*
X14076611Y-9867793D01*
X14076611Y-9867793D02*
X14095658Y-9858270D01*
X14162325Y-9810650D02*
X14238515Y-9810650D01*
X14190896Y-9743984D02*
X14190896Y-9915412D01*
X14190896Y-9915412D02*
X14200420Y-9934460D01*
X14200420Y-9934460D02*
X14219468Y-9943984D01*
X14219468Y-9943984D02*
X14238515Y-9943984D01*
X14381373Y-9934460D02*
X14362325Y-9943984D01*
X14362325Y-9943984D02*
X14324230Y-9943984D01*
X14324230Y-9943984D02*
X14305182Y-9934460D01*
X14305182Y-9934460D02*
X14295658Y-9915412D01*
X14295658Y-9915412D02*
X14295658Y-9839222D01*
X14295658Y-9839222D02*
X14305182Y-9820174D01*
X14305182Y-9820174D02*
X14324230Y-9810650D01*
X14324230Y-9810650D02*
X14362325Y-9810650D01*
X14362325Y-9810650D02*
X14381373Y-9820174D01*
X14381373Y-9820174D02*
X14390896Y-9839222D01*
X14390896Y-9839222D02*
X14390896Y-9858270D01*
X14390896Y-9858270D02*
X14295658Y-9877317D01*
X14562325Y-9943984D02*
X14562325Y-9743984D01*
X14562325Y-9934460D02*
X14543277Y-9943984D01*
X14543277Y-9943984D02*
X14505182Y-9943984D01*
X14505182Y-9943984D02*
X14486134Y-9934460D01*
X14486134Y-9934460D02*
X14476611Y-9924936D01*
X14476611Y-9924936D02*
X14467087Y-9905889D01*
X14467087Y-9905889D02*
X14467087Y-9848746D01*
X14467087Y-9848746D02*
X14476611Y-9829698D01*
X14476611Y-9829698D02*
X14486134Y-9820174D01*
X14486134Y-9820174D02*
X14505182Y-9810650D01*
X14505182Y-9810650D02*
X14543277Y-9810650D01*
X14543277Y-9810650D02*
X14562325Y-9820174D01*
X14638515Y-10020174D02*
X14648039Y-10010650D01*
X14648039Y-10010650D02*
X14667087Y-9982079D01*
X14667087Y-9982079D02*
X14676611Y-9963031D01*
X14676611Y-9963031D02*
X14686134Y-9934460D01*
X14686134Y-9934460D02*
X14695658Y-9886841D01*
X14695658Y-9886841D02*
X14695658Y-9848746D01*
X14695658Y-9848746D02*
X14686134Y-9801127D01*
X14686134Y-9801127D02*
X14676611Y-9772555D01*
X14676611Y-9772555D02*
X14667087Y-9753508D01*
X14667087Y-9753508D02*
X14648039Y-9724936D01*
X14648039Y-9724936D02*
X14638515Y-9715412D01*
M02*
