%TF.GenerationSoftware,KiCad,Pcbnew,8.0.1*%
%TF.CreationDate,2025-09-11T03:38:31+04:00*%
%TF.ProjectId,Neopixel_project_v3.0,4e656f70-6978-4656-9c5f-70726f6a6563,v3.0*%
%TF.SameCoordinates,Original*%
%TF.FileFunction,Copper,L1,Top*%
%TF.FilePolarity,Positive*%
%FSLAX46Y46*%
G04 Gerber Fmt 4.6, Leading zero omitted, Abs format (unit mm)*
G04 Created by KiCad (PCBNEW 8.0.1) date 2025-09-11 03:38:31*
%MOMM*%
%LPD*%
G01*
G04 APERTURE LIST*
G04 Aperture macros list*
%AMRoundRect*
0 Rectangle with rounded corners*
0 $1 Rounding radius*
0 $2 $3 $4 $5 $6 $7 $8 $9 X,Y pos of 4 corners*
0 Add a 4 corners polygon primitive as box body*
4,1,4,$2,$3,$4,$5,$6,$7,$8,$9,$2,$3,0*
0 Add four circle primitives for the rounded corners*
1,1,$1+$1,$2,$3*
1,1,$1+$1,$4,$5*
1,1,$1+$1,$6,$7*
1,1,$1+$1,$8,$9*
0 Add four rect primitives between the rounded corners*
20,1,$1+$1,$2,$3,$4,$5,0*
20,1,$1+$1,$4,$5,$6,$7,0*
20,1,$1+$1,$6,$7,$8,$9,0*
20,1,$1+$1,$8,$9,$2,$3,0*%
G04 Aperture macros list end*
%TA.AperFunction,EtchedComponent*%
%ADD10C,0.000000*%
%TD*%
%TA.AperFunction,SMDPad,CuDef*%
%ADD11RoundRect,0.200000X0.200000X0.275000X-0.200000X0.275000X-0.200000X-0.275000X0.200000X-0.275000X0*%
%TD*%
%TA.AperFunction,SMDPad,CuDef*%
%ADD12RoundRect,0.140000X-0.170000X0.140000X-0.170000X-0.140000X0.170000X-0.140000X0.170000X0.140000X0*%
%TD*%
%TA.AperFunction,SMDPad,CuDef*%
%ADD13RoundRect,0.250000X-0.625000X0.312500X-0.625000X-0.312500X0.625000X-0.312500X0.625000X0.312500X0*%
%TD*%
%TA.AperFunction,SMDPad,CuDef*%
%ADD14RoundRect,0.150000X-0.150000X0.512500X-0.150000X-0.512500X0.150000X-0.512500X0.150000X0.512500X0*%
%TD*%
%TA.AperFunction,SMDPad,CuDef*%
%ADD15RoundRect,0.250000X0.550000X-1.500000X0.550000X1.500000X-0.550000X1.500000X-0.550000X-1.500000X0*%
%TD*%
%TA.AperFunction,SMDPad,CuDef*%
%ADD16RoundRect,0.250000X0.625000X-0.312500X0.625000X0.312500X-0.625000X0.312500X-0.625000X-0.312500X0*%
%TD*%
%TA.AperFunction,SMDPad,CuDef*%
%ADD17RoundRect,0.150000X0.587500X0.150000X-0.587500X0.150000X-0.587500X-0.150000X0.587500X-0.150000X0*%
%TD*%
%TA.AperFunction,SMDPad,CuDef*%
%ADD18RoundRect,0.225000X0.250000X-0.225000X0.250000X0.225000X-0.250000X0.225000X-0.250000X-0.225000X0*%
%TD*%
%TA.AperFunction,SMDPad,CuDef*%
%ADD19R,1.400000X3.000000*%
%TD*%
%TA.AperFunction,SMDPad,CuDef*%
%ADD20RoundRect,0.250000X-0.450000X0.262500X-0.450000X-0.262500X0.450000X-0.262500X0.450000X0.262500X0*%
%TD*%
%TA.AperFunction,SMDPad,CuDef*%
%ADD21RoundRect,0.250000X0.475000X-0.250000X0.475000X0.250000X-0.475000X0.250000X-0.475000X-0.250000X0*%
%TD*%
%TA.AperFunction,SMDPad,CuDef*%
%ADD22RoundRect,0.150000X-0.512500X-0.150000X0.512500X-0.150000X0.512500X0.150000X-0.512500X0.150000X0*%
%TD*%
%TA.AperFunction,SMDPad,CuDef*%
%ADD23RoundRect,0.200000X-0.200000X-0.275000X0.200000X-0.275000X0.200000X0.275000X-0.200000X0.275000X0*%
%TD*%
%TA.AperFunction,SMDPad,CuDef*%
%ADD24RoundRect,0.225000X-0.225000X-0.250000X0.225000X-0.250000X0.225000X0.250000X-0.225000X0.250000X0*%
%TD*%
%TA.AperFunction,SMDPad,CuDef*%
%ADD25RoundRect,0.200000X-0.275000X0.200000X-0.275000X-0.200000X0.275000X-0.200000X0.275000X0.200000X0*%
%TD*%
%TA.AperFunction,SMDPad,CuDef*%
%ADD26RoundRect,0.225000X-0.250000X0.225000X-0.250000X-0.225000X0.250000X-0.225000X0.250000X0.225000X0*%
%TD*%
%TA.AperFunction,SMDPad,CuDef*%
%ADD27R,1.200000X1.400000*%
%TD*%
%TA.AperFunction,SMDPad,CuDef*%
%ADD28RoundRect,0.150000X-0.587500X-0.150000X0.587500X-0.150000X0.587500X0.150000X-0.587500X0.150000X0*%
%TD*%
%TA.AperFunction,SMDPad,CuDef*%
%ADD29RoundRect,0.140000X0.140000X0.170000X-0.140000X0.170000X-0.140000X-0.170000X0.140000X-0.170000X0*%
%TD*%
%TA.AperFunction,SMDPad,CuDef*%
%ADD30RoundRect,0.150000X0.512500X0.150000X-0.512500X0.150000X-0.512500X-0.150000X0.512500X-0.150000X0*%
%TD*%
%TA.AperFunction,SMDPad,CuDef*%
%ADD31RoundRect,0.140000X-0.140000X-0.170000X0.140000X-0.170000X0.140000X0.170000X-0.140000X0.170000X0*%
%TD*%
%TA.AperFunction,SMDPad,CuDef*%
%ADD32RoundRect,0.250000X1.000000X0.650000X-1.000000X0.650000X-1.000000X-0.650000X1.000000X-0.650000X0*%
%TD*%
%TA.AperFunction,SMDPad,CuDef*%
%ADD33RoundRect,0.218750X-0.256250X0.218750X-0.256250X-0.218750X0.256250X-0.218750X0.256250X0.218750X0*%
%TD*%
%TA.AperFunction,SMDPad,CuDef*%
%ADD34RoundRect,0.250000X-1.500000X-0.550000X1.500000X-0.550000X1.500000X0.550000X-1.500000X0.550000X0*%
%TD*%
%TA.AperFunction,SMDPad,CuDef*%
%ADD35RoundRect,0.200000X0.275000X-0.200000X0.275000X0.200000X-0.275000X0.200000X-0.275000X-0.200000X0*%
%TD*%
%TA.AperFunction,ComponentPad*%
%ADD36R,2.200000X2.200000*%
%TD*%
%TA.AperFunction,ComponentPad*%
%ADD37C,2.200000*%
%TD*%
%TA.AperFunction,SMDPad,CuDef*%
%ADD38RoundRect,0.250000X0.450000X-0.262500X0.450000X0.262500X-0.450000X0.262500X-0.450000X-0.262500X0*%
%TD*%
%TA.AperFunction,SMDPad,CuDef*%
%ADD39R,2.150000X5.500000*%
%TD*%
%TA.AperFunction,SMDPad,CuDef*%
%ADD40RoundRect,0.250000X1.425000X-0.362500X1.425000X0.362500X-1.425000X0.362500X-1.425000X-0.362500X0*%
%TD*%
%TA.AperFunction,SMDPad,CuDef*%
%ADD41R,0.762000X0.203200*%
%TD*%
%TA.AperFunction,SMDPad,CuDef*%
%ADD42R,0.203200X0.762000*%
%TD*%
%TA.AperFunction,SMDPad,CuDef*%
%ADD43R,2.794000X2.794000*%
%TD*%
%TA.AperFunction,ConnectorPad*%
%ADD44R,0.500000X0.500000*%
%TD*%
%TA.AperFunction,ComponentPad*%
%ADD45R,0.500000X0.900000*%
%TD*%
%TA.AperFunction,SMDPad,CuDef*%
%ADD46RoundRect,0.218750X0.218750X0.256250X-0.218750X0.256250X-0.218750X-0.256250X0.218750X-0.256250X0*%
%TD*%
%TA.AperFunction,SMDPad,CuDef*%
%ADD47R,1.244600X1.244600*%
%TD*%
%TA.AperFunction,ComponentPad*%
%ADD48R,1.700000X1.700000*%
%TD*%
%TA.AperFunction,ComponentPad*%
%ADD49O,1.700000X1.700000*%
%TD*%
%TA.AperFunction,SMDPad,CuDef*%
%ADD50RoundRect,0.250000X-0.475000X0.250000X-0.475000X-0.250000X0.475000X-0.250000X0.475000X0.250000X0*%
%TD*%
%TA.AperFunction,SMDPad,CuDef*%
%ADD51RoundRect,0.147500X-0.172500X0.147500X-0.172500X-0.147500X0.172500X-0.147500X0.172500X0.147500X0*%
%TD*%
%TA.AperFunction,SMDPad,CuDef*%
%ADD52R,0.802000X1.505000*%
%TD*%
%TA.AperFunction,SMDPad,CuDef*%
%ADD53R,3.502000X2.613000*%
%TD*%
%TA.AperFunction,ViaPad*%
%ADD54C,0.600000*%
%TD*%
%TA.AperFunction,Conductor*%
%ADD55C,0.200000*%
%TD*%
%TA.AperFunction,Conductor*%
%ADD56C,0.500000*%
%TD*%
%TA.AperFunction,Conductor*%
%ADD57C,0.150000*%
%TD*%
%TA.AperFunction,Conductor*%
%ADD58C,0.400000*%
%TD*%
%TA.AperFunction,Conductor*%
%ADD59C,0.250000*%
%TD*%
%TA.AperFunction,Conductor*%
%ADD60C,1.000000*%
%TD*%
%TA.AperFunction,Conductor*%
%ADD61C,0.300000*%
%TD*%
G04 APERTURE END LIST*
D10*
%TA.AperFunction,EtchedComponent*%
%TO.C,AE1*%
G36*
X126750000Y-62350000D02*
G01*
X124110000Y-62350000D01*
X124110000Y-64350000D01*
X126750000Y-64350000D01*
X126750000Y-67050000D01*
X124110000Y-67050000D01*
X124110000Y-69050000D01*
X126750000Y-69050000D01*
X126750000Y-74050000D01*
X121593215Y-74050000D01*
X121350000Y-74050000D01*
X121350000Y-73625156D01*
X121453957Y-73625156D01*
X121466065Y-73667819D01*
X121470419Y-73675731D01*
X121503203Y-73713674D01*
X121545605Y-73737742D01*
X121593215Y-73747583D01*
X121641622Y-73742847D01*
X121686416Y-73723185D01*
X121723186Y-73688245D01*
X121740092Y-73655353D01*
X121747982Y-73607267D01*
X121741408Y-73557682D01*
X121721313Y-73512372D01*
X121688643Y-73477112D01*
X121656417Y-73460218D01*
X121608158Y-73451778D01*
X121558632Y-73458309D01*
X121513447Y-73478868D01*
X121478213Y-73512511D01*
X121467600Y-73531122D01*
X121454700Y-73576637D01*
X121453957Y-73625156D01*
X121350000Y-73625156D01*
X121350000Y-73150000D01*
X126250000Y-73150000D01*
X126250000Y-71750000D01*
X121350000Y-71750000D01*
X121350000Y-71250000D01*
X126250000Y-71250000D01*
X126250000Y-69550000D01*
X123610000Y-69550000D01*
X123610000Y-66550000D01*
X126250000Y-66550000D01*
X126250000Y-64850000D01*
X123610000Y-64850000D01*
X123610000Y-61850000D01*
X126250000Y-61850000D01*
X126250000Y-60150000D01*
X122310000Y-60150000D01*
X122310000Y-59650000D01*
X126750000Y-59650000D01*
X126750000Y-62350000D01*
G37*
%TD.AperFunction*%
%TD*%
D11*
%TO.P,R17,1*%
%TO.N,Net-(U3-FB)*%
X103650000Y-82625000D03*
%TO.P,R17,2*%
%TO.N,GND*%
X102000000Y-82625000D03*
%TD*%
D12*
%TO.P,C5,1*%
%TO.N,3v3*%
X118100000Y-66890000D03*
%TO.P,C5,2*%
%TO.N,GND*%
X118100000Y-67850000D03*
%TD*%
D13*
%TO.P,R1,1*%
%TO.N,24V*%
X102600000Y-48350000D03*
%TO.P,R1,2*%
%TO.N,Net-(Q1-C)*%
X102600000Y-51275000D03*
%TD*%
D14*
%TO.P,U3,1,BST*%
%TO.N,Net-(U3-BST)*%
X107050000Y-83100000D03*
%TO.P,U3,2,GND*%
%TO.N,GND*%
X106100000Y-83100000D03*
%TO.P,U3,3,FB*%
%TO.N,Net-(U3-FB)*%
X105150000Y-83100000D03*
%TO.P,U3,4,EN*%
%TO.N,Net-(U3-EN)*%
X105150000Y-85375000D03*
%TO.P,U3,5,VIN*%
%TO.N,24V*%
X106100000Y-85375000D03*
%TO.P,U3,6,SW*%
%TO.N,Net-(U3-SW)*%
X107050000Y-85375000D03*
%TD*%
D15*
%TO.P,C14,1*%
%TO.N,3v3*%
X118950000Y-83500000D03*
%TO.P,C14,2*%
%TO.N,GND*%
X118950000Y-78100000D03*
%TD*%
D16*
%TO.P,R5,1*%
%TO.N,24V*%
X114600000Y-87275000D03*
%TO.P,R5,2*%
%TO.N,Net-(Q3-C)*%
X114600000Y-84350000D03*
%TD*%
D17*
%TO.P,Q4,1,B*%
%TO.N,PWM_B*%
X99975000Y-81100000D03*
%TO.P,Q4,2,E*%
%TO.N,Net-(Q4-E)*%
X99975000Y-79200000D03*
%TO.P,Q4,3,C*%
%TO.N,Net-(Q4-C)*%
X98100000Y-80150000D03*
%TD*%
D18*
%TO.P,C10,1*%
%TO.N,Net-(C10-Pad1)*%
X119600000Y-58850000D03*
%TO.P,C10,2*%
%TO.N,GND*%
X119600000Y-57300000D03*
%TD*%
D19*
%TO.P,L3,1,1*%
%TO.N,Net-(U3-SW)*%
X106900000Y-88225000D03*
%TO.P,L3,2,2*%
%TO.N,3v3*%
X104700000Y-88225000D03*
%TD*%
D20*
%TO.P,R2,1*%
%TO.N,Net-(Q1-E)*%
X102350000Y-53025000D03*
%TO.P,R2,2*%
%TO.N,GND*%
X102350000Y-54850000D03*
%TD*%
D21*
%TO.P,C15,1*%
%TO.N,3v3*%
X112300000Y-85025000D03*
%TO.P,C15,2*%
%TO.N,GND*%
X112300000Y-83125000D03*
%TD*%
D22*
%TO.P,Q7,1,D*%
%TO.N,Net-(D3-K)*%
X111650000Y-79200000D03*
%TO.P,Q7,2,G*%
%TO.N,Net-(Q3-C)*%
X111650000Y-81100000D03*
%TO.P,Q7,3,S*%
%TO.N,Net-(D2-A)*%
X113925000Y-80150000D03*
%TD*%
D23*
%TO.P,R10,1*%
%TO.N,3v3*%
X119450000Y-50850000D03*
%TO.P,R10,2*%
%TO.N,BOOT*%
X121100000Y-50850000D03*
%TD*%
D24*
%TO.P,C9,1*%
%TO.N,3v3*%
X119600000Y-55850000D03*
%TO.P,C9,2*%
%TO.N,GND*%
X121150000Y-55850000D03*
%TD*%
D22*
%TO.P,Q8,1,D*%
%TO.N,Net-(D4-K)*%
X93612500Y-79150000D03*
%TO.P,Q8,2,G*%
%TO.N,Net-(Q4-C)*%
X93612500Y-81050000D03*
%TO.P,Q8,3,S*%
%TO.N,Net-(D3-K)*%
X95887500Y-80100000D03*
%TD*%
D25*
%TO.P,R16,1*%
%TO.N,Net-(U3-FB)*%
X103550000Y-84125000D03*
%TO.P,R16,2*%
%TO.N,3v3*%
X103550000Y-85775000D03*
%TD*%
D26*
%TO.P,C13,1*%
%TO.N,Net-(U3-BST)*%
X108550000Y-83575000D03*
%TO.P,C13,2*%
%TO.N,Net-(U3-SW)*%
X108550000Y-85125000D03*
%TD*%
D27*
%TO.P,Y1,1,1*%
%TO.N,OSC_N*%
X117950000Y-72800000D03*
%TO.P,Y1,2,2*%
%TO.N,GND*%
X117950000Y-70600000D03*
%TO.P,Y1,3,3*%
%TO.N,OSC_P*%
X116350000Y-70600000D03*
%TO.P,Y1,4,4*%
%TO.N,GND*%
X116350000Y-72800000D03*
%TD*%
D28*
%TO.P,Q2,1,B*%
%TO.N,PWM_R*%
X107725000Y-53200000D03*
%TO.P,Q2,2,E*%
%TO.N,Net-(Q2-E)*%
X107725000Y-55100000D03*
%TO.P,Q2,3,C*%
%TO.N,Net-(Q2-C)*%
X109600000Y-54150000D03*
%TD*%
D29*
%TO.P,C19,1*%
%TO.N,LNA_IN*%
X120080000Y-66100000D03*
%TO.P,C19,2*%
%TO.N,GND*%
X119120000Y-66100000D03*
%TD*%
%TO.P,C18,1*%
%TO.N,OSC_N*%
X117600000Y-74350000D03*
%TO.P,C18,2*%
%TO.N,GND*%
X116640000Y-74350000D03*
%TD*%
D30*
%TO.P,Q5,1,D*%
%TO.N,Net-(D1-K)*%
X95850000Y-55050000D03*
%TO.P,Q5,2,G*%
%TO.N,Net-(Q1-C)*%
X95850000Y-53150000D03*
%TO.P,Q5,3,S*%
%TO.N,Net-(D1-A)*%
X93575000Y-54100000D03*
%TD*%
D31*
%TO.P,C17,1*%
%TO.N,OSC_P*%
X116850000Y-69100000D03*
%TO.P,C17,2*%
%TO.N,GND*%
X117810000Y-69100000D03*
%TD*%
D32*
%TO.P,D5,1,K*%
%TO.N,24V*%
X90875000Y-75200000D03*
%TO.P,D5,2,A*%
%TO.N,Net-(D5-A)*%
X86875000Y-75200000D03*
%TD*%
D33*
%TO.P,L4,1,1*%
%TO.N,Net-(U1A-XTAL_P)*%
X116850000Y-66350000D03*
%TO.P,L4,2,2*%
%TO.N,OSC_P*%
X116850000Y-67925000D03*
%TD*%
D13*
%TO.P,R7,1*%
%TO.N,24V*%
X91350000Y-78175000D03*
%TO.P,R7,2*%
%TO.N,Net-(Q4-C)*%
X91350000Y-81100000D03*
%TD*%
D34*
%TO.P,C1,1*%
%TO.N,24V*%
X85200000Y-55350000D03*
%TO.P,C1,2*%
%TO.N,GND*%
X90600000Y-55350000D03*
%TD*%
D22*
%TO.P,U4,1,I/O1*%
%TO.N,unconnected-(U4-I{slash}O1-Pad1)*%
X107575000Y-49650000D03*
%TO.P,U4,2,GND*%
%TO.N,GND*%
X107575000Y-50600000D03*
%TO.P,U4,3,I/O2*%
%TO.N,unconnected-(U4-I{slash}O2-Pad3)*%
X107575000Y-51550000D03*
%TO.P,U4,4,I/O3*%
%TO.N,USB_D-*%
X109850000Y-51550000D03*
%TO.P,U4,5,VBUS*%
%TO.N,3v3*%
X109850000Y-50600000D03*
%TO.P,U4,6,I/O4*%
%TO.N,USB_D+*%
X109850000Y-49650000D03*
%TD*%
D11*
%TO.P,R11,1*%
%TO.N,Net-(U1A-GPIO2)*%
X118000000Y-50850000D03*
%TO.P,R11,2*%
%TO.N,3v3*%
X116350000Y-50850000D03*
%TD*%
D24*
%TO.P,C4,1*%
%TO.N,3v3*%
X118850000Y-75325000D03*
%TO.P,C4,2*%
%TO.N,GND*%
X120400000Y-75325000D03*
%TD*%
D23*
%TO.P,R9,1*%
%TO.N,3v3*%
X116350000Y-49350000D03*
%TO.P,R9,2*%
%TO.N,CHIP_EN*%
X118000000Y-49350000D03*
%TD*%
D24*
%TO.P,C11,1*%
%TO.N,CHIP_EN*%
X107600000Y-44350000D03*
%TO.P,C11,2*%
%TO.N,GND*%
X109150000Y-44350000D03*
%TD*%
D35*
%TO.P,R15,1*%
%TO.N,24V*%
X102000000Y-86575000D03*
%TO.P,R15,2*%
%TO.N,Net-(U3-EN)*%
X102000000Y-84925000D03*
%TD*%
D18*
%TO.P,C7,1*%
%TO.N,3v3*%
X116600000Y-57750000D03*
%TO.P,C7,2*%
%TO.N,GND*%
X116600000Y-56200000D03*
%TD*%
D13*
%TO.P,R3,1*%
%TO.N,24V*%
X104850000Y-48425000D03*
%TO.P,R3,2*%
%TO.N,Net-(Q2-C)*%
X104850000Y-51350000D03*
%TD*%
D36*
%TO.P,J3,1,Pin_1*%
%TO.N,GND*%
X98350000Y-48800000D03*
D37*
%TO.P,J3,2,Pin_2*%
%TO.N,24V*%
X95810000Y-48800000D03*
%TD*%
D38*
%TO.P,R4,1*%
%TO.N,Net-(Q2-E)*%
X105350000Y-54850000D03*
%TO.P,R4,2*%
%TO.N,GND*%
X105350000Y-53025000D03*
%TD*%
D39*
%TO.P,L1,1,1*%
%TO.N,Net-(D4-K)*%
X90875000Y-70350000D03*
%TO.P,L1,2,2*%
%TO.N,Net-(D5-A)*%
X87025000Y-70350000D03*
%TD*%
D40*
%TO.P,R22,1*%
%TO.N,Net-(D1-A)*%
X90350000Y-66350000D03*
%TO.P,R22,2*%
%TO.N,24V*%
X90350000Y-60425000D03*
%TD*%
D21*
%TO.P,C3,1*%
%TO.N,GND*%
X84600000Y-70100000D03*
%TO.P,C3,2*%
%TO.N,24V*%
X84600000Y-68200000D03*
%TD*%
D38*
%TO.P,R6,1*%
%TO.N,Net-(Q3-E)*%
X105350000Y-81100000D03*
%TO.P,R6,2*%
%TO.N,GND*%
X105350000Y-79275000D03*
%TD*%
D18*
%TO.P,C6,1*%
%TO.N,3v3*%
X118100000Y-57750000D03*
%TO.P,C6,2*%
%TO.N,GND*%
X118100000Y-56200000D03*
%TD*%
D26*
%TO.P,C12,1*%
%TO.N,BOOT*%
X124600000Y-55800000D03*
%TO.P,C12,2*%
%TO.N,GND*%
X124600000Y-57350000D03*
%TD*%
D17*
%TO.P,Q1,1,B*%
%TO.N,PWM_W*%
X99850000Y-55050000D03*
%TO.P,Q1,2,E*%
%TO.N,Net-(Q1-E)*%
X99850000Y-53150000D03*
%TO.P,Q1,3,C*%
%TO.N,Net-(Q1-C)*%
X97975000Y-54100000D03*
%TD*%
D41*
%TO.P,U1,1,LNA_IN*%
%TO.N,LNA_IN*%
X120017700Y-63800000D03*
%TO.P,U1,2,VDD3P3*%
%TO.N,Net-(C10-Pad1)*%
X120017700Y-63400001D03*
%TO.P,U1,3,VDD3P3*%
X120017700Y-62999999D03*
%TO.P,U1,4,XTAL_32K_P*%
%TO.N,unconnected-(U1A-XTAL_32K_P-Pad4)*%
X120017700Y-62600000D03*
%TO.P,U1,5,XTAL_32K_N*%
%TO.N,unconnected-(U1A-XTAL_32K_N-Pad5)*%
X120017700Y-62200001D03*
%TO.P,U1,6,GPIO2*%
%TO.N,Net-(U1A-GPIO2)*%
X120017700Y-61799999D03*
%TO.P,U1,7,CHIP_EN*%
%TO.N,CHIP_EN*%
X120017700Y-61400000D03*
D42*
%TO.P,U1,8,GPIO3*%
%TO.N,unconnected-(U1A-GPIO3-Pad8)*%
X119300000Y-60682300D03*
%TO.P,U1,9,MTMS*%
%TO.N,PWM_W*%
X118900001Y-60682300D03*
%TO.P,U1,10,MTDI*%
%TO.N,PWM_R*%
X118499999Y-60682300D03*
%TO.P,U1,11,VDD3P3_RTC*%
%TO.N,3v3*%
X118100000Y-60682300D03*
%TO.P,U1,12,MTCK*%
%TO.N,PWM_G*%
X117700001Y-60682300D03*
%TO.P,U1,13,MTDO*%
%TO.N,PWM_B*%
X117299999Y-60682300D03*
%TO.P,U1,14,GPIO8*%
%TO.N,Net-(U1A-GPIO8)*%
X116900000Y-60682300D03*
D41*
%TO.P,U1,15,GPIO9*%
%TO.N,BOOT*%
X116182300Y-61400000D03*
%TO.P,U1,16,GPIO10*%
%TO.N,CTRL*%
X116182300Y-61799999D03*
%TO.P,U1,17,VDD3P3_CPU*%
%TO.N,3v3*%
X116182300Y-62200001D03*
%TO.P,U1,18,VDD_SPI*%
%TO.N,unconnected-(U1B-VDD_SPI-Pad18)*%
X116182300Y-62600000D03*
%TO.P,U1,19,NC*%
%TO.N,unconnected-(U1B-NC-Pad19)*%
X116182300Y-62999999D03*
%TO.P,U1,20,NC*%
%TO.N,unconnected-(U1B-NC-Pad20)*%
X116182300Y-63400001D03*
%TO.P,U1,21,GPIO18*%
%TO.N,USB_D-*%
X116182300Y-63800000D03*
D42*
%TO.P,U1,22,GPIO19*%
%TO.N,USB_D+*%
X116900000Y-64517700D03*
%TO.P,U1,23,U0RXD*%
%TO.N,unconnected-(U1A-U0RXD-Pad23)*%
X117299999Y-64517700D03*
%TO.P,U1,24,U0TXD*%
%TO.N,unconnected-(U1A-U0TXD-Pad24)*%
X117700001Y-64517700D03*
%TO.P,U1,25,XTAL_N*%
%TO.N,OSC_N*%
X118100000Y-64517700D03*
%TO.P,U1,26,XTAL_P*%
%TO.N,Net-(U1A-XTAL_P)*%
X118499999Y-64517700D03*
%TO.P,U1,27,VDDA*%
%TO.N,3v3*%
X118900001Y-64517700D03*
%TO.P,U1,28,VDDA*%
X119300000Y-64517700D03*
D43*
%TO.P,U1,29,GND*%
%TO.N,GND*%
X118100000Y-62600000D03*
%TD*%
D28*
%TO.P,Q3,1,B*%
%TO.N,PWM_G*%
X107600000Y-79200000D03*
%TO.P,Q3,2,E*%
%TO.N,Net-(Q3-E)*%
X107600000Y-81100000D03*
%TO.P,Q3,3,C*%
%TO.N,Net-(Q3-C)*%
X109475000Y-80150000D03*
%TD*%
D44*
%TO.P,AE1,1,A*%
%TO.N,Net-(AE1-A)*%
X121600000Y-71500000D03*
D45*
%TO.P,AE1,2,Shield*%
%TO.N,GND*%
X121600000Y-73600000D03*
%TD*%
D46*
%TO.P,L2,1,1*%
%TO.N,3v3*%
X122675000Y-57350000D03*
%TO.P,L2,2,2*%
%TO.N,Net-(C10-Pad1)*%
X121100000Y-57350000D03*
%TD*%
D47*
%TO.P,SW2,1,1*%
%TO.N,GND*%
X101379600Y-44600000D03*
%TO.P,SW2,2,2*%
%TO.N,CHIP_EN*%
X105850000Y-44600000D03*
%TD*%
D21*
%TO.P,C16,1*%
%TO.N,24V*%
X110300000Y-85025000D03*
%TO.P,C16,2*%
%TO.N,GND*%
X110300000Y-83125000D03*
%TD*%
D30*
%TO.P,Q6,1,D*%
%TO.N,Net-(D2-A)*%
X114100000Y-55050000D03*
%TO.P,Q6,2,G*%
%TO.N,Net-(Q2-C)*%
X114100000Y-53150000D03*
%TO.P,Q6,3,S*%
%TO.N,Net-(D1-K)*%
X111825000Y-54100000D03*
%TD*%
D48*
%TO.P,J1,1,Pin_1*%
%TO.N,GND*%
X113625000Y-47100000D03*
D49*
%TO.P,J1,2,Pin_2*%
%TO.N,USB_D-*%
X111085000Y-47100000D03*
%TO.P,J1,3,Pin_3*%
%TO.N,USB_D+*%
X108545000Y-47100000D03*
%TD*%
D50*
%TO.P,C8,1*%
%TO.N,3v3*%
X122850000Y-53950000D03*
%TO.P,C8,2*%
%TO.N,GND*%
X122850000Y-55850000D03*
%TD*%
D29*
%TO.P,C20,1*%
%TO.N,Net-(AE1-A)*%
X120100000Y-69100000D03*
%TO.P,C20,2*%
%TO.N,GND*%
X119140000Y-69100000D03*
%TD*%
D51*
%TO.P,L5,1,1*%
%TO.N,LNA_IN*%
X120100000Y-67100000D03*
%TO.P,L5,2,2*%
%TO.N,Net-(AE1-A)*%
X120100000Y-68070000D03*
%TD*%
D11*
%TO.P,R12,1*%
%TO.N,Net-(U1A-GPIO8)*%
X114350000Y-50350000D03*
%TO.P,R12,2*%
%TO.N,3v3*%
X112700000Y-50350000D03*
%TD*%
D47*
%TO.P,SW1,1,1*%
%TO.N,GND*%
X116350000Y-53350000D03*
%TO.P,SW1,2,2*%
%TO.N,BOOT*%
X120820400Y-53350000D03*
%TD*%
D20*
%TO.P,R8,1*%
%TO.N,Net-(Q4-E)*%
X102350000Y-79275000D03*
%TO.P,R8,2*%
%TO.N,GND*%
X102350000Y-81100000D03*
%TD*%
D52*
%TO.P,U2,1,GND*%
%TO.N,GND*%
X87005000Y-61352500D03*
%TO.P,U2,2,GND*%
X85735000Y-61352500D03*
%TO.P,U2,3,SET*%
%TO.N,Net-(D1-A)*%
X84465000Y-61352500D03*
%TO.P,U2,4,NC*%
%TO.N,unconnected-(U2-NC-Pad4)*%
X83195000Y-61352500D03*
%TO.P,U2,5,CTRL*%
%TO.N,CTRL*%
X83195000Y-66347500D03*
%TO.P,U2,6,VIN*%
%TO.N,24V*%
X84465000Y-66347500D03*
%TO.P,U2,7,SW*%
%TO.N,Net-(D5-A)*%
X85735000Y-66347500D03*
%TO.P,U2,8,SW*%
X87005000Y-66347500D03*
D53*
%TO.P,U2,9,PAD*%
%TO.N,unconnected-(U2-PAD-Pad9)*%
X85100000Y-63850000D03*
%TD*%
D34*
%TO.P,C2,1*%
%TO.N,24V*%
X93700000Y-85600000D03*
%TO.P,C2,2*%
%TO.N,GND*%
X99100000Y-85600000D03*
%TD*%
D54*
%TO.N,GND*%
X110100000Y-44350000D03*
X111712953Y-83125000D03*
X116750000Y-51798006D03*
X119351525Y-66652042D03*
X122855331Y-55005331D03*
X87850000Y-62100000D03*
X119100000Y-70600000D03*
X106350000Y-50600000D03*
X103850000Y-53850000D03*
X103850000Y-80100000D03*
X100100000Y-44600000D03*
X120400000Y-76650000D03*
X105600516Y-84283662D03*
X99100000Y-84100000D03*
X118100000Y-62600000D03*
X90600000Y-56600000D03*
X84600000Y-71100000D03*
%TO.N,3v3*%
X103450000Y-88350000D03*
X112350000Y-49350000D03*
X115100000Y-47350000D03*
X119850000Y-71850000D03*
X119850000Y-54850000D03*
X119450000Y-49700000D03*
X115100000Y-49100000D03*
X112050000Y-86350000D03*
X110600000Y-50600000D03*
X120980136Y-58672979D03*
X118737786Y-67240114D03*
%TO.N,CHIP_EN*%
X120500000Y-59882507D03*
X118700000Y-55200000D03*
%TO.N,BOOT*%
X118404306Y-53338190D03*
X115375000Y-60057148D03*
%TO.N,Net-(D1-K)*%
X101850000Y-66500000D03*
X104150000Y-63900000D03*
X102350000Y-63100000D03*
X103350000Y-66500000D03*
X103850000Y-63100000D03*
X103050000Y-63100000D03*
X101650000Y-63100000D03*
X104150000Y-66200000D03*
X104150000Y-65400000D03*
X102550000Y-66500000D03*
X104150000Y-64600000D03*
X104950000Y-63100000D03*
X105750000Y-63100000D03*
%TO.N,Net-(D1-A)*%
X98950000Y-66000000D03*
X98950000Y-63900000D03*
X98950000Y-64600000D03*
X98950000Y-65300000D03*
X99450000Y-66500000D03*
X99250000Y-63300000D03*
%TO.N,Net-(D2-A)*%
X107850000Y-68200000D03*
X107250000Y-66400000D03*
X107950000Y-70300000D03*
X108150000Y-65500000D03*
X107850000Y-66100000D03*
X107250000Y-67800000D03*
X108150000Y-69600000D03*
X108150000Y-68800000D03*
X108350000Y-64900000D03*
X107650000Y-70900000D03*
X108150000Y-64300000D03*
X107350000Y-63200000D03*
X107950000Y-63600000D03*
%TO.N,Net-(D3-K)*%
X104250000Y-68300000D03*
X106050000Y-67700000D03*
X104250000Y-69700000D03*
X102750000Y-67800000D03*
X103550000Y-68900000D03*
X105450000Y-71000000D03*
X102750000Y-70900000D03*
X103350000Y-68300000D03*
X106150000Y-71000000D03*
X104650000Y-67700000D03*
X105350000Y-67700000D03*
X104750000Y-71000000D03*
X104250000Y-70400000D03*
X103550000Y-69800000D03*
X103350000Y-70400000D03*
X104250000Y-69000000D03*
%TO.N,Net-(D4-K)*%
X101350000Y-67800000D03*
X101150000Y-71000000D03*
X99850000Y-70800000D03*
X99850000Y-68000000D03*
X100450000Y-71000000D03*
X99750000Y-68700000D03*
X100550000Y-67800000D03*
X99750000Y-69400000D03*
X99750000Y-70100000D03*
%TO.N,PWM_W*%
X119250000Y-59871298D03*
X99950000Y-54200000D03*
%TO.N,PWM_R*%
X108950000Y-53300000D03*
X118600000Y-58800000D03*
%TO.N,PWM_G*%
X117450000Y-58600000D03*
X108744124Y-79365785D03*
%TO.N,PWM_B*%
X100550000Y-82100000D03*
X117244365Y-59800000D03*
%TO.N,Net-(U1A-GPIO2)*%
X120509788Y-60756604D03*
X118800000Y-51700000D03*
%TO.N,Net-(U1A-GPIO8)*%
X115392889Y-51796334D03*
X115350000Y-59000000D03*
%TO.N,CTRL*%
X82600000Y-68600000D03*
X115350000Y-61800000D03*
%TD*%
D55*
%TO.N,PWM_G*%
X108578339Y-79200000D02*
X108744124Y-79365785D01*
X107600000Y-79200000D02*
X108578339Y-79200000D01*
D56*
%TO.N,GND*%
X119100000Y-70600000D02*
X119100000Y-69140000D01*
X104675000Y-53025000D02*
X103850000Y-53850000D01*
X102850000Y-81100000D02*
X103850000Y-80100000D01*
X117950000Y-70600000D02*
X119100000Y-70600000D01*
X118100000Y-67850000D02*
X118100000Y-68810000D01*
X90600000Y-55350000D02*
X90600000Y-56600000D01*
X118100000Y-68810000D02*
X117810000Y-69100000D01*
D57*
X119120000Y-66420517D02*
X119351525Y-66652042D01*
D56*
X102000000Y-81450000D02*
X102350000Y-81100000D01*
X116600000Y-56200000D02*
X118100000Y-56200000D01*
X120400000Y-75325000D02*
X120400000Y-76650000D01*
X119100000Y-69140000D02*
X119140000Y-69100000D01*
X116640000Y-75790000D02*
X116640000Y-74350000D01*
D58*
X110300000Y-83125000D02*
X112300000Y-83125000D01*
D56*
X116640000Y-73090000D02*
X116350000Y-72800000D01*
X99100000Y-85600000D02*
X99100000Y-84100000D01*
X87102500Y-61352500D02*
X87850000Y-62100000D01*
X116640000Y-74350000D02*
X116640000Y-73090000D01*
D58*
X112300000Y-83125000D02*
X111712953Y-83125000D01*
X106100000Y-83100000D02*
X106100000Y-83784178D01*
D56*
X116350000Y-52198006D02*
X116750000Y-51798006D01*
X102350000Y-54850000D02*
X102850000Y-54850000D01*
X107575000Y-50600000D02*
X106350000Y-50600000D01*
X118950000Y-78100000D02*
X116640000Y-75790000D01*
X122850000Y-55850000D02*
X121150000Y-55850000D01*
X124600000Y-57350000D02*
X124350000Y-57350000D01*
X102850000Y-54850000D02*
X103850000Y-53850000D01*
X118100000Y-69100000D02*
X119140000Y-69100000D01*
D58*
X106100000Y-83784178D02*
X105600516Y-84283662D01*
D56*
X104675000Y-79275000D02*
X103850000Y-80100000D01*
X105350000Y-53025000D02*
X104675000Y-53025000D01*
X116600000Y-56200000D02*
X116600000Y-53600000D01*
X102000000Y-82625000D02*
X102000000Y-81450000D01*
X124350000Y-57350000D02*
X122850000Y-55850000D01*
X116350000Y-53350000D02*
X116350000Y-52198006D01*
X119600000Y-57300000D02*
X119700000Y-57300000D01*
X119120000Y-66349999D02*
X119120000Y-66100000D01*
X120400000Y-76650000D02*
X118950000Y-78100000D01*
X101379600Y-44600000D02*
X100100000Y-44600000D01*
X84600000Y-70100000D02*
X84600000Y-71100000D01*
X102350000Y-81100000D02*
X102850000Y-81100000D01*
X119700000Y-57300000D02*
X121150000Y-55850000D01*
X87005000Y-61352500D02*
X87102500Y-61352500D01*
X105350000Y-79275000D02*
X104675000Y-79275000D01*
X87005000Y-61352500D02*
X85735000Y-61352500D01*
X117810000Y-69100000D02*
X118100000Y-69100000D01*
X109150000Y-44350000D02*
X110100000Y-44350000D01*
X118850000Y-77950000D02*
X118850000Y-77900000D01*
X122850000Y-55010662D02*
X122855331Y-55005331D01*
X124650000Y-57400000D02*
X124600000Y-57350000D01*
D57*
X119120000Y-66100000D02*
X119120000Y-66420517D01*
D56*
X122850000Y-55850000D02*
X122850000Y-55010662D01*
%TO.N,Net-(AE1-A)*%
X120100000Y-69100000D02*
X120100000Y-68070000D01*
X120750000Y-71500000D02*
X121600000Y-71500000D01*
X120100000Y-70850000D02*
X120750000Y-71500000D01*
X120100000Y-69100000D02*
X120100000Y-70850000D01*
D59*
%TO.N,24V*%
X109625000Y-84350000D02*
X110300000Y-85025000D01*
X106100000Y-84986592D02*
X106736592Y-84350000D01*
D56*
X84600000Y-66482500D02*
X84465000Y-66347500D01*
D59*
X106100000Y-85375000D02*
X106100000Y-84986592D01*
D56*
X102675000Y-48425000D02*
X102600000Y-48350000D01*
X84600000Y-68200000D02*
X84600000Y-66482500D01*
D59*
X106736592Y-84350000D02*
X109625000Y-84350000D01*
D56*
X104850000Y-48425000D02*
X102675000Y-48425000D01*
%TO.N,3v3*%
X122600000Y-57350000D02*
X121600000Y-58350000D01*
D57*
X118100000Y-60301004D02*
X118100000Y-60682300D01*
X118100000Y-66140250D02*
X118900001Y-65340249D01*
D56*
X119450000Y-50639339D02*
X119555331Y-50744670D01*
D60*
X104700000Y-88225000D02*
X103575000Y-88225000D01*
D57*
X114775000Y-58691116D02*
X115108058Y-58358058D01*
X115111827Y-62375000D02*
X114775000Y-62038173D01*
D56*
X103550000Y-85775000D02*
X103550000Y-87075000D01*
D57*
X115716116Y-57750000D02*
X115108058Y-58358058D01*
X118025000Y-58575000D02*
X118025000Y-59046142D01*
X118100000Y-66890000D02*
X118100000Y-66140250D01*
D59*
X118100000Y-57540948D02*
X119600000Y-56040948D01*
D56*
X122200000Y-54600000D02*
X121600000Y-54600000D01*
D57*
X116182300Y-62200001D02*
X115763172Y-62200001D01*
X118140249Y-66100000D02*
X118900001Y-65340248D01*
X118025000Y-59046142D02*
X118193399Y-59214541D01*
D56*
X103550000Y-87075000D02*
X104700000Y-88225000D01*
D57*
X118193399Y-60207605D02*
X118100000Y-60301004D01*
D56*
X122850000Y-53950000D02*
X122200000Y-54600000D01*
D55*
X104700000Y-88125000D02*
X104650000Y-88125000D01*
D60*
X113262500Y-85612500D02*
X116837500Y-85612500D01*
D57*
X118100000Y-58500000D02*
X118025000Y-58575000D01*
D56*
X118850000Y-75325000D02*
X119850000Y-74325000D01*
D60*
X112675000Y-85025000D02*
X113262500Y-85612500D01*
D57*
X115763172Y-62200001D02*
X115588173Y-62375000D01*
X118900001Y-64517700D02*
X119300000Y-64517700D01*
D56*
X116600000Y-57750000D02*
X118100000Y-57750000D01*
D57*
X118193399Y-59214541D02*
X118193399Y-60207605D01*
X118387672Y-66890000D02*
X118737786Y-67240114D01*
D56*
X119450000Y-49700000D02*
X119450000Y-50639339D01*
D57*
X115588173Y-62375000D02*
X115111827Y-62375000D01*
D60*
X112050000Y-85275000D02*
X112300000Y-85025000D01*
D57*
X118100000Y-57750000D02*
X118100000Y-58500000D01*
X118900001Y-65340249D02*
X118900001Y-64517700D01*
X114775000Y-62038173D02*
X114775000Y-58691116D01*
D60*
X103575000Y-88225000D02*
X103450000Y-88350000D01*
D59*
X119600000Y-56040948D02*
X119600000Y-55850000D01*
D56*
X122675000Y-57350000D02*
X122600000Y-57350000D01*
D57*
X118900001Y-65340248D02*
X118900001Y-64517700D01*
X118100000Y-66890000D02*
X118387672Y-66890000D01*
D56*
X119850000Y-74325000D02*
X119850000Y-71850000D01*
D60*
X116837500Y-85612500D02*
X118950000Y-83500000D01*
D57*
X116600000Y-57750000D02*
X115716116Y-57750000D01*
X116182300Y-62200001D02*
X115796299Y-62200001D01*
D59*
X118100000Y-57750000D02*
X118100000Y-57540948D01*
D60*
X112050000Y-86350000D02*
X112050000Y-85275000D01*
X112300000Y-85025000D02*
X112675000Y-85025000D01*
D56*
X109850000Y-50600000D02*
X110600000Y-50600000D01*
D57*
%TO.N,Net-(C10-Pad1)*%
X119987517Y-59237517D02*
X119600000Y-58850000D01*
X120017700Y-63400001D02*
X120017700Y-62999999D01*
X120017700Y-62999999D02*
X120650301Y-62999999D01*
X121125000Y-62525300D02*
X121125000Y-59623623D01*
X121125000Y-59623623D02*
X120738894Y-59237517D01*
X120738894Y-59237517D02*
X119987517Y-59237517D01*
X120650301Y-62999999D02*
X121125000Y-62525300D01*
D56*
X119600000Y-58850000D02*
X121100000Y-57350000D01*
D57*
%TO.N,CHIP_EN*%
X118700000Y-55200000D02*
X118692376Y-55207624D01*
X112100000Y-45975000D02*
X112500000Y-46375000D01*
X107350000Y-44350000D02*
X107100000Y-44600000D01*
X119725000Y-60855700D02*
X119725000Y-60657507D01*
X118700000Y-55200000D02*
X117325000Y-53825000D01*
X119725000Y-60657507D02*
X120500000Y-59882507D01*
X117325000Y-53825000D02*
X117325000Y-49350000D01*
X117325000Y-48700000D02*
X117325000Y-49350000D01*
X112500000Y-46375000D02*
X112500000Y-48225000D01*
X112625000Y-48350000D02*
X116975000Y-48350000D01*
X116975000Y-48350000D02*
X117325000Y-48700000D01*
X118000000Y-49350000D02*
X117325000Y-49350000D01*
X112500000Y-48225000D02*
X112625000Y-48350000D01*
X120017700Y-61148400D02*
X119725000Y-60855700D01*
X107100000Y-44600000D02*
X105850000Y-44600000D01*
X120017700Y-61400000D02*
X120017700Y-61148400D01*
X107600000Y-44350000D02*
X107350000Y-44350000D01*
X105850000Y-44600000D02*
X107225000Y-45975000D01*
X107225000Y-45975000D02*
X112100000Y-45975000D01*
%TO.N,BOOT*%
X120820400Y-53350000D02*
X118416116Y-53350000D01*
X123675000Y-53175000D02*
X120995400Y-53175000D01*
X124383122Y-53883122D02*
X123675000Y-53175000D01*
X120995400Y-53175000D02*
X120820400Y-53350000D01*
X120820400Y-53350000D02*
X120820400Y-51129600D01*
X115375000Y-60057148D02*
X115375000Y-60592700D01*
X124600000Y-55800000D02*
X124600000Y-54228829D01*
X115375000Y-60592700D02*
X116182300Y-61400000D01*
X118416116Y-53350000D02*
X118404306Y-53338190D01*
X120820400Y-51129600D02*
X121100000Y-50850000D01*
X124600000Y-54228829D02*
X124383122Y-53883122D01*
D56*
%TO.N,Net-(U3-BST)*%
X107525000Y-83575000D02*
X107050000Y-83100000D01*
X108550000Y-83575000D02*
X107525000Y-83575000D01*
D57*
%TO.N,OSC_P*%
X116620000Y-70330000D02*
X116350000Y-70600000D01*
D56*
X116350000Y-69600000D02*
X116850000Y-69100000D01*
X116850000Y-69100000D02*
X116850000Y-67925000D01*
X116350000Y-70600000D02*
X116350000Y-69600000D01*
D57*
%TO.N,OSC_N*%
X117950000Y-72800000D02*
X117950000Y-72450000D01*
X115475000Y-66545670D02*
X116846970Y-65173700D01*
X115475000Y-71575000D02*
X115475000Y-66545670D01*
X117075000Y-71575000D02*
X115475000Y-71575000D01*
X118076601Y-65173700D02*
X118100000Y-65150301D01*
D56*
X117600000Y-74350000D02*
X117600000Y-73150000D01*
D57*
X118100000Y-65150301D02*
X118100000Y-64517700D01*
D56*
X117600000Y-73150000D02*
X117950000Y-72800000D01*
D57*
X116846970Y-65173700D02*
X118076601Y-65173700D01*
X117950000Y-72450000D02*
X117075000Y-71575000D01*
D56*
%TO.N,LNA_IN*%
X120151525Y-66171525D02*
X120080000Y-66100000D01*
D57*
X120080000Y-63862300D02*
X120017700Y-63800000D01*
D56*
X120080000Y-66100000D02*
X120080000Y-63951601D01*
X120100000Y-67100000D02*
X120151525Y-67048475D01*
X120080000Y-63951601D02*
X120017700Y-63951601D01*
X120151525Y-67048475D02*
X120151525Y-66171525D01*
%TO.N,Net-(D1-A)*%
X84465000Y-60569000D02*
X84465000Y-61352500D01*
X84884000Y-60150000D02*
X84465000Y-60569000D01*
X90350000Y-63100000D02*
X89850000Y-62600000D01*
X87856000Y-60715378D02*
X87856000Y-60150000D01*
X89740622Y-62600000D02*
X87856000Y-60715378D01*
X89850000Y-62600000D02*
X89740622Y-62600000D01*
X87856000Y-60150000D02*
X84884000Y-60150000D01*
X90350000Y-66350000D02*
X90350000Y-63100000D01*
D57*
%TO.N,USB_D+*%
X108520000Y-48320000D02*
X108520000Y-47100000D01*
X114025000Y-58451167D02*
X115037500Y-57438667D01*
X109607304Y-52575000D02*
X108912500Y-51880196D01*
X109187501Y-49650000D02*
X109850000Y-49650000D01*
X114025000Y-62770275D02*
X114025000Y-58451167D01*
X115772424Y-64517700D02*
X114025000Y-62770275D01*
X115037500Y-57438667D02*
X115037500Y-52819804D01*
X116900000Y-64517700D02*
X115772424Y-64517700D01*
X109850000Y-49650000D02*
X108520000Y-48320000D01*
X108912500Y-49925001D02*
X109187501Y-49650000D01*
X115037500Y-52819804D02*
X114792696Y-52575000D01*
X108912500Y-51880196D02*
X108912500Y-49925001D01*
X114792696Y-52575000D02*
X109607304Y-52575000D01*
%TO.N,USB_D-*%
X114262670Y-51550000D02*
X109850000Y-51550000D01*
X114375000Y-62625301D02*
X114375000Y-58596141D01*
X116182300Y-63800000D02*
X115549699Y-63800000D01*
X115549699Y-63800000D02*
X114375000Y-62625301D01*
X115450000Y-57521141D02*
X115450000Y-52737330D01*
X111225000Y-50858884D02*
X111225000Y-47265000D01*
X114375000Y-58596141D02*
X115450000Y-57521141D01*
X109850000Y-51550000D02*
X110533884Y-51550000D01*
X115450000Y-52737330D02*
X114262670Y-51550000D01*
X111225000Y-47265000D02*
X111060000Y-47100000D01*
X110533884Y-51550000D02*
X111225000Y-50858884D01*
%TO.N,Net-(U1A-XTAL_P)*%
X116850000Y-66350000D02*
X117676300Y-65523700D01*
X118221575Y-65523700D02*
X118499999Y-65245276D01*
X117676300Y-65523700D02*
X118221575Y-65523700D01*
X118499999Y-65245276D02*
X118499999Y-64517700D01*
D56*
%TO.N,Net-(Q1-C)*%
X102600000Y-51275000D02*
X100134816Y-51275000D01*
X100134816Y-51275000D02*
X97975000Y-53434816D01*
X96800000Y-54100000D02*
X95850000Y-53150000D01*
X97975000Y-53434816D02*
X97975000Y-54100000D01*
X97975000Y-54100000D02*
X96800000Y-54100000D01*
D57*
%TO.N,PWM_W*%
X99950000Y-54950000D02*
X99850000Y-55050000D01*
X118925000Y-60196298D02*
X119250000Y-59871298D01*
X118925000Y-60657301D02*
X118925000Y-60196298D01*
X118900001Y-60682300D02*
X118925000Y-60657301D01*
X99950000Y-54200000D02*
X99950000Y-54950000D01*
D56*
%TO.N,Net-(Q1-E)*%
X99975000Y-53025000D02*
X99850000Y-53150000D01*
X102350000Y-53025000D02*
X99975000Y-53025000D01*
%TO.N,Net-(Q2-C)*%
X106537500Y-52162500D02*
X106537500Y-53602684D01*
X109600000Y-54150000D02*
X110600000Y-53150000D01*
X110600000Y-53150000D02*
X114100000Y-53150000D01*
X105725000Y-51350000D02*
X106537500Y-52162500D01*
X104850000Y-51350000D02*
X105725000Y-51350000D01*
X107084816Y-54150000D02*
X109600000Y-54150000D01*
X106537500Y-53602684D02*
X107084816Y-54150000D01*
D57*
%TO.N,PWM_R*%
X118499999Y-60395980D02*
X118499999Y-60682300D01*
X107825000Y-53300000D02*
X107725000Y-53200000D01*
X118575000Y-58825000D02*
X118575000Y-60320978D01*
X118575000Y-60320978D02*
X118499999Y-60395980D01*
X118600000Y-58800000D02*
X118575000Y-58825000D01*
X108950000Y-53300000D02*
X107825000Y-53300000D01*
D56*
%TO.N,Net-(Q2-E)*%
X107725000Y-55100000D02*
X105600000Y-55100000D01*
X105600000Y-55100000D02*
X105350000Y-54850000D01*
%TO.N,Net-(Q3-C)*%
X109475000Y-80150000D02*
X110700000Y-80150000D01*
X114600000Y-84350000D02*
X114600000Y-83387501D01*
X112312499Y-81100000D02*
X111650000Y-81100000D01*
X110700000Y-80150000D02*
X111650000Y-81100000D01*
X114600000Y-83387501D02*
X112312499Y-81100000D01*
%TO.N,Net-(Q3-E)*%
X105350000Y-81100000D02*
X107600000Y-81100000D01*
D57*
%TO.N,PWM_G*%
X117450000Y-58600000D02*
X117450000Y-58966116D01*
X117843399Y-59359515D02*
X117843399Y-60007902D01*
X117700001Y-60151300D02*
X117700001Y-60682300D01*
X117843399Y-60007902D02*
X117700001Y-60151300D01*
X117450000Y-58966116D02*
X117843399Y-59359515D01*
D56*
%TO.N,Net-(Q4-C)*%
X97200000Y-81050000D02*
X93612500Y-81050000D01*
X91350000Y-81100000D02*
X93562500Y-81100000D01*
X93562500Y-81100000D02*
X93612500Y-81050000D01*
X98100000Y-80150000D02*
X97200000Y-81050000D01*
%TO.N,Net-(Q4-E)*%
X102350000Y-79275000D02*
X100050000Y-79275000D01*
X100050000Y-79275000D02*
X99975000Y-79200000D01*
D57*
%TO.N,PWM_B*%
X117244365Y-59800000D02*
X117299999Y-59855634D01*
X100550000Y-82100000D02*
X100550000Y-81675000D01*
X100550000Y-81675000D02*
X99975000Y-81100000D01*
X117299999Y-59855634D02*
X117299999Y-60682300D01*
%TO.N,Net-(U1A-GPIO2)*%
X118800000Y-51700000D02*
X118800000Y-51650000D01*
X120017700Y-61799999D02*
X120650301Y-61799999D01*
X118800000Y-51650000D02*
X118000000Y-50850000D01*
X120650301Y-61799999D02*
X120673700Y-61776600D01*
X120673700Y-61776600D02*
X120673700Y-60920516D01*
X120673700Y-60920516D02*
X120509788Y-60756604D01*
%TO.N,Net-(U1A-GPIO8)*%
X115350000Y-59132300D02*
X116900000Y-60682300D01*
X115350000Y-59000000D02*
X115350000Y-59132300D01*
X115392889Y-51392889D02*
X115392889Y-51796334D01*
X114350000Y-50350000D02*
X115392889Y-51392889D01*
D61*
%TO.N,Net-(U3-EN)*%
X102000000Y-84925000D02*
X104700000Y-84925000D01*
X104700000Y-84925000D02*
X105150000Y-85375000D01*
D56*
%TO.N,Net-(U3-FB)*%
X104675000Y-82625000D02*
X105150000Y-83100000D01*
X103550000Y-82725000D02*
X103650000Y-82625000D01*
X103550000Y-84125000D02*
X103550000Y-82725000D01*
D55*
X105125000Y-83125000D02*
X105150000Y-83100000D01*
D56*
X103650000Y-82625000D02*
X104675000Y-82625000D01*
D57*
%TO.N,CTRL*%
X82600000Y-68600000D02*
X82600000Y-66942500D01*
X115350000Y-61800000D02*
X115350001Y-61799999D01*
X115350001Y-61799999D02*
X116182300Y-61799999D01*
X82600000Y-66942500D02*
X83195000Y-66347500D01*
%TD*%
%TA.AperFunction,Conductor*%
%TO.N,Net-(D1-A)*%
G36*
X94293039Y-53619685D02*
G01*
X94338794Y-53672489D01*
X94350000Y-53724000D01*
X94350000Y-54317070D01*
X94333662Y-54378591D01*
X93350000Y-56099999D01*
X93350000Y-56100000D01*
X93350000Y-56350000D01*
X92850000Y-56350000D01*
X92850000Y-53724000D01*
X92869685Y-53656961D01*
X92922489Y-53611206D01*
X92974000Y-53600000D01*
X94226000Y-53600000D01*
X94293039Y-53619685D01*
G37*
%TD.AperFunction*%
%TD*%
%TA.AperFunction,Conductor*%
%TO.N,Net-(D4-K)*%
G36*
X94125000Y-73850000D02*
G01*
X92657972Y-73850000D01*
X92590933Y-73830315D01*
X92550218Y-73787360D01*
X92531892Y-73755178D01*
X92531889Y-73755175D01*
X92531888Y-73755172D01*
X92486133Y-73702368D01*
X92453359Y-73670743D01*
X92365024Y-73624535D01*
X92365023Y-73624534D01*
X92365022Y-73624534D01*
X92365022Y-73624533D01*
X92297990Y-73604851D01*
X92297978Y-73604848D01*
X92226001Y-73594500D01*
X92226000Y-73594500D01*
X89249000Y-73594500D01*
X89181961Y-73574815D01*
X89136206Y-73522011D01*
X89125000Y-73470500D01*
X89125000Y-67474000D01*
X89144685Y-67406961D01*
X89197489Y-67361206D01*
X89249000Y-67350000D01*
X94125000Y-67350000D01*
X94125000Y-73850000D01*
G37*
%TD.AperFunction*%
%TD*%
%TA.AperFunction,Conductor*%
%TO.N,Net-(D1-K)*%
G36*
X112543039Y-53670185D02*
G01*
X112588794Y-53722989D01*
X112600000Y-53774500D01*
X112600000Y-54600001D01*
X113310030Y-56020062D01*
X113322405Y-56088827D01*
X113295637Y-56153366D01*
X113286802Y-56163197D01*
X113099999Y-56350000D01*
X111100000Y-56350000D01*
X111100000Y-53774500D01*
X111119685Y-53707461D01*
X111172489Y-53661706D01*
X111224000Y-53650500D01*
X112476000Y-53650500D01*
X112543039Y-53670185D01*
G37*
%TD.AperFunction*%
%TD*%
%TA.AperFunction,Conductor*%
%TO.N,Net-(U3-SW)*%
G36*
X108993039Y-84745185D02*
G01*
X109038794Y-84797989D01*
X109050000Y-84849500D01*
X109050000Y-85501000D01*
X109030315Y-85568039D01*
X108977511Y-85613794D01*
X108926000Y-85625000D01*
X108150000Y-85625000D01*
X107650000Y-86374999D01*
X107650000Y-89701000D01*
X107630315Y-89768039D01*
X107577511Y-89813794D01*
X107526000Y-89825000D01*
X106274000Y-89825000D01*
X106206961Y-89805315D01*
X106161206Y-89752511D01*
X106150000Y-89701000D01*
X106150000Y-86662543D01*
X106169685Y-86595504D01*
X106170773Y-86593840D01*
X106371352Y-86292971D01*
X106418224Y-86251276D01*
X106488342Y-86215550D01*
X106578050Y-86125842D01*
X106635646Y-86012804D01*
X106635646Y-86012802D01*
X106635647Y-86012801D01*
X106650499Y-85919024D01*
X106650500Y-85919019D01*
X106650499Y-85018490D01*
X106670183Y-84951452D01*
X106686813Y-84930814D01*
X106855811Y-84761816D01*
X106917133Y-84728334D01*
X106943491Y-84725500D01*
X108926000Y-84725500D01*
X108993039Y-84745185D01*
G37*
%TD.AperFunction*%
%TD*%
%TA.AperFunction,Conductor*%
%TO.N,Net-(D2-A)*%
G36*
X114850000Y-78093812D02*
G01*
X114849385Y-78106150D01*
X114611166Y-80488338D01*
X114584908Y-80553087D01*
X114527813Y-80593360D01*
X114487781Y-80600000D01*
X113224000Y-80600000D01*
X113156961Y-80580315D01*
X113111206Y-80527511D01*
X113100000Y-80476000D01*
X113100000Y-79889738D01*
X113119685Y-79822699D01*
X113123097Y-79817664D01*
X114350000Y-78100000D01*
X114350000Y-77850000D01*
X114850000Y-77850000D01*
X114850000Y-78093812D01*
G37*
%TD.AperFunction*%
%TD*%
%TA.AperFunction,Conductor*%
%TO.N,Net-(D3-K)*%
G36*
X106293039Y-67369685D02*
G01*
X106338794Y-67422489D01*
X106350000Y-67474000D01*
X106350000Y-70600000D01*
X113350000Y-77600000D01*
X110850000Y-77600000D01*
X110850000Y-78100000D01*
X96600000Y-78100000D01*
X96600000Y-77850000D01*
X95350000Y-77850000D01*
X102350000Y-70850000D01*
X102350000Y-67474000D01*
X102369685Y-67406961D01*
X102422489Y-67361206D01*
X102474000Y-67350000D01*
X106226000Y-67350000D01*
X106293039Y-67369685D01*
G37*
%TD.AperFunction*%
%TD*%
%TA.AperFunction,Conductor*%
%TO.N,24V*%
G36*
X104834027Y-42620319D02*
G01*
X104838954Y-42620517D01*
X105818919Y-42679794D01*
X105823864Y-42680193D01*
X105988917Y-42696869D01*
X106053638Y-42723193D01*
X106093853Y-42780328D01*
X106099190Y-42837886D01*
X106094500Y-42870506D01*
X106094500Y-43603200D01*
X106074815Y-43670239D01*
X106022011Y-43715994D01*
X105970500Y-43727200D01*
X105203023Y-43727200D01*
X105129964Y-43741732D01*
X105129960Y-43741733D01*
X105047099Y-43797099D01*
X104991733Y-43879960D01*
X104991732Y-43879964D01*
X104977200Y-43953021D01*
X104977200Y-45246978D01*
X104991732Y-45320035D01*
X104991733Y-45320039D01*
X104991734Y-45320040D01*
X105047099Y-45402901D01*
X105129960Y-45458266D01*
X105129964Y-45458267D01*
X105203021Y-45472799D01*
X105203024Y-45472800D01*
X105203026Y-45472800D01*
X106049388Y-45472800D01*
X106116427Y-45492485D01*
X106162182Y-45545289D01*
X106172126Y-45614447D01*
X106159264Y-45654272D01*
X106135067Y-45700529D01*
X106124533Y-45720667D01*
X106104851Y-45787697D01*
X106104848Y-45787709D01*
X106094500Y-45859686D01*
X106094500Y-49936013D01*
X106097320Y-49973858D01*
X106102770Y-50010226D01*
X106103101Y-50012162D01*
X106094991Y-50081560D01*
X106056360Y-50131427D01*
X105957381Y-50207377D01*
X105869137Y-50322377D01*
X105813671Y-50456287D01*
X105813669Y-50456295D01*
X105812246Y-50467100D01*
X105783976Y-50530995D01*
X105725649Y-50569462D01*
X105655784Y-50570289D01*
X105645976Y-50567089D01*
X105582485Y-50543409D01*
X105582483Y-50543408D01*
X105522883Y-50537001D01*
X105522881Y-50537000D01*
X105522873Y-50537000D01*
X105522864Y-50537000D01*
X104177129Y-50537000D01*
X104177123Y-50537001D01*
X104117516Y-50543408D01*
X103982671Y-50593702D01*
X103982664Y-50593706D01*
X103867455Y-50679952D01*
X103867452Y-50679955D01*
X103852336Y-50700147D01*
X103796401Y-50742017D01*
X103726709Y-50746998D01*
X103665387Y-50713511D01*
X103653806Y-50700144D01*
X103582547Y-50604955D01*
X103582544Y-50604952D01*
X103467335Y-50518706D01*
X103467328Y-50518702D01*
X103332482Y-50468408D01*
X103332483Y-50468408D01*
X103272883Y-50462001D01*
X103272881Y-50462000D01*
X103272873Y-50462000D01*
X103272864Y-50462000D01*
X101927129Y-50462000D01*
X101927123Y-50462001D01*
X101867516Y-50468408D01*
X101732671Y-50518702D01*
X101732664Y-50518706D01*
X101617455Y-50604952D01*
X101617452Y-50604955D01*
X101527728Y-50724811D01*
X101471794Y-50766682D01*
X101428462Y-50774500D01*
X100068923Y-50774500D01*
X99941628Y-50808608D01*
X99827502Y-50874500D01*
X99827499Y-50874502D01*
X97574502Y-53127499D01*
X97574500Y-53127502D01*
X97508608Y-53241628D01*
X97474500Y-53368924D01*
X97474500Y-53425548D01*
X97454815Y-53492587D01*
X97402011Y-53538342D01*
X97360237Y-53549165D01*
X97355993Y-53549499D01*
X97262194Y-53564354D01*
X97219743Y-53585985D01*
X97163448Y-53599500D01*
X97058676Y-53599500D01*
X96991637Y-53579815D01*
X96970995Y-53563181D01*
X96799318Y-53391504D01*
X96765833Y-53330181D01*
X96762999Y-53303831D01*
X96762999Y-52968482D01*
X96748146Y-52874696D01*
X96690550Y-52761658D01*
X96690546Y-52761654D01*
X96690545Y-52761652D01*
X96600847Y-52671954D01*
X96600844Y-52671952D01*
X96600842Y-52671950D01*
X96524017Y-52632805D01*
X96487801Y-52614352D01*
X96394024Y-52599500D01*
X95305982Y-52599500D01*
X95225019Y-52612323D01*
X95212196Y-52614354D01*
X95099158Y-52671950D01*
X95099157Y-52671951D01*
X95099152Y-52671954D01*
X95009454Y-52761652D01*
X95009451Y-52761657D01*
X95009450Y-52761658D01*
X94990251Y-52799337D01*
X94951852Y-52874698D01*
X94937000Y-52968475D01*
X94937000Y-53331517D01*
X94944183Y-53376870D01*
X94951854Y-53425304D01*
X95009450Y-53538342D01*
X95009452Y-53538344D01*
X95009454Y-53538347D01*
X95099152Y-53628045D01*
X95099154Y-53628046D01*
X95099158Y-53628050D01*
X95212196Y-53685646D01*
X95212198Y-53685647D01*
X95305975Y-53700499D01*
X95305981Y-53700500D01*
X95641323Y-53700499D01*
X95708362Y-53720183D01*
X95729004Y-53736818D01*
X96125005Y-54132819D01*
X96158490Y-54194142D01*
X96153506Y-54263834D01*
X96111634Y-54319767D01*
X96046170Y-54344184D01*
X96037324Y-54344500D01*
X95158078Y-54344500D01*
X95119292Y-54347462D01*
X95119287Y-54347462D01*
X95119281Y-54347463D01*
X95119275Y-54347463D01*
X95119265Y-54347465D01*
X95082068Y-54353179D01*
X95070661Y-54355197D01*
X95070654Y-54355199D01*
X94978613Y-54393476D01*
X94920574Y-54432373D01*
X94866539Y-54481047D01*
X94789306Y-54573727D01*
X94731266Y-54612626D01*
X94661409Y-54613971D01*
X94601915Y-54577335D01*
X94571672Y-54514350D01*
X94579332Y-54447263D01*
X94580602Y-54444170D01*
X94596940Y-54382649D01*
X94605500Y-54317070D01*
X94605500Y-53724000D01*
X94599661Y-53669687D01*
X94588455Y-53618176D01*
X94581219Y-53591802D01*
X94576815Y-53584068D01*
X94531894Y-53505181D01*
X94531890Y-53505176D01*
X94531888Y-53505172D01*
X94496097Y-53463867D01*
X94486136Y-53452371D01*
X94483553Y-53449879D01*
X94453359Y-53420743D01*
X94365024Y-53374535D01*
X94365023Y-53374534D01*
X94365022Y-53374534D01*
X94365022Y-53374533D01*
X94297990Y-53354851D01*
X94297978Y-53354848D01*
X94226001Y-53344500D01*
X94226000Y-53344500D01*
X92974000Y-53344500D01*
X92973997Y-53344500D01*
X92919687Y-53350338D01*
X92868181Y-53361543D01*
X92868172Y-53361546D01*
X92841807Y-53368779D01*
X92841796Y-53368783D01*
X92755181Y-53418105D01*
X92755173Y-53418111D01*
X92702371Y-53463863D01*
X92670743Y-53496640D01*
X92624534Y-53584977D01*
X92624533Y-53584977D01*
X92604851Y-53652009D01*
X92604848Y-53652021D01*
X92594500Y-53723998D01*
X92594500Y-54297255D01*
X92574815Y-54364294D01*
X92522011Y-54410049D01*
X92452853Y-54419993D01*
X92396189Y-54396522D01*
X92342331Y-54356204D01*
X92342328Y-54356202D01*
X92207482Y-54305908D01*
X92207483Y-54305908D01*
X92147883Y-54299501D01*
X92147881Y-54299500D01*
X92147873Y-54299500D01*
X92147864Y-54299500D01*
X89052129Y-54299500D01*
X89052123Y-54299501D01*
X88992516Y-54305908D01*
X88857671Y-54356202D01*
X88857664Y-54356206D01*
X88742455Y-54442452D01*
X88742452Y-54442455D01*
X88656206Y-54557664D01*
X88656202Y-54557671D01*
X88605908Y-54692517D01*
X88599501Y-54752116D01*
X88599500Y-54752135D01*
X88599500Y-55947870D01*
X88599501Y-55947876D01*
X88605908Y-56007483D01*
X88656202Y-56142328D01*
X88656206Y-56142335D01*
X88742452Y-56257544D01*
X88742455Y-56257547D01*
X88857664Y-56343793D01*
X88857671Y-56343797D01*
X88992517Y-56394091D01*
X88992516Y-56394091D01*
X88999444Y-56394835D01*
X89052127Y-56400500D01*
X89929620Y-56400499D01*
X89996659Y-56420183D01*
X90042414Y-56472987D01*
X90052559Y-56540685D01*
X90044750Y-56599999D01*
X90044750Y-56600000D01*
X90063670Y-56743708D01*
X90063671Y-56743712D01*
X90119137Y-56877622D01*
X90119138Y-56877624D01*
X90119139Y-56877625D01*
X90207379Y-56992621D01*
X90322375Y-57080861D01*
X90456291Y-57136330D01*
X90583280Y-57153048D01*
X90599999Y-57155250D01*
X90600000Y-57155250D01*
X90600001Y-57155250D01*
X90614977Y-57153278D01*
X90743709Y-57136330D01*
X90877625Y-57080861D01*
X90992621Y-56992621D01*
X91080861Y-56877625D01*
X91136330Y-56743709D01*
X91155250Y-56600000D01*
X91151432Y-56571003D01*
X91147441Y-56540685D01*
X91158206Y-56471649D01*
X91204586Y-56419393D01*
X91270380Y-56400499D01*
X92147871Y-56400499D01*
X92147872Y-56400499D01*
X92207483Y-56394091D01*
X92207484Y-56394090D01*
X92212746Y-56393525D01*
X92281506Y-56405932D01*
X92332642Y-56453543D01*
X92350000Y-56516815D01*
X92350000Y-61176000D01*
X92330315Y-61243039D01*
X92277511Y-61288794D01*
X92226000Y-61300000D01*
X89199798Y-61300000D01*
X89132759Y-61280315D01*
X89112117Y-61263681D01*
X88392819Y-60544383D01*
X88359334Y-60483060D01*
X88356500Y-60456702D01*
X88356500Y-60084110D01*
X88356500Y-60084108D01*
X88322392Y-59956814D01*
X88256500Y-59842686D01*
X88163314Y-59749500D01*
X88106250Y-59716554D01*
X88049187Y-59683608D01*
X87985539Y-59666554D01*
X87921892Y-59649500D01*
X84949892Y-59649500D01*
X84818107Y-59649500D01*
X84690812Y-59683608D01*
X84576686Y-59749500D01*
X84576683Y-59749502D01*
X84064502Y-60261683D01*
X84064497Y-60261689D01*
X84038578Y-60306582D01*
X83988010Y-60354797D01*
X83977211Y-60358574D01*
X83977538Y-60359363D01*
X83966255Y-60364035D01*
X83898888Y-60409048D01*
X83832211Y-60429925D01*
X83764831Y-60411440D01*
X83761109Y-60409048D01*
X83693739Y-60364033D01*
X83693735Y-60364032D01*
X83620677Y-60349500D01*
X83620674Y-60349500D01*
X82769326Y-60349500D01*
X82769323Y-60349500D01*
X82696264Y-60364032D01*
X82696260Y-60364033D01*
X82613399Y-60419399D01*
X82558033Y-60502260D01*
X82558032Y-60502264D01*
X82543500Y-60575321D01*
X82543500Y-62129678D01*
X82558032Y-62202735D01*
X82558033Y-62202739D01*
X82576405Y-62230235D01*
X82613399Y-62285601D01*
X82696260Y-62340966D01*
X82696264Y-62340967D01*
X82769321Y-62355499D01*
X82769324Y-62355500D01*
X82769326Y-62355500D01*
X82979893Y-62355500D01*
X83046932Y-62375185D01*
X83092687Y-62427989D01*
X83102631Y-62497147D01*
X83101510Y-62503692D01*
X83098500Y-62518823D01*
X83098500Y-62518826D01*
X83098500Y-65181174D01*
X83098500Y-65181176D01*
X83098499Y-65181176D01*
X83101510Y-65196308D01*
X83095283Y-65265900D01*
X83052421Y-65321077D01*
X82986531Y-65344322D01*
X82979893Y-65344500D01*
X82769323Y-65344500D01*
X82696264Y-65359032D01*
X82696260Y-65359033D01*
X82613399Y-65414399D01*
X82558033Y-65497260D01*
X82558032Y-65497264D01*
X82543500Y-65570321D01*
X82543500Y-66487311D01*
X82523815Y-66554350D01*
X82507181Y-66574992D01*
X82339537Y-66742635D01*
X82339533Y-66742641D01*
X82296681Y-66816862D01*
X82296680Y-66816862D01*
X82276385Y-66892613D01*
X82276384Y-66892618D01*
X82274500Y-66899648D01*
X82274500Y-68094725D01*
X82254815Y-68161764D01*
X82225989Y-68193099D01*
X82207380Y-68207378D01*
X82119137Y-68322377D01*
X82063671Y-68456287D01*
X82063670Y-68456291D01*
X82050505Y-68556291D01*
X82044750Y-68600000D01*
X82061639Y-68728286D01*
X82063670Y-68743708D01*
X82063671Y-68743712D01*
X82119137Y-68877622D01*
X82119138Y-68877624D01*
X82119139Y-68877625D01*
X82207379Y-68992621D01*
X82322375Y-69080861D01*
X82456291Y-69136330D01*
X82583280Y-69153048D01*
X82599999Y-69155250D01*
X82600000Y-69155250D01*
X82600001Y-69155250D01*
X82614977Y-69153278D01*
X82743709Y-69136330D01*
X82877625Y-69080861D01*
X82992621Y-68992621D01*
X83080861Y-68877625D01*
X83136330Y-68743709D01*
X83155250Y-68600000D01*
X83136330Y-68456291D01*
X83080861Y-68322375D01*
X82992621Y-68207379D01*
X82974010Y-68193098D01*
X82932810Y-68136670D01*
X82925500Y-68094725D01*
X82925500Y-67474500D01*
X82945185Y-67407461D01*
X82997989Y-67361706D01*
X83049500Y-67350500D01*
X83620676Y-67350500D01*
X83620677Y-67350499D01*
X83693740Y-67335966D01*
X83776601Y-67280601D01*
X83831966Y-67197740D01*
X83846500Y-67124674D01*
X83846500Y-65570326D01*
X83846500Y-65570323D01*
X83843490Y-65555192D01*
X83849717Y-65485600D01*
X83892579Y-65430423D01*
X83958469Y-65407178D01*
X83965107Y-65407000D01*
X84964893Y-65407000D01*
X85031932Y-65426685D01*
X85077687Y-65479489D01*
X85087631Y-65548647D01*
X85086510Y-65555192D01*
X85083500Y-65570323D01*
X85083500Y-67124678D01*
X85098032Y-67197735D01*
X85098033Y-67197739D01*
X85108230Y-67213000D01*
X85153399Y-67280601D01*
X85236260Y-67335966D01*
X85275192Y-67343710D01*
X85337101Y-67376094D01*
X85371676Y-67436809D01*
X85375000Y-67465327D01*
X85375000Y-69249119D01*
X85355315Y-69316158D01*
X85302511Y-69361913D01*
X85233353Y-69371857D01*
X85207669Y-69365302D01*
X85182481Y-69355908D01*
X85182483Y-69355908D01*
X85122883Y-69349501D01*
X85122881Y-69349500D01*
X85122873Y-69349500D01*
X85122864Y-69349500D01*
X84077129Y-69349500D01*
X84077123Y-69349501D01*
X84017516Y-69355908D01*
X83882671Y-69406202D01*
X83882664Y-69406206D01*
X83767455Y-69492452D01*
X83767452Y-69492455D01*
X83681206Y-69607664D01*
X83681202Y-69607671D01*
X83639531Y-69719399D01*
X83630909Y-69742517D01*
X83624500Y-69802127D01*
X83624500Y-69802134D01*
X83624500Y-69802135D01*
X83624500Y-70397870D01*
X83624501Y-70397876D01*
X83630908Y-70457483D01*
X83681202Y-70592328D01*
X83681206Y-70592335D01*
X83767452Y-70707544D01*
X83767455Y-70707547D01*
X83882664Y-70793793D01*
X83882671Y-70793797D01*
X83983099Y-70831254D01*
X84039033Y-70873125D01*
X84063450Y-70938589D01*
X84062705Y-70963620D01*
X84044750Y-71100000D01*
X84063635Y-71243446D01*
X84063670Y-71243708D01*
X84063671Y-71243712D01*
X84119137Y-71377622D01*
X84119138Y-71377624D01*
X84119139Y-71377625D01*
X84207379Y-71492621D01*
X84322375Y-71580861D01*
X84456291Y-71636330D01*
X84583280Y-71653048D01*
X84599999Y-71655250D01*
X84600000Y-71655250D01*
X84600001Y-71655250D01*
X84614977Y-71653278D01*
X84743709Y-71636330D01*
X84877625Y-71580861D01*
X84992621Y-71492621D01*
X85080861Y-71377625D01*
X85136330Y-71243709D01*
X85136330Y-71243708D01*
X85136439Y-71243446D01*
X85180279Y-71189042D01*
X85246573Y-71166977D01*
X85314273Y-71184256D01*
X85361884Y-71235393D01*
X85375000Y-71290898D01*
X85375000Y-74490826D01*
X85374572Y-74498798D01*
X85374678Y-74498804D01*
X85374500Y-74502128D01*
X85374500Y-75897863D01*
X85374679Y-75901180D01*
X85374572Y-75901185D01*
X85375000Y-75909156D01*
X85375000Y-77100000D01*
X88625000Y-77100000D01*
X88625001Y-77100000D01*
X88625000Y-77099999D01*
X88623008Y-76841105D01*
X88600961Y-73974953D01*
X88620129Y-73907765D01*
X88672579Y-73861605D01*
X88724957Y-73850000D01*
X92226000Y-73850000D01*
X92293039Y-73869685D01*
X92338794Y-73922489D01*
X92350000Y-73974000D01*
X92350000Y-77100000D01*
X92350000Y-78600000D01*
X92470500Y-78600000D01*
X92537539Y-78619685D01*
X92583294Y-78672489D01*
X92594500Y-78724000D01*
X92594500Y-79476002D01*
X92600338Y-79530312D01*
X92611543Y-79581818D01*
X92611545Y-79581824D01*
X92612516Y-79585364D01*
X92618779Y-79608192D01*
X92618783Y-79608203D01*
X92668105Y-79694818D01*
X92668110Y-79694825D01*
X92668112Y-79694828D01*
X92678988Y-79707379D01*
X92713863Y-79747628D01*
X92713866Y-79747631D01*
X92713867Y-79747632D01*
X92746641Y-79779257D01*
X92834976Y-79825465D01*
X92834977Y-79825465D01*
X92834977Y-79825466D01*
X92879218Y-79838456D01*
X92902015Y-79845150D01*
X92902019Y-79845150D01*
X92902021Y-79845151D01*
X92912420Y-79846646D01*
X92974000Y-79855500D01*
X92974001Y-79855500D01*
X94476000Y-79855500D01*
X94530313Y-79849661D01*
X94581824Y-79838455D01*
X94608198Y-79831219D01*
X94659141Y-79802209D01*
X94727136Y-79786142D01*
X94793026Y-79809386D01*
X94835890Y-79864563D01*
X94844500Y-79909964D01*
X94844500Y-80425500D01*
X94824815Y-80492539D01*
X94772011Y-80538294D01*
X94720500Y-80549500D01*
X94349052Y-80549500D01*
X94292758Y-80535985D01*
X94250301Y-80514352D01*
X94156524Y-80499500D01*
X93068482Y-80499500D01*
X92987519Y-80512323D01*
X92974696Y-80514354D01*
X92861658Y-80571950D01*
X92861657Y-80571950D01*
X92861653Y-80571953D01*
X92856329Y-80575821D01*
X92790522Y-80599298D01*
X92783448Y-80599500D01*
X92521538Y-80599500D01*
X92454499Y-80579815D01*
X92422272Y-80549811D01*
X92332547Y-80429955D01*
X92332544Y-80429952D01*
X92217335Y-80343706D01*
X92217328Y-80343702D01*
X92082482Y-80293408D01*
X92082483Y-80293408D01*
X92022883Y-80287001D01*
X92022881Y-80287000D01*
X92022873Y-80287000D01*
X92022864Y-80287000D01*
X90677129Y-80287000D01*
X90677123Y-80287001D01*
X90617516Y-80293408D01*
X90482671Y-80343702D01*
X90482664Y-80343706D01*
X90367455Y-80429952D01*
X90367452Y-80429955D01*
X90281206Y-80545164D01*
X90281202Y-80545171D01*
X90230910Y-80680013D01*
X90230909Y-80680017D01*
X90224500Y-80739627D01*
X90224500Y-80739634D01*
X90224500Y-80739635D01*
X90224500Y-81460370D01*
X90224501Y-81460376D01*
X90230908Y-81519983D01*
X90281202Y-81654828D01*
X90281206Y-81654835D01*
X90367452Y-81770044D01*
X90367455Y-81770047D01*
X90482664Y-81856293D01*
X90482671Y-81856297D01*
X90617517Y-81906591D01*
X90617516Y-81906591D01*
X90624444Y-81907335D01*
X90677127Y-81913000D01*
X92022872Y-81912999D01*
X92082483Y-81906591D01*
X92217331Y-81856296D01*
X92332546Y-81770046D01*
X92379459Y-81707379D01*
X92422272Y-81650189D01*
X92478206Y-81608318D01*
X92521538Y-81600500D01*
X93653055Y-81600500D01*
X93653059Y-81600499D01*
X94156517Y-81600499D01*
X94156518Y-81600499D01*
X94250304Y-81585646D01*
X94292757Y-81564014D01*
X94349052Y-81550500D01*
X97265890Y-81550500D01*
X97265892Y-81550500D01*
X97393186Y-81516392D01*
X97507314Y-81450500D01*
X98220994Y-80736817D01*
X98282317Y-80703333D01*
X98308675Y-80700499D01*
X98719017Y-80700499D01*
X98719018Y-80700499D01*
X98812804Y-80685646D01*
X98826773Y-80678528D01*
X98895438Y-80665632D01*
X98960179Y-80691907D01*
X99000437Y-80749012D01*
X99003268Y-80815039D01*
X99003380Y-80815057D01*
X99003293Y-80815605D01*
X99003431Y-80818818D01*
X99001981Y-80823888D01*
X98987000Y-80918475D01*
X98987000Y-81281517D01*
X98993253Y-81320994D01*
X99001854Y-81375304D01*
X99059450Y-81488342D01*
X99059452Y-81488344D01*
X99059454Y-81488347D01*
X99149152Y-81578045D01*
X99149154Y-81578046D01*
X99149158Y-81578050D01*
X99250381Y-81629626D01*
X99262198Y-81635647D01*
X99349616Y-81649491D01*
X99354017Y-81650189D01*
X99355975Y-81650499D01*
X99355981Y-81650500D01*
X99954753Y-81650499D01*
X100021792Y-81670183D01*
X100067547Y-81722987D01*
X100077491Y-81792146D01*
X100069314Y-81821951D01*
X100013671Y-81956287D01*
X100013670Y-81956291D01*
X99994750Y-82099999D01*
X99994750Y-82100000D01*
X100013670Y-82243708D01*
X100013671Y-82243712D01*
X100069137Y-82377622D01*
X100069138Y-82377624D01*
X100069139Y-82377625D01*
X100157379Y-82492621D01*
X100272375Y-82580861D01*
X100406291Y-82636330D01*
X100533280Y-82653048D01*
X100549999Y-82655250D01*
X100550000Y-82655250D01*
X100550001Y-82655250D01*
X100564977Y-82653278D01*
X100693709Y-82636330D01*
X100827625Y-82580861D01*
X100942621Y-82492621D01*
X101030861Y-82377625D01*
X101086330Y-82243709D01*
X101105250Y-82100000D01*
X101086330Y-81956291D01*
X101030861Y-81822375D01*
X100942621Y-81707379D01*
X100916893Y-81687637D01*
X100875693Y-81631210D01*
X100872613Y-81621375D01*
X100866711Y-81599346D01*
X100868374Y-81529500D01*
X100886176Y-81494360D01*
X100890542Y-81488349D01*
X100890550Y-81488342D01*
X100948146Y-81375304D01*
X100948146Y-81375302D01*
X100948147Y-81375301D01*
X100962999Y-81281524D01*
X100963000Y-81281519D01*
X100962999Y-80918482D01*
X100948146Y-80824696D01*
X100890550Y-80711658D01*
X100890546Y-80711654D01*
X100890545Y-80711652D01*
X100800847Y-80621954D01*
X100800844Y-80621952D01*
X100800842Y-80621950D01*
X100718148Y-80579815D01*
X100687801Y-80564352D01*
X100594024Y-80549500D01*
X99355982Y-80549500D01*
X99262196Y-80564354D01*
X99248224Y-80571473D01*
X99179555Y-80584367D01*
X99114815Y-80558088D01*
X99074560Y-80500981D01*
X99071732Y-80434960D01*
X99071620Y-80434943D01*
X99071707Y-80434389D01*
X99071570Y-80431175D01*
X99073019Y-80426105D01*
X99073418Y-80423588D01*
X99088000Y-80331519D01*
X99087999Y-79968482D01*
X99073146Y-79874696D01*
X99073145Y-79874694D01*
X99071619Y-79865057D01*
X99073642Y-79864736D01*
X99072006Y-79807494D01*
X99108084Y-79747660D01*
X99170784Y-79716830D01*
X99240198Y-79724792D01*
X99248208Y-79728519D01*
X99262196Y-79735646D01*
X99262198Y-79735646D01*
X99262200Y-79735647D01*
X99262198Y-79735647D01*
X99355975Y-79750499D01*
X99355981Y-79750500D01*
X99874478Y-79750499D01*
X99906571Y-79754724D01*
X99919477Y-79758182D01*
X99984108Y-79775500D01*
X100115892Y-79775500D01*
X101390893Y-79775500D01*
X101457932Y-79795185D01*
X101490156Y-79825185D01*
X101542454Y-79895046D01*
X101542455Y-79895046D01*
X101542456Y-79895048D01*
X101657664Y-79981293D01*
X101657671Y-79981297D01*
X101792517Y-80031591D01*
X101792516Y-80031591D01*
X101799444Y-80032335D01*
X101852127Y-80038000D01*
X102847872Y-80037999D01*
X102897629Y-80032650D01*
X102966387Y-80045056D01*
X103017524Y-80092667D01*
X103034803Y-80160367D01*
X103012738Y-80226661D01*
X102998563Y-80243621D01*
X102941370Y-80300814D01*
X102880047Y-80334299D01*
X102851193Y-80336626D01*
X102851193Y-80337000D01*
X101852129Y-80337000D01*
X101852123Y-80337001D01*
X101792516Y-80343408D01*
X101657671Y-80393702D01*
X101657664Y-80393706D01*
X101542455Y-80479952D01*
X101542452Y-80479955D01*
X101456206Y-80595164D01*
X101456202Y-80595171D01*
X101412756Y-80711658D01*
X101405909Y-80730017D01*
X101399500Y-80789627D01*
X101399500Y-80789634D01*
X101399500Y-80789635D01*
X101399500Y-81410370D01*
X101399501Y-81410376D01*
X101405908Y-81469983D01*
X101456203Y-81604828D01*
X101456204Y-81604831D01*
X101468576Y-81621357D01*
X101474766Y-81629626D01*
X101499184Y-81695090D01*
X101499500Y-81703938D01*
X101499500Y-81957711D01*
X101479815Y-82024750D01*
X101475271Y-82031344D01*
X101397207Y-82137118D01*
X101397206Y-82137119D01*
X101352353Y-82265298D01*
X101352353Y-82265300D01*
X101349500Y-82295730D01*
X101349500Y-82954269D01*
X101352353Y-82984699D01*
X101352353Y-82984701D01*
X101392541Y-83099548D01*
X101397207Y-83112882D01*
X101477850Y-83222150D01*
X101587118Y-83302793D01*
X101603931Y-83308676D01*
X101715299Y-83347646D01*
X101745730Y-83350500D01*
X101745734Y-83350500D01*
X102254270Y-83350500D01*
X102284699Y-83347646D01*
X102284701Y-83347646D01*
X102348790Y-83325219D01*
X102412882Y-83302793D01*
X102522150Y-83222150D01*
X102602793Y-83112882D01*
X102637486Y-83013736D01*
X102647646Y-82984701D01*
X102647646Y-82984699D01*
X102650500Y-82954269D01*
X102650500Y-82295730D01*
X102647646Y-82265300D01*
X102647646Y-82265298D01*
X102602793Y-82137119D01*
X102602793Y-82137118D01*
X102546343Y-82060631D01*
X102522374Y-81995003D01*
X102537690Y-81926833D01*
X102587430Y-81877765D01*
X102646115Y-81862999D01*
X102847871Y-81862999D01*
X102847872Y-81862999D01*
X102907483Y-81856591D01*
X102997987Y-81822834D01*
X103067678Y-81817851D01*
X103116589Y-81844558D01*
X103114282Y-81840120D01*
X103120687Y-81770544D01*
X103153109Y-81728151D01*
X103151275Y-81726317D01*
X103157542Y-81720048D01*
X103157546Y-81720046D01*
X103243796Y-81604831D01*
X103294091Y-81469983D01*
X103300500Y-81410373D01*
X103300499Y-81408696D01*
X103300609Y-81408322D01*
X103300677Y-81407066D01*
X103300855Y-81407075D01*
X103300856Y-81407069D01*
X103300973Y-81407081D01*
X103320170Y-81341656D01*
X103336813Y-81320999D01*
X104023683Y-80634129D01*
X104063907Y-80607252D01*
X104127625Y-80580861D01*
X104242621Y-80492621D01*
X104242621Y-80492620D01*
X104249068Y-80487674D01*
X104250192Y-80489139D01*
X104302498Y-80460570D01*
X104372190Y-80465546D01*
X104378412Y-80470202D01*
X104353028Y-80444819D01*
X104338176Y-80376546D01*
X104347298Y-80337941D01*
X104347843Y-80336626D01*
X104357251Y-80313910D01*
X104384129Y-80273683D01*
X104615049Y-80042763D01*
X104676370Y-80009280D01*
X104746060Y-80014263D01*
X104792517Y-80031591D01*
X104852127Y-80038000D01*
X105847872Y-80037999D01*
X105907483Y-80031591D01*
X106042331Y-79981296D01*
X106157546Y-79895046D01*
X106243796Y-79779831D01*
X106294091Y-79644983D01*
X106300500Y-79585373D01*
X106300499Y-78964628D01*
X106294091Y-78905017D01*
X106282709Y-78874499D01*
X106242739Y-78767333D01*
X106237755Y-78697641D01*
X106271240Y-78636318D01*
X106332564Y-78602834D01*
X106358921Y-78600000D01*
X106596745Y-78600000D01*
X106663784Y-78619685D01*
X106709539Y-78672489D01*
X106719483Y-78741647D01*
X106690458Y-78805203D01*
X106684461Y-78811643D01*
X106684451Y-78811657D01*
X106626852Y-78924698D01*
X106612000Y-79018475D01*
X106612000Y-79381517D01*
X106622792Y-79449657D01*
X106626854Y-79475304D01*
X106684450Y-79588342D01*
X106684452Y-79588344D01*
X106684454Y-79588347D01*
X106774152Y-79678045D01*
X106774154Y-79678046D01*
X106774158Y-79678050D01*
X106887196Y-79735646D01*
X106887198Y-79735647D01*
X106980975Y-79750499D01*
X106980981Y-79750500D01*
X108219018Y-79750499D01*
X108219022Y-79750499D01*
X108267676Y-79742793D01*
X108336970Y-79751748D01*
X108362561Y-79766891D01*
X108443456Y-79828965D01*
X108484659Y-79885393D01*
X108490443Y-79946734D01*
X108487000Y-79968476D01*
X108487000Y-80331517D01*
X108488931Y-80343706D01*
X108501582Y-80423588D01*
X108503381Y-80434943D01*
X108501357Y-80435263D01*
X108502990Y-80492516D01*
X108466907Y-80552347D01*
X108404204Y-80583171D01*
X108334790Y-80575203D01*
X108326780Y-80571475D01*
X108312804Y-80564354D01*
X108312803Y-80564353D01*
X108312800Y-80564352D01*
X108312801Y-80564352D01*
X108219024Y-80549500D01*
X106980982Y-80549500D01*
X106887194Y-80564354D01*
X106844743Y-80585985D01*
X106788448Y-80599500D01*
X106309107Y-80599500D01*
X106242068Y-80579815D01*
X106209843Y-80549814D01*
X106157546Y-80479954D01*
X106157544Y-80479952D01*
X106157543Y-80479951D01*
X106042335Y-80393706D01*
X106042328Y-80393702D01*
X105907482Y-80343408D01*
X105907483Y-80343408D01*
X105847883Y-80337001D01*
X105847881Y-80337000D01*
X105847873Y-80337000D01*
X105847864Y-80337000D01*
X104852129Y-80337000D01*
X104852123Y-80337001D01*
X104792516Y-80343408D01*
X104657671Y-80393702D01*
X104657664Y-80393706D01*
X104536171Y-80484657D01*
X104470707Y-80509075D01*
X104413817Y-80496700D01*
X104428129Y-80507411D01*
X104452553Y-80572873D01*
X104445052Y-80625065D01*
X104405910Y-80730011D01*
X104405910Y-80730013D01*
X104405909Y-80730017D01*
X104399500Y-80789627D01*
X104399500Y-80789634D01*
X104399500Y-80789635D01*
X104399500Y-81410370D01*
X104399501Y-81410376D01*
X104405908Y-81469983D01*
X104456202Y-81604828D01*
X104456206Y-81604835D01*
X104542452Y-81720044D01*
X104542455Y-81720047D01*
X104657664Y-81806293D01*
X104657671Y-81806297D01*
X104792517Y-81856591D01*
X104792516Y-81856591D01*
X104799444Y-81857335D01*
X104852127Y-81863000D01*
X105847872Y-81862999D01*
X105907483Y-81856591D01*
X106042331Y-81806296D01*
X106157546Y-81720046D01*
X106209842Y-81650187D01*
X106265774Y-81608318D01*
X106309107Y-81600500D01*
X106788448Y-81600500D01*
X106844742Y-81614015D01*
X106887198Y-81635647D01*
X106974616Y-81649491D01*
X106979017Y-81650189D01*
X106980975Y-81650499D01*
X106980981Y-81650500D01*
X108219018Y-81650499D01*
X108312804Y-81635646D01*
X108425842Y-81578050D01*
X108515550Y-81488342D01*
X108573146Y-81375304D01*
X108573146Y-81375302D01*
X108573147Y-81375301D01*
X108587999Y-81281524D01*
X108588000Y-81281519D01*
X108587999Y-80918482D01*
X108573146Y-80824696D01*
X108573145Y-80824694D01*
X108571619Y-80815057D01*
X108573642Y-80814736D01*
X108572006Y-80757494D01*
X108608084Y-80697660D01*
X108670784Y-80666830D01*
X108740198Y-80674792D01*
X108748208Y-80678519D01*
X108762196Y-80685646D01*
X108762198Y-80685646D01*
X108762200Y-80685647D01*
X108762198Y-80685647D01*
X108855975Y-80700499D01*
X108855981Y-80700500D01*
X110094018Y-80700499D01*
X110187804Y-80685646D01*
X110230257Y-80664014D01*
X110286552Y-80650500D01*
X110441324Y-80650500D01*
X110508363Y-80670185D01*
X110529005Y-80686819D01*
X110700681Y-80858495D01*
X110734166Y-80919818D01*
X110737000Y-80946176D01*
X110737000Y-81281517D01*
X110743253Y-81320994D01*
X110751854Y-81375304D01*
X110809450Y-81488342D01*
X110809452Y-81488344D01*
X110809454Y-81488347D01*
X110899152Y-81578045D01*
X110899154Y-81578046D01*
X110899158Y-81578050D01*
X111000381Y-81629626D01*
X111012198Y-81635647D01*
X111099616Y-81649491D01*
X111104017Y-81650189D01*
X111105975Y-81650499D01*
X111105981Y-81650500D01*
X112103822Y-81650499D01*
X112170861Y-81670183D01*
X112191503Y-81686818D01*
X112667504Y-82162819D01*
X112700989Y-82224142D01*
X112696005Y-82293834D01*
X112654133Y-82349767D01*
X112588669Y-82374184D01*
X112579823Y-82374500D01*
X111777129Y-82374500D01*
X111777123Y-82374501D01*
X111717516Y-82380908D01*
X111582671Y-82431202D01*
X111582664Y-82431206D01*
X111467455Y-82517452D01*
X111467452Y-82517455D01*
X111399266Y-82608540D01*
X111343332Y-82650411D01*
X111273641Y-82655395D01*
X111212318Y-82621909D01*
X111200734Y-82608540D01*
X111132547Y-82517455D01*
X111132544Y-82517452D01*
X111017335Y-82431206D01*
X111017328Y-82431202D01*
X110882482Y-82380908D01*
X110882483Y-82380908D01*
X110822883Y-82374501D01*
X110822881Y-82374500D01*
X110822873Y-82374500D01*
X110822864Y-82374500D01*
X109777129Y-82374500D01*
X109777123Y-82374501D01*
X109717516Y-82380908D01*
X109582671Y-82431202D01*
X109582664Y-82431206D01*
X109467455Y-82517452D01*
X109467452Y-82517455D01*
X109381206Y-82632664D01*
X109381202Y-82632671D01*
X109330910Y-82767513D01*
X109330909Y-82767517D01*
X109324500Y-82827127D01*
X109324500Y-82827134D01*
X109324500Y-82827135D01*
X109324500Y-82900942D01*
X109304815Y-82967981D01*
X109252011Y-83013736D01*
X109182853Y-83023680D01*
X109126190Y-83000209D01*
X109030230Y-82928374D01*
X109030227Y-82928373D01*
X109030226Y-82928372D01*
X108902114Y-82880588D01*
X108902112Y-82880587D01*
X108902110Y-82880587D01*
X108845493Y-82874500D01*
X108254518Y-82874500D01*
X108254509Y-82874501D01*
X108197885Y-82880587D01*
X108069771Y-82928373D01*
X108069770Y-82928373D01*
X107960318Y-83010307D01*
X107960312Y-83010313D01*
X107949459Y-83024812D01*
X107893524Y-83066683D01*
X107850193Y-83074500D01*
X107783676Y-83074500D01*
X107716637Y-83054815D01*
X107695995Y-83038181D01*
X107636818Y-82979004D01*
X107603333Y-82917681D01*
X107600499Y-82891323D01*
X107600499Y-82555982D01*
X107594397Y-82517454D01*
X107585646Y-82462196D01*
X107528050Y-82349158D01*
X107528046Y-82349154D01*
X107528045Y-82349152D01*
X107438347Y-82259454D01*
X107438344Y-82259452D01*
X107438342Y-82259450D01*
X107361517Y-82220305D01*
X107325301Y-82201852D01*
X107231524Y-82187000D01*
X106868482Y-82187000D01*
X106787519Y-82199823D01*
X106774696Y-82201854D01*
X106661658Y-82259450D01*
X106661657Y-82259451D01*
X106653759Y-82265189D01*
X106652775Y-82263834D01*
X106601358Y-82291911D01*
X106531666Y-82286927D01*
X106496750Y-82264487D01*
X106496241Y-82265189D01*
X106488345Y-82259453D01*
X106488342Y-82259450D01*
X106411517Y-82220305D01*
X106375301Y-82201852D01*
X106281524Y-82187000D01*
X105918482Y-82187000D01*
X105837519Y-82199823D01*
X105824696Y-82201854D01*
X105711658Y-82259450D01*
X105711657Y-82259451D01*
X105703759Y-82265189D01*
X105702775Y-82263834D01*
X105651358Y-82291911D01*
X105581666Y-82286927D01*
X105546750Y-82264487D01*
X105546241Y-82265189D01*
X105538345Y-82259453D01*
X105538342Y-82259450D01*
X105461517Y-82220305D01*
X105425301Y-82201852D01*
X105331524Y-82187000D01*
X104968480Y-82187000D01*
X104963625Y-82187383D01*
X104963471Y-82185431D01*
X104902380Y-82177501D01*
X104890344Y-82171400D01*
X104868188Y-82158609D01*
X104868187Y-82158608D01*
X104868186Y-82158608D01*
X104740892Y-82124500D01*
X104740891Y-82124500D01*
X104306079Y-82124500D01*
X104239040Y-82104815D01*
X104206308Y-82074133D01*
X104172151Y-82027851D01*
X104172150Y-82027850D01*
X104062882Y-81947207D01*
X104062880Y-81947206D01*
X103934700Y-81902353D01*
X103904270Y-81899500D01*
X103904266Y-81899500D01*
X103395734Y-81899500D01*
X103395730Y-81899500D01*
X103365301Y-81902353D01*
X103276915Y-81933281D01*
X103207136Y-81936842D01*
X103161378Y-81910630D01*
X103162486Y-81912659D01*
X103157502Y-81982351D01*
X103133164Y-82020223D01*
X103133368Y-82020374D01*
X103131045Y-82023521D01*
X103129007Y-82026693D01*
X103127851Y-82027848D01*
X103047207Y-82137117D01*
X103047206Y-82137119D01*
X103002353Y-82265298D01*
X103002353Y-82265300D01*
X102999500Y-82295730D01*
X102999500Y-82954269D01*
X103002353Y-82984699D01*
X103002354Y-82984701D01*
X103042541Y-83099548D01*
X103049500Y-83140503D01*
X103049500Y-83468920D01*
X103029815Y-83535959D01*
X102999134Y-83568690D01*
X102952853Y-83602847D01*
X102952850Y-83602850D01*
X102872207Y-83712117D01*
X102872206Y-83712119D01*
X102827353Y-83840298D01*
X102827353Y-83840300D01*
X102824500Y-83870730D01*
X102824500Y-84334067D01*
X102804815Y-84401106D01*
X102752011Y-84446861D01*
X102682853Y-84456805D01*
X102619297Y-84427780D01*
X102600731Y-84407702D01*
X102597150Y-84402850D01*
X102487882Y-84322207D01*
X102487880Y-84322206D01*
X102359700Y-84277353D01*
X102329270Y-84274500D01*
X102329266Y-84274500D01*
X101670734Y-84274500D01*
X101670730Y-84274500D01*
X101640300Y-84277353D01*
X101640298Y-84277353D01*
X101512119Y-84322206D01*
X101512117Y-84322207D01*
X101402850Y-84402850D01*
X101322207Y-84512117D01*
X101322206Y-84512119D01*
X101277353Y-84640298D01*
X101277353Y-84640300D01*
X101274500Y-84670730D01*
X101274500Y-84744344D01*
X101254815Y-84811383D01*
X101202011Y-84857138D01*
X101132853Y-84867082D01*
X101069297Y-84838057D01*
X101049996Y-84814106D01*
X101049112Y-84814769D01*
X100957547Y-84692455D01*
X100957544Y-84692452D01*
X100842335Y-84606206D01*
X100842328Y-84606202D01*
X100707482Y-84555908D01*
X100707483Y-84555908D01*
X100647883Y-84549501D01*
X100647881Y-84549500D01*
X100647873Y-84549500D01*
X100647865Y-84549500D01*
X99724500Y-84549500D01*
X99657461Y-84529815D01*
X99611706Y-84477011D01*
X99600500Y-84425500D01*
X99600500Y-84354875D01*
X99609939Y-84307422D01*
X99616918Y-84290573D01*
X99636330Y-84243709D01*
X99655250Y-84100000D01*
X99636330Y-83956291D01*
X99580861Y-83822375D01*
X99492621Y-83707379D01*
X99377625Y-83619139D01*
X99377624Y-83619138D01*
X99377622Y-83619137D01*
X99243712Y-83563671D01*
X99243710Y-83563670D01*
X99243709Y-83563670D01*
X99171854Y-83554210D01*
X99100001Y-83544750D01*
X99099999Y-83544750D01*
X98956291Y-83563670D01*
X98956287Y-83563671D01*
X98822377Y-83619137D01*
X98707379Y-83707379D01*
X98619137Y-83822377D01*
X98563671Y-83956287D01*
X98563670Y-83956291D01*
X98547976Y-84075500D01*
X98544750Y-84100000D01*
X98563670Y-84243709D01*
X98576424Y-84274501D01*
X98590061Y-84307422D01*
X98599500Y-84354875D01*
X98599500Y-84425500D01*
X98579815Y-84492539D01*
X98527011Y-84538294D01*
X98475500Y-84549500D01*
X97552129Y-84549500D01*
X97552123Y-84549501D01*
X97492516Y-84555908D01*
X97357671Y-84606202D01*
X97357664Y-84606206D01*
X97242455Y-84692452D01*
X97242452Y-84692455D01*
X97156206Y-84807664D01*
X97156202Y-84807671D01*
X97105908Y-84942517D01*
X97099501Y-85002116D01*
X97099500Y-85002135D01*
X97099500Y-86197870D01*
X97099501Y-86197876D01*
X97105908Y-86257483D01*
X97156202Y-86392328D01*
X97156206Y-86392335D01*
X97242452Y-86507544D01*
X97242455Y-86507547D01*
X97357664Y-86593793D01*
X97357671Y-86593797D01*
X97492517Y-86644091D01*
X97492516Y-86644091D01*
X97499444Y-86644835D01*
X97552127Y-86650500D01*
X100647872Y-86650499D01*
X100707483Y-86644091D01*
X100842331Y-86593796D01*
X100957546Y-86507546D01*
X101043796Y-86392331D01*
X101094091Y-86257483D01*
X101100500Y-86197873D01*
X101100499Y-85414308D01*
X101120183Y-85347271D01*
X101172987Y-85301516D01*
X101242146Y-85291572D01*
X101305702Y-85320597D01*
X101324269Y-85340676D01*
X101402850Y-85447150D01*
X101512118Y-85527793D01*
X101554845Y-85542744D01*
X101640299Y-85572646D01*
X101670730Y-85575500D01*
X101670734Y-85575500D01*
X102329270Y-85575500D01*
X102359699Y-85572646D01*
X102359701Y-85572646D01*
X102423790Y-85550219D01*
X102487882Y-85527793D01*
X102597150Y-85447150D01*
X102600824Y-85442170D01*
X102656468Y-85399920D01*
X102726124Y-85394459D01*
X102787675Y-85427524D01*
X102821578Y-85488617D01*
X102824131Y-85517835D01*
X102824500Y-85517835D01*
X102824500Y-86029269D01*
X102827353Y-86059699D01*
X102827353Y-86059701D01*
X102872206Y-86187880D01*
X102872207Y-86187882D01*
X102952850Y-86297150D01*
X102999134Y-86331309D01*
X103041384Y-86386954D01*
X103049500Y-86431078D01*
X103049500Y-87140891D01*
X103083608Y-87268187D01*
X103116554Y-87325250D01*
X103149500Y-87382314D01*
X103149502Y-87382316D01*
X103177164Y-87409978D01*
X103210649Y-87471301D01*
X103205665Y-87540993D01*
X103163793Y-87596926D01*
X103158374Y-87600761D01*
X103096581Y-87642049D01*
X102867052Y-87871578D01*
X102867052Y-87871579D01*
X102867049Y-87871582D01*
X102867048Y-87871584D01*
X102850801Y-87895900D01*
X102784918Y-87994502D01*
X102784914Y-87994509D01*
X102728342Y-88131087D01*
X102728340Y-88131093D01*
X102699500Y-88276080D01*
X102699500Y-88276083D01*
X102699500Y-88423917D01*
X102699500Y-88423919D01*
X102699499Y-88423919D01*
X102728340Y-88568906D01*
X102728342Y-88568912D01*
X102784916Y-88705494D01*
X102867048Y-88828416D01*
X102867052Y-88828420D01*
X102867052Y-88828421D01*
X102971578Y-88932947D01*
X102971581Y-88932949D01*
X102971584Y-88932952D01*
X103094506Y-89015084D01*
X103231088Y-89071658D01*
X103231092Y-89071658D01*
X103231093Y-89071659D01*
X103376080Y-89100500D01*
X103376083Y-89100500D01*
X103523918Y-89100500D01*
X103539366Y-89097426D01*
X103601309Y-89085105D01*
X103670898Y-89091331D01*
X103726076Y-89134194D01*
X103749322Y-89200083D01*
X103749500Y-89206722D01*
X103749500Y-89749678D01*
X103764032Y-89822735D01*
X103764033Y-89822739D01*
X103782405Y-89850235D01*
X103819399Y-89905601D01*
X103902260Y-89960966D01*
X103902264Y-89960967D01*
X103975321Y-89975499D01*
X103975324Y-89975500D01*
X103975326Y-89975500D01*
X105424676Y-89975500D01*
X105424677Y-89975499D01*
X105497740Y-89960966D01*
X105580601Y-89905601D01*
X105635966Y-89822740D01*
X105650500Y-89749674D01*
X105650500Y-89744857D01*
X105670185Y-89677818D01*
X105722989Y-89632063D01*
X105792147Y-89622119D01*
X105855703Y-89651144D01*
X105893477Y-89709922D01*
X105897790Y-89731603D01*
X105900338Y-89755312D01*
X105911543Y-89806818D01*
X105911546Y-89806827D01*
X105918779Y-89833192D01*
X105918783Y-89833203D01*
X105968105Y-89919818D01*
X105968110Y-89919825D01*
X105968112Y-89919828D01*
X105994580Y-89950374D01*
X106013863Y-89972628D01*
X106013866Y-89972631D01*
X106013867Y-89972632D01*
X106046641Y-90004257D01*
X106134976Y-90050465D01*
X106134977Y-90050465D01*
X106134977Y-90050466D01*
X106179218Y-90063456D01*
X106202015Y-90070150D01*
X106202019Y-90070150D01*
X106202021Y-90070151D01*
X106213652Y-90071823D01*
X106274000Y-90080500D01*
X106274001Y-90080500D01*
X107526000Y-90080500D01*
X107580313Y-90074661D01*
X107631824Y-90063455D01*
X107658198Y-90056219D01*
X107742403Y-90008269D01*
X107744818Y-90006894D01*
X107744819Y-90006892D01*
X107744828Y-90006888D01*
X107797632Y-89961133D01*
X107829257Y-89928359D01*
X107875465Y-89840024D01*
X107877470Y-89833198D01*
X107885215Y-89806818D01*
X107895150Y-89772985D01*
X107905500Y-89701000D01*
X107905500Y-86489902D01*
X107925185Y-86422863D01*
X107926326Y-86421119D01*
X108249929Y-85935717D01*
X108303494Y-85890856D01*
X108353103Y-85880500D01*
X108926000Y-85880500D01*
X108980313Y-85874661D01*
X109031824Y-85863455D01*
X109058198Y-85856219D01*
X109105644Y-85829201D01*
X109144818Y-85806894D01*
X109144819Y-85806892D01*
X109144828Y-85806888D01*
X109197632Y-85761133D01*
X109229257Y-85728359D01*
X109275465Y-85640024D01*
X109295150Y-85572985D01*
X109305500Y-85501000D01*
X109305500Y-84849500D01*
X109299661Y-84795187D01*
X109288455Y-84743676D01*
X109281219Y-84717302D01*
X109277273Y-84710372D01*
X109231894Y-84630681D01*
X109231890Y-84630676D01*
X109231888Y-84630672D01*
X109186133Y-84577868D01*
X109153359Y-84546243D01*
X109130822Y-84534454D01*
X109059628Y-84497212D01*
X109059860Y-84496768D01*
X109039386Y-84485229D01*
X109030227Y-84478373D01*
X109030226Y-84478372D01*
X108997538Y-84466179D01*
X108941608Y-84424310D01*
X108917191Y-84358846D01*
X108932043Y-84290573D01*
X108981448Y-84241168D01*
X108997528Y-84233823D01*
X109030226Y-84221628D01*
X109139687Y-84139687D01*
X109221628Y-84030226D01*
X109269412Y-83902114D01*
X109272273Y-83875499D01*
X109275499Y-83845501D01*
X109275499Y-83845494D01*
X109275500Y-83845485D01*
X109275499Y-83836577D01*
X109295178Y-83769540D01*
X109347978Y-83723781D01*
X109417136Y-83713832D01*
X109473810Y-83737304D01*
X109582669Y-83818796D01*
X109582671Y-83818797D01*
X109717517Y-83869091D01*
X109717516Y-83869091D01*
X109724444Y-83869835D01*
X109777127Y-83875500D01*
X110822872Y-83875499D01*
X110882483Y-83869091D01*
X111017331Y-83818796D01*
X111132546Y-83732546D01*
X111200734Y-83641457D01*
X111256667Y-83599588D01*
X111326359Y-83594604D01*
X111387682Y-83628089D01*
X111399261Y-83641452D01*
X111467454Y-83732546D01*
X111474478Y-83737804D01*
X111582664Y-83818793D01*
X111582671Y-83818797D01*
X111692654Y-83859818D01*
X111748588Y-83901689D01*
X111773005Y-83967153D01*
X111758154Y-84035426D01*
X111708748Y-84084832D01*
X111649321Y-84100000D01*
X111600000Y-84100000D01*
X111600000Y-84256160D01*
X111580315Y-84323199D01*
X111550312Y-84355426D01*
X111467452Y-84417455D01*
X111381206Y-84532664D01*
X111381202Y-84532671D01*
X111330908Y-84667517D01*
X111324501Y-84727116D01*
X111324500Y-84727135D01*
X111324500Y-85063186D01*
X111322117Y-85087377D01*
X111299500Y-85201078D01*
X111299500Y-85201082D01*
X111299500Y-86423918D01*
X111299500Y-86423920D01*
X111299499Y-86423920D01*
X111328340Y-86568907D01*
X111328343Y-86568917D01*
X111384912Y-86705488D01*
X111384919Y-86705501D01*
X111467048Y-86828415D01*
X111467051Y-86828419D01*
X111571580Y-86932948D01*
X111571584Y-86932951D01*
X111694498Y-87015080D01*
X111694511Y-87015087D01*
X111831082Y-87071656D01*
X111831087Y-87071658D01*
X111831091Y-87071658D01*
X111831092Y-87071659D01*
X111976079Y-87100500D01*
X111976082Y-87100500D01*
X112123920Y-87100500D01*
X112221462Y-87081096D01*
X112268913Y-87071658D01*
X112405495Y-87015084D01*
X112528416Y-86932951D01*
X112632951Y-86828416D01*
X112715084Y-86705495D01*
X112727075Y-86676544D01*
X112770914Y-86622145D01*
X112837208Y-86600079D01*
X112841635Y-86600000D01*
X114653814Y-86600000D01*
X114720853Y-86619685D01*
X114739915Y-86634766D01*
X114746641Y-86641257D01*
X114834976Y-86687465D01*
X114834977Y-86687465D01*
X114834977Y-86687466D01*
X114878775Y-86700326D01*
X114902015Y-86707150D01*
X114902019Y-86707150D01*
X114902021Y-86707151D01*
X114913652Y-86708823D01*
X114974000Y-86717500D01*
X115246836Y-86717500D01*
X115290162Y-86725316D01*
X115326917Y-86739024D01*
X115357893Y-86755939D01*
X115389763Y-86779798D01*
X115398088Y-86785800D01*
X115397768Y-86786243D01*
X115440362Y-86839068D01*
X115441996Y-86843219D01*
X115462180Y-86897333D01*
X115469999Y-86940668D01*
X115469999Y-87609333D01*
X115462181Y-87652665D01*
X115417495Y-87772476D01*
X115416377Y-87778098D01*
X115402438Y-87832708D01*
X115394500Y-87895900D01*
X115394500Y-88355056D01*
X115398640Y-88400858D01*
X115398642Y-88400873D01*
X115402844Y-88423917D01*
X115406621Y-88444633D01*
X115410648Y-88462899D01*
X115448742Y-88541778D01*
X115460171Y-88610705D01*
X115432521Y-88674870D01*
X115396907Y-88704317D01*
X115237675Y-88792023D01*
X115233253Y-88794344D01*
X114354988Y-89232967D01*
X114350476Y-89235108D01*
X113455256Y-89638014D01*
X113450662Y-89639971D01*
X112539956Y-90006498D01*
X112535287Y-90008269D01*
X111610551Y-90337834D01*
X111605813Y-90339415D01*
X110668591Y-90631464D01*
X110663795Y-90632854D01*
X109715522Y-90886943D01*
X109710673Y-90888138D01*
X108752967Y-91103831D01*
X108748074Y-91104830D01*
X107782448Y-91281788D01*
X107777518Y-91282589D01*
X106805563Y-91420519D01*
X106800606Y-91421121D01*
X105823879Y-91519804D01*
X105818901Y-91520206D01*
X104838985Y-91579480D01*
X104833995Y-91579681D01*
X103852497Y-91599449D01*
X103847503Y-91599449D01*
X102866004Y-91579681D01*
X102861014Y-91579480D01*
X101881098Y-91520206D01*
X101876120Y-91519804D01*
X100899393Y-91421121D01*
X100894436Y-91420519D01*
X99922481Y-91282589D01*
X99917551Y-91281788D01*
X98951925Y-91104830D01*
X98947032Y-91103831D01*
X97989326Y-90888138D01*
X97984477Y-90886943D01*
X97036204Y-90632854D01*
X97031408Y-90631464D01*
X96094186Y-90339415D01*
X96089464Y-90337839D01*
X95164709Y-90008267D01*
X95160043Y-90006498D01*
X94343375Y-89677818D01*
X94249333Y-89639969D01*
X94244743Y-89638014D01*
X94231520Y-89632063D01*
X93612299Y-89353374D01*
X93349523Y-89235108D01*
X93345011Y-89232967D01*
X92466746Y-88794344D01*
X92462324Y-88792023D01*
X91602438Y-88318394D01*
X91598113Y-88315897D01*
X91066459Y-87994502D01*
X90757982Y-87808021D01*
X90753786Y-87805368D01*
X89934780Y-87264069D01*
X89930670Y-87261232D01*
X89707557Y-87100500D01*
X89134126Y-86687396D01*
X89130157Y-86684414D01*
X88671324Y-86324941D01*
X88357357Y-86078963D01*
X88353489Y-86075804D01*
X87605749Y-85439774D01*
X87602010Y-85436463D01*
X86880419Y-84770777D01*
X86876818Y-84767317D01*
X86182682Y-84073181D01*
X86179222Y-84069580D01*
X85513536Y-83347989D01*
X85510225Y-83344250D01*
X84874195Y-82596510D01*
X84871036Y-82592642D01*
X84706603Y-82382759D01*
X84265579Y-81819834D01*
X84262608Y-81815881D01*
X83688760Y-81019320D01*
X83685930Y-81015219D01*
X83662323Y-80979500D01*
X83144623Y-80196200D01*
X83141986Y-80192031D01*
X82634096Y-79351876D01*
X82631605Y-79347561D01*
X82562487Y-79222076D01*
X82157970Y-78487664D01*
X82155655Y-78483253D01*
X82090786Y-78353365D01*
X81717028Y-77604979D01*
X81714891Y-77600476D01*
X81714677Y-77600000D01*
X81311973Y-76705229D01*
X81310040Y-76700690D01*
X80943496Y-75789942D01*
X80941741Y-75785317D01*
X80612150Y-74860506D01*
X80610594Y-74855844D01*
X80318528Y-73918568D01*
X80317152Y-73913819D01*
X80063053Y-72965511D01*
X80061861Y-72960673D01*
X80050341Y-72909524D01*
X79846167Y-72002963D01*
X79845169Y-71998074D01*
X79827288Y-71900500D01*
X79668208Y-71032431D01*
X79667410Y-71027518D01*
X79664856Y-71009524D01*
X79529478Y-70055551D01*
X79528878Y-70050606D01*
X79523020Y-69992621D01*
X79430193Y-69073860D01*
X79429793Y-69068901D01*
X79428650Y-69050000D01*
X79370517Y-68088954D01*
X79370319Y-68084027D01*
X79350550Y-67102482D01*
X79350550Y-67097503D01*
X79352086Y-67021239D01*
X79370319Y-66115970D01*
X79370517Y-66111047D01*
X79429794Y-65131076D01*
X79430195Y-65126120D01*
X79430574Y-65122375D01*
X79528879Y-64149376D01*
X79529480Y-64144436D01*
X79667413Y-63172457D01*
X79668206Y-63167576D01*
X79845171Y-62201911D01*
X79846168Y-62197032D01*
X80061866Y-61239304D01*
X80063056Y-61234477D01*
X80317155Y-60286167D01*
X80318524Y-60281444D01*
X80610599Y-59344140D01*
X80612144Y-59339508D01*
X80941747Y-58414665D01*
X80943489Y-58410073D01*
X81310047Y-57499291D01*
X81311965Y-57494788D01*
X81714903Y-56599496D01*
X81717018Y-56595039D01*
X82155671Y-55716714D01*
X82157959Y-55712355D01*
X82631623Y-54852406D01*
X82634083Y-54848144D01*
X83142000Y-54007946D01*
X83144608Y-54003821D01*
X83685952Y-53184747D01*
X83688744Y-53180702D01*
X84262626Y-52384093D01*
X84265561Y-52380188D01*
X84871053Y-51607335D01*
X84874176Y-51603511D01*
X85510232Y-50855740D01*
X85513536Y-50852010D01*
X86179245Y-50130394D01*
X86182657Y-50126843D01*
X86384822Y-49924678D01*
X96999500Y-49924678D01*
X97014032Y-49997735D01*
X97014033Y-49997739D01*
X97014034Y-49997740D01*
X97069399Y-50080601D01*
X97135848Y-50125000D01*
X97152260Y-50135966D01*
X97152264Y-50135967D01*
X97225321Y-50150499D01*
X97225324Y-50150500D01*
X97225326Y-50150500D01*
X99474676Y-50150500D01*
X99474677Y-50150499D01*
X99547740Y-50135966D01*
X99630601Y-50080601D01*
X99685966Y-49997740D01*
X99700500Y-49924674D01*
X99700500Y-47675326D01*
X99700500Y-47675323D01*
X99700499Y-47675321D01*
X99685967Y-47602264D01*
X99685966Y-47602260D01*
X99630601Y-47519399D01*
X99547740Y-47464034D01*
X99547739Y-47464033D01*
X99547735Y-47464032D01*
X99474677Y-47449500D01*
X99474674Y-47449500D01*
X97225326Y-47449500D01*
X97225323Y-47449500D01*
X97152264Y-47464032D01*
X97152260Y-47464033D01*
X97069399Y-47519399D01*
X97014033Y-47602260D01*
X97014032Y-47602264D01*
X96999500Y-47675321D01*
X96999500Y-49924678D01*
X86384822Y-49924678D01*
X86876843Y-49432657D01*
X86880394Y-49429245D01*
X87602018Y-48763528D01*
X87605749Y-48760225D01*
X88353511Y-48124176D01*
X88357335Y-48121053D01*
X89130188Y-47515561D01*
X89134093Y-47512626D01*
X89930702Y-46938744D01*
X89934747Y-46935952D01*
X90753821Y-46394608D01*
X90757946Y-46392000D01*
X90845874Y-46338846D01*
X95009500Y-46338846D01*
X95040261Y-46493489D01*
X95040264Y-46493501D01*
X95100602Y-46639172D01*
X95100609Y-46639185D01*
X95188210Y-46770288D01*
X95188213Y-46770292D01*
X95299707Y-46881786D01*
X95299711Y-46881789D01*
X95430814Y-46969390D01*
X95430827Y-46969397D01*
X95576498Y-47029735D01*
X95576503Y-47029737D01*
X95731153Y-47060499D01*
X95731156Y-47060500D01*
X95731158Y-47060500D01*
X95888844Y-47060500D01*
X95888845Y-47060499D01*
X96043497Y-47029737D01*
X96189179Y-46969394D01*
X96320289Y-46881789D01*
X96431789Y-46770289D01*
X96519394Y-46639179D01*
X96579737Y-46493497D01*
X96610499Y-46338846D01*
X97549500Y-46338846D01*
X97580261Y-46493489D01*
X97580264Y-46493501D01*
X97640602Y-46639172D01*
X97640609Y-46639185D01*
X97728210Y-46770288D01*
X97728213Y-46770292D01*
X97839707Y-46881786D01*
X97839711Y-46881789D01*
X97970814Y-46969390D01*
X97970827Y-46969397D01*
X98116498Y-47029735D01*
X98116503Y-47029737D01*
X98271153Y-47060499D01*
X98271156Y-47060500D01*
X98271158Y-47060500D01*
X98428844Y-47060500D01*
X98428845Y-47060499D01*
X98583497Y-47029737D01*
X98729179Y-46969394D01*
X98860289Y-46881789D01*
X98971789Y-46770289D01*
X99059394Y-46639179D01*
X99119737Y-46493497D01*
X99150500Y-46338842D01*
X99150500Y-46181158D01*
X99150500Y-46181155D01*
X99150499Y-46181153D01*
X99119738Y-46026510D01*
X99119737Y-46026503D01*
X99064448Y-45893022D01*
X99059397Y-45880827D01*
X99059390Y-45880814D01*
X98971789Y-45749711D01*
X98971786Y-45749707D01*
X98860292Y-45638213D01*
X98860288Y-45638210D01*
X98729185Y-45550609D01*
X98729172Y-45550602D01*
X98583501Y-45490264D01*
X98583489Y-45490261D01*
X98428845Y-45459500D01*
X98428842Y-45459500D01*
X98271158Y-45459500D01*
X98271155Y-45459500D01*
X98116510Y-45490261D01*
X98116498Y-45490264D01*
X97970827Y-45550602D01*
X97970814Y-45550609D01*
X97839711Y-45638210D01*
X97839707Y-45638213D01*
X97728213Y-45749707D01*
X97728210Y-45749711D01*
X97640609Y-45880814D01*
X97640602Y-45880827D01*
X97580264Y-46026498D01*
X97580261Y-46026510D01*
X97549500Y-46181153D01*
X97549500Y-46338846D01*
X96610499Y-46338846D01*
X96610500Y-46338842D01*
X96610500Y-46181158D01*
X96610500Y-46181155D01*
X96610499Y-46181153D01*
X96579738Y-46026510D01*
X96579737Y-46026503D01*
X96524448Y-45893022D01*
X96519397Y-45880827D01*
X96519390Y-45880814D01*
X96431789Y-45749711D01*
X96431786Y-45749707D01*
X96320292Y-45638213D01*
X96320288Y-45638210D01*
X96189185Y-45550609D01*
X96189172Y-45550602D01*
X96043501Y-45490264D01*
X96043489Y-45490261D01*
X95888845Y-45459500D01*
X95888842Y-45459500D01*
X95731158Y-45459500D01*
X95731155Y-45459500D01*
X95576510Y-45490261D01*
X95576498Y-45490264D01*
X95430827Y-45550602D01*
X95430814Y-45550609D01*
X95299711Y-45638210D01*
X95299707Y-45638213D01*
X95188213Y-45749707D01*
X95188210Y-45749711D01*
X95100609Y-45880814D01*
X95100602Y-45880827D01*
X95040264Y-46026498D01*
X95040261Y-46026510D01*
X95009500Y-46181153D01*
X95009500Y-46338846D01*
X90845874Y-46338846D01*
X91598144Y-45884083D01*
X91602406Y-45881623D01*
X92462355Y-45407959D01*
X92466714Y-45405671D01*
X93345039Y-44967018D01*
X93349496Y-44964903D01*
X94160278Y-44600000D01*
X99544750Y-44600000D01*
X99563670Y-44743708D01*
X99563671Y-44743712D01*
X99619137Y-44877622D01*
X99619138Y-44877624D01*
X99619139Y-44877625D01*
X99707379Y-44992621D01*
X99822375Y-45080861D01*
X99956291Y-45136330D01*
X100083280Y-45153048D01*
X100099999Y-45155250D01*
X100100000Y-45155250D01*
X100100001Y-45155250D01*
X100135927Y-45150520D01*
X100243709Y-45136330D01*
X100307427Y-45109937D01*
X100354876Y-45100500D01*
X100382800Y-45100500D01*
X100449839Y-45120185D01*
X100495594Y-45172989D01*
X100506800Y-45224500D01*
X100506800Y-45246978D01*
X100521332Y-45320035D01*
X100521333Y-45320039D01*
X100521334Y-45320040D01*
X100576699Y-45402901D01*
X100659560Y-45458266D01*
X100659564Y-45458267D01*
X100732621Y-45472799D01*
X100732624Y-45472800D01*
X100732626Y-45472800D01*
X102026576Y-45472800D01*
X102026577Y-45472799D01*
X102099640Y-45458266D01*
X102182501Y-45402901D01*
X102237866Y-45320040D01*
X102252400Y-45246974D01*
X102252400Y-43953026D01*
X102252400Y-43953023D01*
X102252399Y-43953021D01*
X102237867Y-43879964D01*
X102237866Y-43879960D01*
X102225976Y-43862165D01*
X102182501Y-43797099D01*
X102099640Y-43741734D01*
X102099639Y-43741733D01*
X102099635Y-43741732D01*
X102026577Y-43727200D01*
X102026574Y-43727200D01*
X100732626Y-43727200D01*
X100732623Y-43727200D01*
X100659564Y-43741732D01*
X100659560Y-43741733D01*
X100576699Y-43797099D01*
X100521333Y-43879960D01*
X100521332Y-43879964D01*
X100506800Y-43953021D01*
X100506800Y-43975500D01*
X100487115Y-44042539D01*
X100434311Y-44088294D01*
X100382800Y-44099500D01*
X100354876Y-44099500D01*
X100307427Y-44090062D01*
X100243709Y-44063670D01*
X100243708Y-44063669D01*
X100243706Y-44063669D01*
X100100001Y-44044750D01*
X100099999Y-44044750D01*
X99956291Y-44063670D01*
X99956287Y-44063671D01*
X99822377Y-44119137D01*
X99707379Y-44207379D01*
X99619137Y-44322377D01*
X99563671Y-44456287D01*
X99563670Y-44456291D01*
X99544750Y-44599999D01*
X99544750Y-44600000D01*
X94160278Y-44600000D01*
X94244788Y-44561965D01*
X94249291Y-44560047D01*
X95160073Y-44193489D01*
X95164665Y-44191747D01*
X96089508Y-43862144D01*
X96094140Y-43860599D01*
X97031444Y-43568524D01*
X97036167Y-43567155D01*
X97984499Y-43313050D01*
X97989304Y-43311866D01*
X98947046Y-43096165D01*
X98951911Y-43095171D01*
X99917576Y-42918206D01*
X99922457Y-42917413D01*
X100894454Y-42779477D01*
X100899376Y-42778879D01*
X101876143Y-42680193D01*
X101881076Y-42679794D01*
X102861047Y-42620517D01*
X102865970Y-42620319D01*
X103847518Y-42600550D01*
X103852482Y-42600550D01*
X104834027Y-42620319D01*
G37*
%TD.AperFunction*%
%TA.AperFunction,Conductor*%
G36*
X106664702Y-83942101D02*
G01*
X106757247Y-83989255D01*
X106774696Y-83998146D01*
X106774698Y-83998147D01*
X106868475Y-84012999D01*
X106868481Y-84013000D01*
X107231518Y-84012999D01*
X107231519Y-84012999D01*
X107236370Y-84012617D01*
X107236525Y-84014593D01*
X107297505Y-84022446D01*
X107309637Y-84028588D01*
X107331814Y-84041392D01*
X107459107Y-84075500D01*
X107459108Y-84075500D01*
X107850193Y-84075500D01*
X107917232Y-84095185D01*
X107949459Y-84125188D01*
X107960312Y-84139686D01*
X107960318Y-84139692D01*
X108069770Y-84221626D01*
X108069773Y-84221628D01*
X108091734Y-84229819D01*
X108147668Y-84271690D01*
X108172084Y-84337155D01*
X108157232Y-84405428D01*
X108107826Y-84454833D01*
X108048400Y-84470000D01*
X107291787Y-84470000D01*
X107272388Y-84468473D01*
X107262926Y-84466974D01*
X107231522Y-84462000D01*
X106868482Y-84462000D01*
X106787519Y-84474823D01*
X106774696Y-84476854D01*
X106661658Y-84534450D01*
X106661657Y-84534451D01*
X106661652Y-84534454D01*
X106571954Y-84624152D01*
X106571949Y-84624159D01*
X106517236Y-84731537D01*
X106499006Y-84758098D01*
X106487861Y-84770506D01*
X106471235Y-84791139D01*
X106425032Y-84879467D01*
X106405349Y-84946503D01*
X106405346Y-84946515D01*
X106394999Y-85018489D01*
X106394999Y-85889153D01*
X106393472Y-85908552D01*
X106392693Y-85913470D01*
X106380700Y-85950374D01*
X106377681Y-85956298D01*
X106354882Y-85987676D01*
X106350176Y-85992382D01*
X106318795Y-86015183D01*
X106302234Y-86023621D01*
X106302232Y-86023623D01*
X106293968Y-86029266D01*
X106248412Y-86060373D01*
X106201536Y-86102071D01*
X106158768Y-86151238D01*
X106158761Y-86151247D01*
X105958236Y-86452035D01*
X105956831Y-86454163D01*
X105955840Y-86455678D01*
X105924534Y-86523520D01*
X105904850Y-86590556D01*
X105904848Y-86590564D01*
X105894500Y-86662541D01*
X105894500Y-86668002D01*
X105874815Y-86735041D01*
X105822011Y-86780796D01*
X105752853Y-86790740D01*
X105689297Y-86761715D01*
X105651523Y-86702937D01*
X105648883Y-86692194D01*
X105635967Y-86627263D01*
X105635966Y-86627260D01*
X105630905Y-86619685D01*
X105580601Y-86544399D01*
X105505876Y-86494470D01*
X105497739Y-86489033D01*
X105497733Y-86489031D01*
X105491614Y-86487814D01*
X105429704Y-86455427D01*
X105395133Y-86394710D01*
X105398875Y-86324941D01*
X105439743Y-86268270D01*
X105459507Y-86255718D01*
X105538342Y-86215550D01*
X105628050Y-86125842D01*
X105685646Y-86012804D01*
X105685646Y-86012802D01*
X105685647Y-86012801D01*
X105700499Y-85919024D01*
X105700500Y-85919019D01*
X105700499Y-84920957D01*
X105720183Y-84853919D01*
X105772987Y-84808164D01*
X105777047Y-84806397D01*
X105863042Y-84770777D01*
X105878141Y-84764523D01*
X105993137Y-84676283D01*
X106081377Y-84561287D01*
X106136846Y-84427371D01*
X106137860Y-84419663D01*
X106166120Y-84355768D01*
X106173094Y-84348185D01*
X106460489Y-84060792D01*
X106501023Y-83990584D01*
X106551588Y-83942371D01*
X106620195Y-83929147D01*
X106664702Y-83942101D01*
G37*
%TD.AperFunction*%
%TD*%
%TA.AperFunction,Conductor*%
%TO.N,Net-(D4-K)*%
G36*
X94600000Y-78099999D02*
G01*
X94600000Y-79476000D01*
X94580315Y-79543039D01*
X94527511Y-79588794D01*
X94476000Y-79600000D01*
X92974000Y-79600000D01*
X92906961Y-79580315D01*
X92861206Y-79527511D01*
X92850000Y-79476000D01*
X92850000Y-77850000D01*
X94600000Y-77850000D01*
X94600000Y-78099999D01*
G37*
%TD.AperFunction*%
%TD*%
%TA.AperFunction,Conductor*%
%TO.N,Net-(D3-K)*%
G36*
X113769928Y-78019928D02*
G01*
X113803413Y-78081251D01*
X113798429Y-78150943D01*
X113777506Y-78186992D01*
X112637181Y-79555383D01*
X112579142Y-79594282D01*
X112541922Y-79600000D01*
X110974000Y-79600000D01*
X110906961Y-79580315D01*
X110861206Y-79527511D01*
X110850000Y-79476000D01*
X110850000Y-78100000D01*
X110850000Y-77600000D01*
X113350000Y-77600000D01*
X113769928Y-78019928D01*
G37*
%TD.AperFunction*%
%TD*%
%TA.AperFunction,Conductor*%
%TO.N,Net-(D2-A)*%
G36*
X113850000Y-56350000D02*
G01*
X114712000Y-56350000D01*
X114712000Y-57252478D01*
X114692315Y-57319517D01*
X114675681Y-57340159D01*
X113764537Y-58251302D01*
X113764535Y-58251305D01*
X113721680Y-58325530D01*
X113704514Y-58389602D01*
X113704513Y-58389607D01*
X113699500Y-58408313D01*
X113699500Y-62813127D01*
X113721682Y-62895915D01*
X113730222Y-62910706D01*
X113764535Y-62970137D01*
X114813681Y-64019284D01*
X114847166Y-64080606D01*
X114850000Y-64106964D01*
X114850000Y-77850000D01*
X114350000Y-77850000D01*
X114350000Y-78100000D01*
X114349999Y-78099999D01*
X114349999Y-78099998D01*
X106886319Y-70636318D01*
X106852834Y-70574995D01*
X106850000Y-70548637D01*
X106850000Y-63151362D01*
X106869685Y-63084323D01*
X106886319Y-63063681D01*
X107136873Y-62813127D01*
X113850000Y-56100000D01*
X113850000Y-56350000D01*
G37*
%TD.AperFunction*%
%TD*%
%TA.AperFunction,Conductor*%
%TO.N,Net-(D4-K)*%
G36*
X101793039Y-67369685D02*
G01*
X101838794Y-67422489D01*
X101850000Y-67474000D01*
X101850000Y-70798638D01*
X101830315Y-70865677D01*
X101813681Y-70886319D01*
X94600000Y-78099999D01*
X94600000Y-77850000D01*
X92850000Y-77850000D01*
X92850000Y-73850000D01*
X94125000Y-73850000D01*
X94125000Y-67350000D01*
X101726000Y-67350000D01*
X101793039Y-67369685D01*
G37*
%TD.AperFunction*%
%TD*%
%TA.AperFunction,Conductor*%
%TO.N,3v3*%
G36*
X119591528Y-71008094D02*
G01*
X119640789Y-71055625D01*
X119655360Y-71080862D01*
X119699500Y-71157314D01*
X120442686Y-71900500D01*
X120556814Y-71966392D01*
X120684108Y-72000500D01*
X120815893Y-72000500D01*
X121312651Y-72000500D01*
X121336843Y-72002883D01*
X121349998Y-72005499D01*
X121349999Y-72005500D01*
X121350000Y-72005500D01*
X121726000Y-72005500D01*
X121793039Y-72025185D01*
X121838794Y-72077989D01*
X121850000Y-72129500D01*
X121850000Y-72770500D01*
X121830315Y-72837539D01*
X121777511Y-72883294D01*
X121726000Y-72894500D01*
X121349997Y-72894500D01*
X121252228Y-72913947D01*
X121252221Y-72913950D01*
X121169334Y-72969333D01*
X121169333Y-72969334D01*
X121113950Y-73052221D01*
X121113947Y-73052228D01*
X121094500Y-73149995D01*
X121094500Y-74050004D01*
X121113947Y-74147771D01*
X121113950Y-74147778D01*
X121169333Y-74230665D01*
X121169334Y-74230666D01*
X121252224Y-74286051D01*
X121252227Y-74286051D01*
X121252228Y-74286052D01*
X121349995Y-74305499D01*
X121349998Y-74305500D01*
X121726000Y-74305500D01*
X121793039Y-74325185D01*
X121838794Y-74377989D01*
X121850000Y-74429500D01*
X121850000Y-83664247D01*
X121830315Y-83731286D01*
X121817141Y-83748327D01*
X121520777Y-84069580D01*
X121517317Y-84073181D01*
X120823181Y-84767317D01*
X120819580Y-84770777D01*
X120097989Y-85436463D01*
X120094250Y-85439774D01*
X119346510Y-86075804D01*
X119342642Y-86078963D01*
X118569854Y-86684405D01*
X118565862Y-86687405D01*
X117769329Y-87261232D01*
X117765219Y-87264069D01*
X116946226Y-87805360D01*
X116942005Y-87808029D01*
X116101886Y-88315897D01*
X116097561Y-88318394D01*
X115833825Y-88463661D01*
X115765607Y-88478763D01*
X115700054Y-88454586D01*
X115657978Y-88398806D01*
X115650000Y-88355047D01*
X115650000Y-87895902D01*
X115665170Y-87836471D01*
X115668793Y-87829834D01*
X115668796Y-87829831D01*
X115719091Y-87694983D01*
X115725500Y-87635373D01*
X115725499Y-86914628D01*
X115719091Y-86855017D01*
X115668796Y-86720169D01*
X115668793Y-86720165D01*
X115665168Y-86713526D01*
X115650000Y-86654098D01*
X115650000Y-86600000D01*
X115617200Y-86600000D01*
X115550161Y-86580315D01*
X115542889Y-86575267D01*
X115467330Y-86518703D01*
X115467328Y-86518702D01*
X115332482Y-86468408D01*
X115332483Y-86468408D01*
X115272883Y-86462001D01*
X115272881Y-86462000D01*
X115272873Y-86462000D01*
X115272865Y-86462000D01*
X114974000Y-86462000D01*
X114906961Y-86442315D01*
X114861206Y-86389511D01*
X114850000Y-86338000D01*
X114850000Y-85286999D01*
X114869685Y-85219960D01*
X114922489Y-85174205D01*
X114973998Y-85162999D01*
X115272872Y-85162999D01*
X115332483Y-85156591D01*
X115467331Y-85106296D01*
X115582546Y-85020046D01*
X115668796Y-84904831D01*
X115719091Y-84769983D01*
X115725500Y-84710373D01*
X115725499Y-83989628D01*
X115719091Y-83930017D01*
X115704601Y-83891168D01*
X115668797Y-83795171D01*
X115668793Y-83795164D01*
X115582547Y-83679955D01*
X115582544Y-83679952D01*
X115467335Y-83593706D01*
X115467328Y-83593702D01*
X115332482Y-83543408D01*
X115332483Y-83543408D01*
X115272883Y-83537001D01*
X115272881Y-83537000D01*
X115272873Y-83537000D01*
X115272865Y-83537000D01*
X115224500Y-83537000D01*
X115157461Y-83517315D01*
X115111706Y-83464511D01*
X115100500Y-83413000D01*
X115100500Y-83321611D01*
X115100500Y-83321609D01*
X115066392Y-83194315D01*
X115000500Y-83080187D01*
X114907314Y-82987001D01*
X114886319Y-82966006D01*
X114852834Y-82904683D01*
X114850000Y-82878325D01*
X114850000Y-80591124D01*
X114853627Y-80561352D01*
X114859318Y-80538342D01*
X114865398Y-80513761D01*
X115045608Y-78711661D01*
X115071866Y-78646913D01*
X115128961Y-78606640D01*
X115168993Y-78600000D01*
X115350000Y-78600000D01*
X115350000Y-73760564D01*
X115369685Y-73693525D01*
X115422489Y-73647770D01*
X115491647Y-73637826D01*
X115555203Y-73666851D01*
X115561681Y-73672883D01*
X115569396Y-73680598D01*
X115569397Y-73680599D01*
X115569399Y-73680601D01*
X115652260Y-73735966D01*
X115652264Y-73735967D01*
X115725321Y-73750499D01*
X115725324Y-73750500D01*
X115725326Y-73750500D01*
X116015500Y-73750500D01*
X116082539Y-73770185D01*
X116128294Y-73822989D01*
X116139500Y-73874500D01*
X116139500Y-73997601D01*
X116125987Y-74053891D01*
X116123982Y-74057825D01*
X116123981Y-74057827D01*
X116109500Y-74149264D01*
X116109500Y-74550739D01*
X116123981Y-74642169D01*
X116123982Y-74642173D01*
X116123982Y-74642174D01*
X116123983Y-74642175D01*
X116125984Y-74646103D01*
X116139500Y-74702398D01*
X116139500Y-75855891D01*
X116173608Y-75983187D01*
X116197638Y-76024807D01*
X116239500Y-76097314D01*
X116239501Y-76097315D01*
X116239502Y-76097316D01*
X117863181Y-77720994D01*
X117896666Y-77782317D01*
X117899500Y-77808675D01*
X117899500Y-79647870D01*
X117899501Y-79647876D01*
X117905908Y-79707483D01*
X117956202Y-79842328D01*
X117956206Y-79842335D01*
X118042452Y-79957544D01*
X118042455Y-79957547D01*
X118157664Y-80043793D01*
X118157671Y-80043797D01*
X118292517Y-80094091D01*
X118292516Y-80094091D01*
X118299444Y-80094835D01*
X118352127Y-80100500D01*
X119547872Y-80100499D01*
X119607483Y-80094091D01*
X119742331Y-80043796D01*
X119857546Y-79957546D01*
X119943796Y-79842331D01*
X119994091Y-79707483D01*
X120000500Y-79647873D01*
X120000499Y-77808674D01*
X120020184Y-77741636D01*
X120036813Y-77720999D01*
X120573683Y-77184129D01*
X120613907Y-77157252D01*
X120677625Y-77130861D01*
X120792621Y-77042621D01*
X120880861Y-76927625D01*
X120936330Y-76793709D01*
X120955250Y-76650000D01*
X120936330Y-76506291D01*
X120909937Y-76442572D01*
X120900500Y-76395124D01*
X120900500Y-76024807D01*
X120920185Y-75957768D01*
X120950190Y-75925539D01*
X120964687Y-75914687D01*
X121046628Y-75805226D01*
X121094412Y-75677114D01*
X121096687Y-75655944D01*
X121100499Y-75620501D01*
X121100499Y-75620490D01*
X121100500Y-75620485D01*
X121100499Y-75029516D01*
X121094412Y-74972886D01*
X121046628Y-74844774D01*
X120964687Y-74735313D01*
X120880949Y-74672628D01*
X120855228Y-74653373D01*
X120855226Y-74653372D01*
X120727114Y-74605588D01*
X120727112Y-74605587D01*
X120727110Y-74605587D01*
X120670493Y-74599500D01*
X120129518Y-74599500D01*
X120129509Y-74599501D01*
X120072885Y-74605587D01*
X119944773Y-74653372D01*
X119835313Y-74735313D01*
X119753373Y-74844771D01*
X119705587Y-74972889D01*
X119699500Y-75029498D01*
X119699500Y-75620481D01*
X119699501Y-75620490D01*
X119705587Y-75677114D01*
X119746813Y-75787642D01*
X119753372Y-75805226D01*
X119835313Y-75914687D01*
X119835314Y-75914687D01*
X119835314Y-75914688D01*
X119849810Y-75925539D01*
X119891681Y-75981472D01*
X119899500Y-76024807D01*
X119899500Y-76036230D01*
X119879815Y-76103269D01*
X119827011Y-76149024D01*
X119757853Y-76158968D01*
X119732168Y-76152412D01*
X119607485Y-76105909D01*
X119607483Y-76105908D01*
X119547883Y-76099501D01*
X119547881Y-76099500D01*
X119547873Y-76099500D01*
X119547864Y-76099500D01*
X118352129Y-76099500D01*
X118352123Y-76099501D01*
X118292516Y-76105908D01*
X118157671Y-76156202D01*
X118157664Y-76156206D01*
X118042456Y-76242452D01*
X118042455Y-76242453D01*
X118042454Y-76242454D01*
X118030718Y-76258131D01*
X118024527Y-76266401D01*
X117968592Y-76308270D01*
X117898900Y-76313252D01*
X117837581Y-76279768D01*
X117541000Y-75983187D01*
X117176819Y-75619005D01*
X117143334Y-75557682D01*
X117140500Y-75531324D01*
X117140500Y-74997824D01*
X117160185Y-74930785D01*
X117212989Y-74885030D01*
X117282147Y-74875086D01*
X117320794Y-74887339D01*
X117337825Y-74896017D01*
X117337828Y-74896018D01*
X117372947Y-74901579D01*
X117429265Y-74910500D01*
X117770734Y-74910499D01*
X117770739Y-74910499D01*
X117770739Y-74910498D01*
X117816454Y-74903258D01*
X117862170Y-74896018D01*
X117862171Y-74896018D01*
X117862172Y-74896017D01*
X117862175Y-74896017D01*
X117972391Y-74839859D01*
X118059859Y-74752391D01*
X118116017Y-74642175D01*
X118116017Y-74642173D01*
X118116018Y-74642172D01*
X118116018Y-74642171D01*
X118122776Y-74599500D01*
X118130500Y-74550735D01*
X118130499Y-74149266D01*
X118130499Y-74149264D01*
X118130499Y-74149260D01*
X118116017Y-74057826D01*
X118116017Y-74057824D01*
X118114014Y-74053893D01*
X118100500Y-73997600D01*
X118100500Y-73874500D01*
X118120185Y-73807461D01*
X118172989Y-73761706D01*
X118224500Y-73750500D01*
X118574676Y-73750500D01*
X118574677Y-73750499D01*
X118647740Y-73735966D01*
X118730601Y-73680601D01*
X118785966Y-73597740D01*
X118800500Y-73524674D01*
X118800500Y-72075326D01*
X118800500Y-72075323D01*
X118800499Y-72075321D01*
X118785967Y-72002264D01*
X118785966Y-72002260D01*
X118762000Y-71966392D01*
X118730601Y-71919399D01*
X118647740Y-71864034D01*
X118647739Y-71864033D01*
X118647735Y-71864032D01*
X118574677Y-71849500D01*
X118574674Y-71849500D01*
X117861189Y-71849500D01*
X117794150Y-71829815D01*
X117773508Y-71813181D01*
X117722508Y-71762181D01*
X117689023Y-71700858D01*
X117694007Y-71631166D01*
X117735879Y-71575233D01*
X117801343Y-71550816D01*
X117810189Y-71550500D01*
X118574676Y-71550500D01*
X118574677Y-71550499D01*
X118647740Y-71535966D01*
X118730601Y-71480601D01*
X118785966Y-71397740D01*
X118800500Y-71324674D01*
X118800500Y-71256185D01*
X118820185Y-71189146D01*
X118872989Y-71143391D01*
X118942147Y-71133447D01*
X118956037Y-71136296D01*
X118956289Y-71136329D01*
X118956291Y-71136330D01*
X119072582Y-71151640D01*
X119099999Y-71155250D01*
X119100000Y-71155250D01*
X119100001Y-71155250D01*
X119114977Y-71153278D01*
X119243709Y-71136330D01*
X119377625Y-71080861D01*
X119457918Y-71019249D01*
X119523083Y-70994056D01*
X119591528Y-71008094D01*
G37*
%TD.AperFunction*%
%TA.AperFunction,Conductor*%
G36*
X121785426Y-57933615D02*
G01*
X121834832Y-57983020D01*
X121850000Y-58042447D01*
X121850000Y-70870500D01*
X121830315Y-70937539D01*
X121777511Y-70983294D01*
X121726000Y-70994500D01*
X121349999Y-70994500D01*
X121336843Y-70997117D01*
X121312651Y-70999500D01*
X121008676Y-70999500D01*
X120941637Y-70979815D01*
X120920995Y-70963181D01*
X120636819Y-70679005D01*
X120603334Y-70617682D01*
X120600500Y-70591324D01*
X120600500Y-69452398D01*
X120614018Y-69396098D01*
X120616017Y-69392175D01*
X120630500Y-69300735D01*
X120630499Y-68899266D01*
X120630499Y-68899265D01*
X120630499Y-68899260D01*
X120616017Y-68807826D01*
X120616017Y-68807824D01*
X120614014Y-68803893D01*
X120600500Y-68747600D01*
X120600500Y-68480202D01*
X120614016Y-68423906D01*
X120640999Y-68370950D01*
X120655739Y-68342022D01*
X120655739Y-68342020D01*
X120655740Y-68342019D01*
X120670499Y-68248828D01*
X120670500Y-68248823D01*
X120670499Y-67891178D01*
X120655739Y-67797978D01*
X120598502Y-67685645D01*
X120598498Y-67685641D01*
X120598497Y-67685639D01*
X120585539Y-67672681D01*
X120552054Y-67611358D01*
X120557038Y-67541666D01*
X120585539Y-67497319D01*
X120598497Y-67484360D01*
X120598502Y-67484355D01*
X120655739Y-67372022D01*
X120655739Y-67372020D01*
X120655740Y-67372019D01*
X120670499Y-67278828D01*
X120670500Y-67278823D01*
X120670499Y-66921178D01*
X120655739Y-66827978D01*
X120655737Y-66827975D01*
X120654212Y-66818341D01*
X120655388Y-66818154D01*
X120652025Y-66796909D01*
X120652025Y-66105635D01*
X120652025Y-66105633D01*
X120625698Y-66007379D01*
X120615814Y-65970489D01*
X120617324Y-65970084D01*
X120610499Y-65935764D01*
X120610499Y-65899260D01*
X120596017Y-65807826D01*
X120596017Y-65807824D01*
X120594014Y-65803893D01*
X120580500Y-65747600D01*
X120580500Y-63885711D01*
X120580500Y-63885709D01*
X120546392Y-63758415D01*
X120546389Y-63758409D01*
X120545811Y-63757407D01*
X120545511Y-63756288D01*
X120543280Y-63750901D01*
X120543989Y-63750607D01*
X120529199Y-63695409D01*
X120529199Y-63685548D01*
X120529198Y-63685541D01*
X120521629Y-63647481D01*
X120521618Y-63647454D01*
X120521610Y-63647387D01*
X120519247Y-63635501D01*
X120520309Y-63635289D01*
X120514148Y-63577985D01*
X120521618Y-63552544D01*
X120521624Y-63552527D01*
X120521629Y-63552520D01*
X120529200Y-63514456D01*
X120529200Y-63449499D01*
X120548885Y-63382460D01*
X120601689Y-63336705D01*
X120653200Y-63325499D01*
X120693152Y-63325499D01*
X120693154Y-63325499D01*
X120775940Y-63303317D01*
X120850163Y-63260464D01*
X121314655Y-62795969D01*
X121314660Y-62795966D01*
X121324860Y-62785765D01*
X121324862Y-62785765D01*
X121385465Y-62725162D01*
X121414715Y-62674499D01*
X121428318Y-62650939D01*
X121450501Y-62568153D01*
X121450501Y-62482447D01*
X121450501Y-62474852D01*
X121450500Y-62474834D01*
X121450500Y-59580772D01*
X121450500Y-59580770D01*
X121428318Y-59497985D01*
X121418432Y-59480861D01*
X121385469Y-59423767D01*
X121385463Y-59423759D01*
X120938758Y-58977054D01*
X120938756Y-58977052D01*
X120881005Y-58943709D01*
X120864534Y-58934199D01*
X120823140Y-58923108D01*
X120781747Y-58912017D01*
X120781746Y-58912017D01*
X120545158Y-58912017D01*
X120478119Y-58892332D01*
X120432364Y-58839528D01*
X120422420Y-58770370D01*
X120451445Y-58706814D01*
X120457477Y-58700336D01*
X120705451Y-58452363D01*
X121045995Y-58111819D01*
X121107318Y-58078334D01*
X121133676Y-58075500D01*
X121363630Y-58075500D01*
X121363644Y-58075499D01*
X121385523Y-58073146D01*
X121419522Y-58069491D01*
X121545950Y-58022336D01*
X121651691Y-57943178D01*
X121717153Y-57918763D01*
X121785426Y-57933615D01*
G37*
%TD.AperFunction*%
%TA.AperFunction,Conductor*%
G36*
X118537426Y-65800900D02*
G01*
X118580617Y-65855821D01*
X118589500Y-65901908D01*
X118589500Y-66300739D01*
X118603982Y-66392173D01*
X118603982Y-66392174D01*
X118617389Y-66418486D01*
X118626678Y-66442686D01*
X118653607Y-66543183D01*
X118653607Y-66543184D01*
X118666043Y-66564723D01*
X118719500Y-66657313D01*
X118719502Y-66657315D01*
X118778950Y-66716763D01*
X118812435Y-66778086D01*
X118814207Y-66788254D01*
X118815193Y-66795747D01*
X118815194Y-66795750D01*
X118870662Y-66929664D01*
X118870663Y-66929666D01*
X118870664Y-66929667D01*
X118958904Y-67044663D01*
X119073900Y-67132903D01*
X119073901Y-67132903D01*
X119073902Y-67132904D01*
X119106357Y-67146347D01*
X119207816Y-67188372D01*
X119351525Y-67207292D01*
X119395005Y-67201567D01*
X119464038Y-67212332D01*
X119516295Y-67258711D01*
X119533663Y-67305109D01*
X119544259Y-67372015D01*
X119544260Y-67372018D01*
X119544261Y-67372022D01*
X119601498Y-67484355D01*
X119601500Y-67484357D01*
X119601502Y-67484360D01*
X119614461Y-67497319D01*
X119647946Y-67558642D01*
X119642962Y-67628334D01*
X119614461Y-67672681D01*
X119601502Y-67685639D01*
X119601499Y-67685644D01*
X119544259Y-67797980D01*
X119529500Y-67891171D01*
X119529500Y-68248822D01*
X119538269Y-68304189D01*
X119544261Y-68342022D01*
X119559001Y-68370950D01*
X119566696Y-68386052D01*
X119579592Y-68454721D01*
X119553316Y-68519461D01*
X119496210Y-68559719D01*
X119426404Y-68562711D01*
X119408588Y-68556066D01*
X119402171Y-68553981D01*
X119310735Y-68539500D01*
X118969260Y-68539500D01*
X118969260Y-68539501D01*
X118877829Y-68553981D01*
X118877825Y-68553982D01*
X118815017Y-68585985D01*
X118758723Y-68599500D01*
X118724500Y-68599500D01*
X118657461Y-68579815D01*
X118611706Y-68527011D01*
X118600500Y-68475500D01*
X118600500Y-68231276D01*
X118614015Y-68174981D01*
X118646017Y-68112175D01*
X118647734Y-68101338D01*
X118654868Y-68056291D01*
X118660500Y-68020735D01*
X118660499Y-67679266D01*
X118660499Y-67679260D01*
X118646018Y-67587829D01*
X118646018Y-67587828D01*
X118646017Y-67587826D01*
X118646017Y-67587825D01*
X118589859Y-67477609D01*
X118589857Y-67477607D01*
X118589854Y-67477603D01*
X118502396Y-67390145D01*
X118502393Y-67390143D01*
X118502391Y-67390141D01*
X118392175Y-67333983D01*
X118392174Y-67333982D01*
X118392171Y-67333981D01*
X118300735Y-67319500D01*
X117899260Y-67319500D01*
X117899260Y-67319501D01*
X117807829Y-67333981D01*
X117807828Y-67333981D01*
X117697607Y-67390142D01*
X117697603Y-67390145D01*
X117660497Y-67427251D01*
X117599174Y-67460736D01*
X117529482Y-67455750D01*
X117473551Y-67413880D01*
X117441472Y-67371028D01*
X117333450Y-67290164D01*
X117333447Y-67290162D01*
X117235638Y-67253682D01*
X117179704Y-67211811D01*
X117155287Y-67146347D01*
X117170139Y-67078074D01*
X117219544Y-67028668D01*
X117235638Y-67021318D01*
X117333447Y-66984837D01*
X117333446Y-66984837D01*
X117333450Y-66984836D01*
X117441472Y-66903972D01*
X117522336Y-66795950D01*
X117569491Y-66669522D01*
X117573146Y-66635523D01*
X117575499Y-66613644D01*
X117575500Y-66613629D01*
X117575500Y-66136188D01*
X117595185Y-66069149D01*
X117611819Y-66048507D01*
X117774807Y-65885519D01*
X117836130Y-65852034D01*
X117862488Y-65849200D01*
X118264426Y-65849200D01*
X118264428Y-65849200D01*
X118347214Y-65827018D01*
X118403500Y-65794520D01*
X118471399Y-65778048D01*
X118537426Y-65800900D01*
G37*
%TD.AperFunction*%
%TA.AperFunction,Conductor*%
G36*
X119522539Y-64147184D02*
G01*
X119568294Y-64199988D01*
X119579500Y-64251499D01*
X119579500Y-65452175D01*
X119559815Y-65519214D01*
X119507011Y-65564969D01*
X119437853Y-65574913D01*
X119399207Y-65562661D01*
X119382173Y-65553982D01*
X119382171Y-65553981D01*
X119290735Y-65539500D01*
X118949262Y-65539500D01*
X118937024Y-65541439D01*
X118867730Y-65532482D01*
X118814280Y-65487484D01*
X118793643Y-65420731D01*
X118801657Y-65378885D01*
X118801213Y-65378766D01*
X118802853Y-65372643D01*
X118803071Y-65371508D01*
X118803313Y-65370921D01*
X118803317Y-65370915D01*
X118825499Y-65288129D01*
X118825499Y-65202423D01*
X118825499Y-64474847D01*
X118803317Y-64392062D01*
X118760464Y-64317838D01*
X118757959Y-64313499D01*
X118741486Y-64245598D01*
X118764339Y-64179572D01*
X118819260Y-64136381D01*
X118865346Y-64127499D01*
X119455500Y-64127499D01*
X119522539Y-64147184D01*
G37*
%TD.AperFunction*%
%TA.AperFunction,Conductor*%
G36*
X115636662Y-62355571D02*
G01*
X115672317Y-62415658D01*
X115673789Y-62470515D01*
X115670800Y-62485545D01*
X115670800Y-62714450D01*
X115670801Y-62714458D01*
X115678370Y-62752516D01*
X115678384Y-62752550D01*
X115678392Y-62752629D01*
X115680753Y-62764499D01*
X115679690Y-62764710D01*
X115685850Y-62822019D01*
X115678386Y-62847443D01*
X115678372Y-62847476D01*
X115670800Y-62885546D01*
X115670800Y-63114449D01*
X115670801Y-63114453D01*
X115670904Y-63114970D01*
X115677046Y-63145854D01*
X115670815Y-63215445D01*
X115627949Y-63270620D01*
X115562058Y-63293862D01*
X115494062Y-63277790D01*
X115467746Y-63257720D01*
X115386319Y-63176293D01*
X115352834Y-63114970D01*
X115350000Y-63088612D01*
X115350000Y-62463994D01*
X115369685Y-62396955D01*
X115422489Y-62351200D01*
X115457812Y-62341055D01*
X115493709Y-62336330D01*
X115504716Y-62331770D01*
X115574181Y-62324299D01*
X115636662Y-62355571D01*
G37*
%TD.AperFunction*%
%TA.AperFunction,Conductor*%
G36*
X119890639Y-53695185D02*
G01*
X119936394Y-53747989D01*
X119947600Y-53799500D01*
X119947600Y-53996978D01*
X119962132Y-54070035D01*
X119962133Y-54070039D01*
X119962134Y-54070040D01*
X120017499Y-54152901D01*
X120100360Y-54208266D01*
X120100364Y-54208267D01*
X120173421Y-54222799D01*
X120173424Y-54222800D01*
X120173426Y-54222800D01*
X121467376Y-54222800D01*
X121467377Y-54222799D01*
X121540440Y-54208266D01*
X121623301Y-54152901D01*
X121623303Y-54152897D01*
X121631937Y-54144265D01*
X121632855Y-54145183D01*
X121676506Y-54108700D01*
X121745831Y-54099990D01*
X121808860Y-54130143D01*
X121845581Y-54189585D01*
X121850000Y-54222394D01*
X121850000Y-55113886D01*
X121830315Y-55180925D01*
X121777511Y-55226680D01*
X121708353Y-55236624D01*
X121651690Y-55213154D01*
X121605227Y-55178373D01*
X121605226Y-55178372D01*
X121477114Y-55130588D01*
X121477112Y-55130587D01*
X121477110Y-55130587D01*
X121420493Y-55124500D01*
X120879518Y-55124500D01*
X120879509Y-55124501D01*
X120822885Y-55130587D01*
X120694773Y-55178372D01*
X120585313Y-55260313D01*
X120503373Y-55369771D01*
X120455587Y-55497889D01*
X120449500Y-55554498D01*
X120449500Y-55791323D01*
X120429815Y-55858362D01*
X120413181Y-55879004D01*
X119729003Y-56563181D01*
X119667680Y-56596666D01*
X119641322Y-56599500D01*
X119304519Y-56599500D01*
X119304509Y-56599501D01*
X119247885Y-56605587D01*
X119119773Y-56653372D01*
X119059829Y-56698246D01*
X119017598Y-56729860D01*
X119010312Y-56735314D01*
X118991919Y-56759884D01*
X118935984Y-56801755D01*
X118927489Y-56802362D01*
X118923529Y-56857759D01*
X118923528Y-56857760D01*
X118880587Y-56972887D01*
X118874500Y-57029498D01*
X118874500Y-57570481D01*
X118874501Y-57570490D01*
X118880587Y-57627114D01*
X118928372Y-57755226D01*
X119010313Y-57864687D01*
X119119774Y-57946628D01*
X119152458Y-57958818D01*
X119208390Y-58000687D01*
X119232808Y-58066151D01*
X119217957Y-58134424D01*
X119168552Y-58183830D01*
X119152461Y-58191179D01*
X119119774Y-58203371D01*
X119119770Y-58203373D01*
X119010310Y-58285313D01*
X119006113Y-58289511D01*
X118944788Y-58322993D01*
X118875097Y-58318006D01*
X118870985Y-58316388D01*
X118792658Y-58283945D01*
X118743709Y-58263670D01*
X118671854Y-58254210D01*
X118600001Y-58244750D01*
X118599999Y-58244750D01*
X118456291Y-58263670D01*
X118456287Y-58263671D01*
X118322377Y-58319137D01*
X118207378Y-58407380D01*
X118181411Y-58441221D01*
X118124982Y-58482423D01*
X118055236Y-58486577D01*
X117994316Y-58452363D01*
X117968477Y-58413189D01*
X117930861Y-58322375D01*
X117842621Y-58207379D01*
X117727625Y-58119139D01*
X117727624Y-58119138D01*
X117727622Y-58119137D01*
X117593712Y-58063671D01*
X117593710Y-58063670D01*
X117593709Y-58063670D01*
X117521854Y-58054210D01*
X117450001Y-58044750D01*
X117449999Y-58044750D01*
X117306291Y-58063670D01*
X117306287Y-58063671D01*
X117172377Y-58119137D01*
X117057379Y-58207379D01*
X116969137Y-58322377D01*
X116913671Y-58456287D01*
X116913670Y-58456291D01*
X116894750Y-58600000D01*
X116911992Y-58730967D01*
X116913670Y-58743708D01*
X116913671Y-58743712D01*
X116969137Y-58877622D01*
X116969138Y-58877624D01*
X116969139Y-58877625D01*
X117057379Y-58992621D01*
X117102964Y-59027599D01*
X117144165Y-59084026D01*
X117146287Y-59090802D01*
X117146683Y-59091758D01*
X117147201Y-59092655D01*
X117147407Y-59093507D01*
X117149793Y-59099266D01*
X117148895Y-59099637D01*
X117163674Y-59160555D01*
X117140821Y-59226582D01*
X117087266Y-59269216D01*
X116966742Y-59319137D01*
X116851744Y-59407379D01*
X116763502Y-59522377D01*
X116708036Y-59656287D01*
X116708035Y-59656292D01*
X116697378Y-59737235D01*
X116669111Y-59801132D01*
X116610786Y-59839602D01*
X116540921Y-59840433D01*
X116486758Y-59808730D01*
X115922054Y-59244027D01*
X115888569Y-59182704D01*
X115886796Y-59140166D01*
X115905250Y-59000000D01*
X115886330Y-58856291D01*
X115830861Y-58722375D01*
X115742621Y-58607379D01*
X115627625Y-58519139D01*
X115627624Y-58519138D01*
X115627622Y-58519137D01*
X115493712Y-58463671D01*
X115493710Y-58463670D01*
X115493709Y-58463670D01*
X115474487Y-58461139D01*
X115457813Y-58458944D01*
X115393917Y-58430677D01*
X115355447Y-58372352D01*
X115350000Y-58336005D01*
X115350000Y-58132828D01*
X115369685Y-58065789D01*
X115386319Y-58045147D01*
X115512703Y-57918763D01*
X115639652Y-57791813D01*
X115639657Y-57791810D01*
X115649860Y-57781606D01*
X115649862Y-57781606D01*
X115710465Y-57721003D01*
X115753318Y-57646779D01*
X115773759Y-57570491D01*
X115773760Y-57570491D01*
X115775501Y-57563993D01*
X115775501Y-57470693D01*
X115775500Y-57470675D01*
X115775500Y-56823573D01*
X115795185Y-56756534D01*
X115847989Y-56710779D01*
X115917147Y-56700835D01*
X115980703Y-56729860D01*
X115998761Y-56749256D01*
X116010313Y-56764687D01*
X116119774Y-56846628D01*
X116247886Y-56894412D01*
X116304515Y-56900500D01*
X116895484Y-56900499D01*
X116952114Y-56894412D01*
X117080226Y-56846628D01*
X117080229Y-56846626D01*
X117189681Y-56764692D01*
X117189683Y-56764689D01*
X117189687Y-56764687D01*
X117200541Y-56750188D01*
X117256476Y-56708317D01*
X117299807Y-56700500D01*
X117400193Y-56700500D01*
X117467232Y-56720185D01*
X117499459Y-56750188D01*
X117510312Y-56764686D01*
X117510318Y-56764692D01*
X117619769Y-56846625D01*
X117619770Y-56846625D01*
X117619774Y-56846628D01*
X117747886Y-56894412D01*
X117804515Y-56900500D01*
X118395484Y-56900499D01*
X118452114Y-56894412D01*
X118580226Y-56846628D01*
X118689687Y-56764687D01*
X118708080Y-56740116D01*
X118764010Y-56698246D01*
X118772508Y-56697637D01*
X118776471Y-56642239D01*
X118819412Y-56527114D01*
X118820811Y-56514095D01*
X118825499Y-56470501D01*
X118825499Y-56470494D01*
X118825500Y-56470485D01*
X118825499Y-55929516D01*
X118819412Y-55872886D01*
X118819412Y-55872885D01*
X118817628Y-55865335D01*
X118819606Y-55864867D01*
X118815374Y-55805743D01*
X118848856Y-55744418D01*
X118889090Y-55717533D01*
X118932626Y-55699500D01*
X118977625Y-55680861D01*
X119092621Y-55592621D01*
X119180861Y-55477625D01*
X119236330Y-55343709D01*
X119255250Y-55200000D01*
X119236330Y-55056291D01*
X119180861Y-54922375D01*
X119092621Y-54807379D01*
X118977625Y-54719139D01*
X118977624Y-54719138D01*
X118977622Y-54719137D01*
X118843712Y-54663671D01*
X118843710Y-54663670D01*
X118843709Y-54663670D01*
X118755182Y-54652015D01*
X118700001Y-54644750D01*
X118699997Y-54644750D01*
X118676744Y-54647811D01*
X118607708Y-54637045D01*
X118572879Y-54612553D01*
X117970956Y-54010629D01*
X117937471Y-53949306D01*
X117942455Y-53879614D01*
X117984327Y-53823681D01*
X118049791Y-53799264D01*
X118118064Y-53814116D01*
X118120640Y-53815563D01*
X118126677Y-53819048D01*
X118126681Y-53819051D01*
X118260597Y-53874520D01*
X118387586Y-53891238D01*
X118404305Y-53893440D01*
X118404306Y-53893440D01*
X118404307Y-53893440D01*
X118419283Y-53891468D01*
X118548015Y-53874520D01*
X118681931Y-53819051D01*
X118796927Y-53730811D01*
X118797650Y-53729867D01*
X118802143Y-53724014D01*
X118858571Y-53682811D01*
X118900519Y-53675500D01*
X119823600Y-53675500D01*
X119890639Y-53695185D01*
G37*
%TD.AperFunction*%
%TA.AperFunction,Conductor*%
G36*
X106800617Y-42778879D02*
G01*
X106805551Y-42779478D01*
X107777534Y-42917412D01*
X107782431Y-42918208D01*
X108748078Y-43095170D01*
X108752963Y-43096167D01*
X109710684Y-43311863D01*
X109715511Y-43313053D01*
X110663819Y-43567152D01*
X110668568Y-43568528D01*
X111605844Y-43860594D01*
X111610506Y-43862150D01*
X112535317Y-44191741D01*
X112539942Y-44193496D01*
X113450690Y-44560040D01*
X113455229Y-44561973D01*
X114294475Y-44939687D01*
X114350476Y-44964891D01*
X114354979Y-44967028D01*
X115233264Y-45405661D01*
X115237664Y-45407970D01*
X116097571Y-45881611D01*
X116101876Y-45884096D01*
X116942031Y-46391986D01*
X116946200Y-46394623D01*
X117756858Y-46930404D01*
X117765219Y-46935930D01*
X117769320Y-46938760D01*
X118565881Y-47512608D01*
X118569834Y-47515579D01*
X119165152Y-47981981D01*
X119342642Y-48121036D01*
X119346510Y-48124195D01*
X120094250Y-48760225D01*
X120097989Y-48763536D01*
X120819580Y-49429222D01*
X120823181Y-49432682D01*
X121303318Y-49912819D01*
X121336803Y-49974142D01*
X121331819Y-50043834D01*
X121289947Y-50099767D01*
X121224483Y-50124184D01*
X121215637Y-50124500D01*
X120845730Y-50124500D01*
X120815300Y-50127353D01*
X120815298Y-50127353D01*
X120687119Y-50172206D01*
X120687117Y-50172207D01*
X120577850Y-50252850D01*
X120497207Y-50362117D01*
X120497206Y-50362119D01*
X120452353Y-50490298D01*
X120452353Y-50490300D01*
X120449500Y-50520730D01*
X120449500Y-51179269D01*
X120452353Y-51209698D01*
X120487941Y-51311399D01*
X120494900Y-51352355D01*
X120494900Y-52353200D01*
X120475215Y-52420239D01*
X120422411Y-52465994D01*
X120370900Y-52477200D01*
X120173423Y-52477200D01*
X120100364Y-52491732D01*
X120100360Y-52491733D01*
X120017499Y-52547099D01*
X119962133Y-52629960D01*
X119962132Y-52629964D01*
X119947600Y-52703021D01*
X119947600Y-52900500D01*
X119927915Y-52967539D01*
X119875111Y-53013294D01*
X119823600Y-53024500D01*
X118918643Y-53024500D01*
X118851604Y-53004815D01*
X118820268Y-52975987D01*
X118810223Y-52962897D01*
X118796927Y-52945569D01*
X118681931Y-52857329D01*
X118681930Y-52857328D01*
X118681928Y-52857327D01*
X118548018Y-52801861D01*
X118548016Y-52801860D01*
X118548015Y-52801860D01*
X118476160Y-52792400D01*
X118404307Y-52782940D01*
X118404305Y-52782940D01*
X118260597Y-52801860D01*
X118260593Y-52801861D01*
X118126683Y-52857327D01*
X118011685Y-52945569D01*
X117923443Y-53060567D01*
X117889061Y-53143576D01*
X117845221Y-53197980D01*
X117778927Y-53220045D01*
X117711227Y-53202766D01*
X117663616Y-53151629D01*
X117650500Y-53096124D01*
X117650500Y-51699500D01*
X117670185Y-51632461D01*
X117722989Y-51586706D01*
X117774500Y-51575500D01*
X118120750Y-51575500D01*
X118187789Y-51595185D01*
X118233544Y-51647989D01*
X118243122Y-51692016D01*
X118243689Y-51691942D01*
X118244582Y-51698732D01*
X118244750Y-51699500D01*
X118244750Y-51700000D01*
X118263670Y-51843708D01*
X118263671Y-51843712D01*
X118319137Y-51977622D01*
X118319138Y-51977624D01*
X118319139Y-51977625D01*
X118407379Y-52092621D01*
X118522375Y-52180861D01*
X118656291Y-52236330D01*
X118783280Y-52253048D01*
X118799999Y-52255250D01*
X118800000Y-52255250D01*
X118800001Y-52255250D01*
X118814977Y-52253278D01*
X118943709Y-52236330D01*
X119077625Y-52180861D01*
X119192621Y-52092621D01*
X119280861Y-51977625D01*
X119336330Y-51843709D01*
X119355250Y-51700000D01*
X119336330Y-51556291D01*
X119280861Y-51422375D01*
X119192621Y-51307379D01*
X119077625Y-51219139D01*
X119077624Y-51219138D01*
X119077622Y-51219137D01*
X118943712Y-51163671D01*
X118943710Y-51163670D01*
X118943709Y-51163670D01*
X118839695Y-51149976D01*
X118791942Y-51143689D01*
X118792347Y-51140612D01*
X118739400Y-51125065D01*
X118718758Y-51108431D01*
X118686819Y-51076492D01*
X118653334Y-51015169D01*
X118650500Y-50988811D01*
X118650500Y-50520730D01*
X118647646Y-50490300D01*
X118647646Y-50490298D01*
X118602793Y-50362119D01*
X118602792Y-50362117D01*
X118525552Y-50257460D01*
X118522150Y-50252850D01*
X118522148Y-50252849D01*
X118522148Y-50252848D01*
X118450229Y-50199770D01*
X118407978Y-50144123D01*
X118402519Y-50074467D01*
X118435586Y-50012917D01*
X118450229Y-50000230D01*
X118488002Y-49972352D01*
X118522150Y-49947150D01*
X118602793Y-49837882D01*
X118632547Y-49752850D01*
X118647646Y-49709701D01*
X118647646Y-49709699D01*
X118650500Y-49679269D01*
X118650500Y-49020730D01*
X118647646Y-48990300D01*
X118647646Y-48990298D01*
X118602793Y-48862119D01*
X118602792Y-48862117D01*
X118601104Y-48859830D01*
X118522150Y-48752850D01*
X118412882Y-48672207D01*
X118412880Y-48672206D01*
X118284700Y-48627353D01*
X118254270Y-48624500D01*
X118254266Y-48624500D01*
X117745734Y-48624500D01*
X117745733Y-48624500D01*
X117740996Y-48624944D01*
X117672412Y-48611601D01*
X117622038Y-48563485D01*
X117606890Y-48537248D01*
X117606889Y-48537246D01*
X117585467Y-48500141D01*
X117585466Y-48500140D01*
X117585465Y-48500138D01*
X117524862Y-48439535D01*
X117524861Y-48439534D01*
X117520531Y-48435204D01*
X117520520Y-48435194D01*
X117174864Y-48089537D01*
X117174863Y-48089536D01*
X117174862Y-48089535D01*
X117137750Y-48068108D01*
X117100640Y-48046682D01*
X117059246Y-48035591D01*
X117017853Y-48024500D01*
X117017852Y-48024500D01*
X114849500Y-48024500D01*
X114782461Y-48004815D01*
X114736706Y-47952011D01*
X114725500Y-47900500D01*
X114725500Y-46225323D01*
X114725499Y-46225321D01*
X114710967Y-46152264D01*
X114710966Y-46152260D01*
X114655601Y-46069399D01*
X114572740Y-46014034D01*
X114572739Y-46014033D01*
X114572735Y-46014032D01*
X114499677Y-45999500D01*
X114499674Y-45999500D01*
X112750326Y-45999500D01*
X112750321Y-45999500D01*
X112677290Y-46014027D01*
X112607699Y-46007800D01*
X112565418Y-45980091D01*
X112299864Y-45714537D01*
X112299862Y-45714535D01*
X112262750Y-45693108D01*
X112225640Y-45671682D01*
X112184246Y-45660591D01*
X112142853Y-45649500D01*
X112142852Y-45649500D01*
X107411188Y-45649500D01*
X107344149Y-45629815D01*
X107323507Y-45613181D01*
X106847508Y-45137181D01*
X106814023Y-45075858D01*
X106819007Y-45006166D01*
X106860879Y-44950233D01*
X106926343Y-44925816D01*
X106935189Y-44925500D01*
X106975091Y-44925500D01*
X107042130Y-44945185D01*
X107049386Y-44950222D01*
X107144774Y-45021628D01*
X107272886Y-45069412D01*
X107329515Y-45075500D01*
X107870484Y-45075499D01*
X107927114Y-45069412D01*
X108055226Y-45021628D01*
X108164687Y-44939687D01*
X108246628Y-44830226D01*
X108258819Y-44797538D01*
X108300687Y-44741609D01*
X108366150Y-44717191D01*
X108434424Y-44732042D01*
X108483830Y-44781446D01*
X108491180Y-44797539D01*
X108503372Y-44830227D01*
X108524402Y-44858319D01*
X108585313Y-44939687D01*
X108694774Y-45021628D01*
X108822886Y-45069412D01*
X108879515Y-45075500D01*
X109420484Y-45075499D01*
X109477114Y-45069412D01*
X109605226Y-45021628D01*
X109714687Y-44939687D01*
X109744253Y-44900190D01*
X109800186Y-44858319D01*
X109843521Y-44850500D01*
X109845124Y-44850500D01*
X109892572Y-44859937D01*
X109956291Y-44886330D01*
X110052097Y-44898943D01*
X110099999Y-44905250D01*
X110100000Y-44905250D01*
X110100001Y-44905250D01*
X110114977Y-44903278D01*
X110243709Y-44886330D01*
X110377625Y-44830861D01*
X110492621Y-44742621D01*
X110580861Y-44627625D01*
X110636330Y-44493709D01*
X110655250Y-44350000D01*
X110636330Y-44206291D01*
X110580861Y-44072375D01*
X110492621Y-43957379D01*
X110377625Y-43869139D01*
X110377624Y-43869138D01*
X110377622Y-43869137D01*
X110243712Y-43813671D01*
X110243710Y-43813670D01*
X110243709Y-43813670D01*
X110171854Y-43804210D01*
X110100001Y-43794750D01*
X110099999Y-43794750D01*
X109956293Y-43813669D01*
X109939912Y-43820453D01*
X109892572Y-43840062D01*
X109845124Y-43849500D01*
X109843521Y-43849500D01*
X109776482Y-43829815D01*
X109744253Y-43799809D01*
X109714690Y-43760317D01*
X109714689Y-43760316D01*
X109714687Y-43760313D01*
X109641576Y-43705583D01*
X109605228Y-43678373D01*
X109605226Y-43678372D01*
X109477114Y-43630588D01*
X109477112Y-43630587D01*
X109477110Y-43630587D01*
X109420493Y-43624500D01*
X108879518Y-43624500D01*
X108879509Y-43624501D01*
X108822885Y-43630587D01*
X108694773Y-43678372D01*
X108585313Y-43760313D01*
X108503372Y-43869773D01*
X108491181Y-43902459D01*
X108449310Y-43958392D01*
X108383845Y-43982808D01*
X108315572Y-43967956D01*
X108266167Y-43918550D01*
X108258819Y-43902459D01*
X108254636Y-43891244D01*
X108246628Y-43869774D01*
X108164687Y-43760313D01*
X108094157Y-43707515D01*
X108055228Y-43678373D01*
X108055226Y-43678372D01*
X107927114Y-43630588D01*
X107927112Y-43630587D01*
X107927110Y-43630587D01*
X107870493Y-43624500D01*
X107329518Y-43624500D01*
X107329509Y-43624501D01*
X107272885Y-43630587D01*
X107144773Y-43678372D01*
X107035313Y-43760313D01*
X106953373Y-43869771D01*
X106944801Y-43892754D01*
X106902928Y-43948686D01*
X106837463Y-43973101D01*
X106769190Y-43958248D01*
X106719786Y-43908841D01*
X106713341Y-43891077D01*
X106712940Y-43891244D01*
X106708266Y-43879960D01*
X106696376Y-43862165D01*
X106652901Y-43797099D01*
X106570040Y-43741734D01*
X106570039Y-43741733D01*
X106570035Y-43741732D01*
X106496977Y-43727200D01*
X106496974Y-43727200D01*
X106474000Y-43727200D01*
X106406961Y-43707515D01*
X106361206Y-43654711D01*
X106350000Y-43603200D01*
X106350000Y-42870510D01*
X106369685Y-42803471D01*
X106422489Y-42757716D01*
X106486460Y-42747138D01*
X106800617Y-42778879D01*
G37*
%TD.AperFunction*%
%TA.AperFunction,Conductor*%
G36*
X112138548Y-47766070D02*
G01*
X112171776Y-47827533D01*
X112174500Y-47853383D01*
X112174500Y-48267852D01*
X112196682Y-48350640D01*
X112239536Y-48424863D01*
X112364534Y-48549860D01*
X112364534Y-48549861D01*
X112364535Y-48549862D01*
X112425138Y-48610465D01*
X112425139Y-48610466D01*
X112425141Y-48610467D01*
X112439764Y-48618909D01*
X112454391Y-48627354D01*
X112499361Y-48653318D01*
X112582147Y-48675501D01*
X112582149Y-48675501D01*
X112675449Y-48675501D01*
X112675465Y-48675500D01*
X116788810Y-48675500D01*
X116855849Y-48695185D01*
X116876491Y-48711818D01*
X116963181Y-48798507D01*
X116996666Y-48859830D01*
X116999500Y-48886189D01*
X116999500Y-51134208D01*
X116979815Y-51201247D01*
X116927011Y-51247002D01*
X116859315Y-51257147D01*
X116750002Y-51242756D01*
X116749999Y-51242756D01*
X116606291Y-51261676D01*
X116606287Y-51261677D01*
X116472377Y-51317143D01*
X116372331Y-51393912D01*
X116357379Y-51405385D01*
X116270421Y-51518711D01*
X116269137Y-51520384D01*
X116242747Y-51584095D01*
X116215867Y-51624323D01*
X116140192Y-51700000D01*
X116135683Y-51704509D01*
X116074360Y-51737994D01*
X116004668Y-51733010D01*
X115948734Y-51691139D01*
X115933447Y-51659669D01*
X115932329Y-51660133D01*
X115873751Y-51518711D01*
X115873750Y-51518710D01*
X115873750Y-51518709D01*
X115785510Y-51403713D01*
X115785508Y-51403712D01*
X115785508Y-51403711D01*
X115772155Y-51393465D01*
X115752514Y-51378394D01*
X115711314Y-51321968D01*
X115708231Y-51312126D01*
X115696207Y-51267250D01*
X115668430Y-51219139D01*
X115653354Y-51193027D01*
X115592751Y-51132424D01*
X115592750Y-51132423D01*
X115588420Y-51128093D01*
X115588409Y-51128083D01*
X115036819Y-50576492D01*
X115003334Y-50515169D01*
X115000500Y-50488811D01*
X115000500Y-50020730D01*
X114997646Y-49990300D01*
X114997646Y-49990298D01*
X114952793Y-49862119D01*
X114952792Y-49862117D01*
X114934906Y-49837882D01*
X114872150Y-49752850D01*
X114762882Y-49672207D01*
X114762880Y-49672206D01*
X114634700Y-49627353D01*
X114604270Y-49624500D01*
X114604266Y-49624500D01*
X114095734Y-49624500D01*
X114095730Y-49624500D01*
X114065300Y-49627353D01*
X114065298Y-49627353D01*
X113937119Y-49672206D01*
X113937117Y-49672207D01*
X113827850Y-49752850D01*
X113747207Y-49862117D01*
X113747206Y-49862119D01*
X113702353Y-49990298D01*
X113702353Y-49990300D01*
X113699500Y-50020730D01*
X113699500Y-50679269D01*
X113702353Y-50709699D01*
X113702353Y-50709701D01*
X113747206Y-50837880D01*
X113747207Y-50837882D01*
X113827850Y-50947150D01*
X113900449Y-51000730D01*
X113942699Y-51056377D01*
X113948158Y-51126034D01*
X113915090Y-51187583D01*
X113853996Y-51221484D01*
X113826815Y-51224500D01*
X111604541Y-51224500D01*
X111537502Y-51204815D01*
X111491747Y-51152011D01*
X111481803Y-51082853D01*
X111497154Y-51038500D01*
X111498347Y-51036433D01*
X111528318Y-50984522D01*
X111538332Y-50947150D01*
X111550501Y-50901737D01*
X111550501Y-50816031D01*
X111550501Y-50808436D01*
X111550500Y-50808418D01*
X111550500Y-48175218D01*
X111570185Y-48108179D01*
X111609223Y-48069791D01*
X111751039Y-47981982D01*
X111751038Y-47981982D01*
X111751041Y-47981981D01*
X111901764Y-47844579D01*
X111951547Y-47778655D01*
X112007654Y-47737020D01*
X112077366Y-47732328D01*
X112138548Y-47766070D01*
G37*
%TD.AperFunction*%
%TA.AperFunction,Conductor*%
G36*
X110818834Y-50012573D02*
G01*
X110874767Y-50054445D01*
X110899184Y-50119909D01*
X110899500Y-50128755D01*
X110899500Y-50672695D01*
X110879815Y-50739734D01*
X110863181Y-50760376D01*
X110631929Y-50991627D01*
X110570606Y-51025112D01*
X110500914Y-51020128D01*
X110487966Y-51014436D01*
X110487804Y-51014354D01*
X110487800Y-51014353D01*
X110487798Y-51014352D01*
X110394024Y-50999500D01*
X109362000Y-50999500D01*
X109294961Y-50979815D01*
X109249206Y-50927011D01*
X109238000Y-50875500D01*
X109238000Y-50324499D01*
X109257685Y-50257460D01*
X109310489Y-50211705D01*
X109361995Y-50200499D01*
X110394018Y-50200499D01*
X110487804Y-50185646D01*
X110600842Y-50128050D01*
X110629392Y-50099500D01*
X110687819Y-50041074D01*
X110749142Y-50007589D01*
X110818834Y-50012573D01*
G37*
%TD.AperFunction*%
%TD*%
%TA.AperFunction,Conductor*%
%TO.N,Net-(D1-K)*%
G36*
X96543039Y-54619685D02*
G01*
X96588794Y-54672489D01*
X96600000Y-54724000D01*
X96600000Y-56350000D01*
X94100000Y-56350000D01*
X93930071Y-56180071D01*
X93896586Y-56118748D01*
X93901570Y-56049056D01*
X93922490Y-56013011D01*
X95062819Y-54644616D01*
X95120858Y-54605718D01*
X95158078Y-54600000D01*
X96476000Y-54600000D01*
X96543039Y-54619685D01*
G37*
%TD.AperFunction*%
%TD*%
%TA.AperFunction,Conductor*%
%TO.N,Net-(D1-K)*%
G36*
X111100000Y-56350000D02*
G01*
X113100000Y-56350000D01*
X106350000Y-63099999D01*
X106350000Y-66726000D01*
X106330315Y-66793039D01*
X106277511Y-66838794D01*
X106226000Y-66850000D01*
X101474000Y-66850000D01*
X101406961Y-66830315D01*
X101361206Y-66777511D01*
X101350000Y-66726000D01*
X101350000Y-63600000D01*
X94100000Y-56350000D01*
X96600000Y-56350000D01*
X96600000Y-56100000D01*
X111100000Y-56100000D01*
X111100000Y-56350000D01*
G37*
%TD.AperFunction*%
%TD*%
%TA.AperFunction,Conductor*%
%TO.N,Net-(D5-A)*%
G36*
X86896617Y-65426685D02*
G01*
X86923291Y-65449798D01*
X86959963Y-65492120D01*
X86959967Y-65492125D01*
X86959972Y-65492130D01*
X86959974Y-65492132D01*
X86992748Y-65523757D01*
X87081083Y-65569965D01*
X87081084Y-65569965D01*
X87081084Y-65569966D01*
X87131212Y-65584684D01*
X87148122Y-65589650D01*
X87148126Y-65589650D01*
X87148128Y-65589651D01*
X87159759Y-65591323D01*
X87220107Y-65600000D01*
X87399436Y-65600000D01*
X87417636Y-65601343D01*
X87421291Y-65601885D01*
X87421294Y-65601885D01*
X87421299Y-65601886D01*
X87445492Y-65604269D01*
X87470537Y-65605500D01*
X87651114Y-65605500D01*
X87718153Y-65625185D01*
X87762023Y-65674046D01*
X88586983Y-67323967D01*
X88600074Y-67379103D01*
X88615853Y-73533073D01*
X88596340Y-73600163D01*
X88554041Y-73640669D01*
X88503784Y-73669802D01*
X88503773Y-73669809D01*
X88451343Y-73715952D01*
X88451325Y-73715969D01*
X88419960Y-73748980D01*
X88374432Y-73837670D01*
X88374429Y-73837677D01*
X88355263Y-73904859D01*
X88355263Y-73904860D01*
X88345469Y-73976913D01*
X88345469Y-73976914D01*
X88345469Y-73976917D01*
X88345469Y-73976918D01*
X88366438Y-76702986D01*
X88366566Y-76719545D01*
X88347398Y-76786734D01*
X88294948Y-76832894D01*
X88242570Y-76844499D01*
X85754500Y-76844499D01*
X85687461Y-76824814D01*
X85641706Y-76772010D01*
X85630500Y-76720499D01*
X85630500Y-75909142D01*
X85630088Y-75893796D01*
X85630110Y-75893795D01*
X85630000Y-75889666D01*
X85630000Y-74510330D01*
X85630110Y-74506190D01*
X85630088Y-74506190D01*
X85630500Y-74490809D01*
X85630500Y-71290904D01*
X85630500Y-71290898D01*
X85623652Y-71232141D01*
X85610536Y-71176636D01*
X85601274Y-71146103D01*
X85548882Y-71061289D01*
X85501271Y-71010152D01*
X85467387Y-70979717D01*
X85467385Y-70979716D01*
X85445483Y-70969237D01*
X85393504Y-70922546D01*
X85375000Y-70857380D01*
X85375000Y-70812694D01*
X85394685Y-70745655D01*
X85424690Y-70713426D01*
X85432546Y-70707546D01*
X85518796Y-70592331D01*
X85569091Y-70457483D01*
X85575500Y-70397873D01*
X85575499Y-69802128D01*
X85569091Y-69742517D01*
X85520696Y-69612763D01*
X85515712Y-69543071D01*
X85547650Y-69483324D01*
X85554257Y-69476478D01*
X85600465Y-69388143D01*
X85620150Y-69321104D01*
X85630500Y-69249119D01*
X85630500Y-67465327D01*
X85630500Y-67465316D01*
X85628783Y-67435770D01*
X85628782Y-67435747D01*
X85625458Y-67407229D01*
X85625184Y-67404964D01*
X85593700Y-67310374D01*
X85559125Y-67249659D01*
X85557377Y-67247141D01*
X85533156Y-67212256D01*
X85533153Y-67212253D01*
X85533151Y-67212250D01*
X85455527Y-67149697D01*
X85455524Y-67149695D01*
X85441520Y-67142369D01*
X85391243Y-67093851D01*
X85375000Y-67032496D01*
X85375000Y-65531000D01*
X85394685Y-65463961D01*
X85447489Y-65418206D01*
X85499000Y-65407000D01*
X86829578Y-65407000D01*
X86896617Y-65426685D01*
G37*
%TD.AperFunction*%
%TD*%
%TA.AperFunction,Conductor*%
%TO.N,Net-(D1-A)*%
G36*
X100813681Y-63563681D02*
G01*
X100847166Y-63625004D01*
X100850000Y-63651362D01*
X100850000Y-66726000D01*
X100830315Y-66793039D01*
X100777511Y-66838794D01*
X100726000Y-66850000D01*
X94125000Y-66850000D01*
X94125000Y-61600000D01*
X92850000Y-61600000D01*
X92850000Y-56350000D01*
X93350000Y-56350000D01*
X93350000Y-56100000D01*
X100813681Y-63563681D01*
G37*
%TD.AperFunction*%
%TD*%
%TA.AperFunction,Conductor*%
%TO.N,Net-(D3-K)*%
G36*
X96600000Y-78100000D02*
G01*
X96600000Y-80425500D01*
X96580315Y-80492539D01*
X96527511Y-80538294D01*
X96476000Y-80549500D01*
X95224000Y-80549500D01*
X95156961Y-80529815D01*
X95111206Y-80477011D01*
X95100000Y-80425500D01*
X95100000Y-78151362D01*
X95119685Y-78084323D01*
X95136319Y-78063681D01*
X95350000Y-77850000D01*
X96600000Y-77850000D01*
X96600000Y-78100000D01*
G37*
%TD.AperFunction*%
%TD*%
%TA.AperFunction,Conductor*%
%TO.N,Net-(D2-A)*%
G36*
X114655039Y-54619685D02*
G01*
X114700794Y-54672489D01*
X114712000Y-54724000D01*
X114712000Y-56350000D01*
X113850000Y-56350000D01*
X113850000Y-56100000D01*
X113849999Y-56099999D01*
X113850000Y-56099999D01*
X113370826Y-55381238D01*
X113350018Y-55314539D01*
X113350000Y-55312455D01*
X113350000Y-54724000D01*
X113369685Y-54656961D01*
X113422489Y-54611206D01*
X113474000Y-54600000D01*
X114588000Y-54600000D01*
X114655039Y-54619685D01*
G37*
%TD.AperFunction*%
%TD*%
%TA.AperFunction,Conductor*%
%TO.N,Net-(D1-A)*%
G36*
X94125000Y-66850000D02*
G01*
X92850000Y-66850000D01*
X88974000Y-66850000D01*
X88906961Y-66830315D01*
X88861206Y-66777511D01*
X88850000Y-66726000D01*
X88850000Y-65729500D01*
X88869685Y-65662461D01*
X88922489Y-65616706D01*
X88974000Y-65605500D01*
X89126000Y-65605500D01*
X89180313Y-65599661D01*
X89231824Y-65588455D01*
X89258198Y-65581219D01*
X89325135Y-65543102D01*
X89344818Y-65531894D01*
X89344819Y-65531892D01*
X89344828Y-65531888D01*
X89397632Y-65486133D01*
X89429257Y-65453359D01*
X89475465Y-65365024D01*
X89495150Y-65297985D01*
X89505500Y-65226000D01*
X89505500Y-62868554D01*
X89504036Y-62841240D01*
X89501202Y-62814882D01*
X89471413Y-62719748D01*
X89437928Y-62658425D01*
X89394347Y-62600207D01*
X89394342Y-62600202D01*
X89394334Y-62600193D01*
X88886319Y-62092178D01*
X88852834Y-62030855D01*
X88850000Y-62004497D01*
X88850000Y-61724000D01*
X88869685Y-61656961D01*
X88922489Y-61611206D01*
X88974000Y-61600000D01*
X92850000Y-61600000D01*
X94125000Y-61600000D01*
X94125000Y-66850000D01*
G37*
%TD.AperFunction*%
%TD*%
M02*
